<svg width="18" height="18" viewBox="0 0 18 18" fill="none" xmlns="http://www.w3.org/2000/svg">
<path d="M11.7422 2.98828C12.0234 2.98828 12.2578 3.09375 12.4453 3.30469C12.6562 3.49219 12.7617 3.72656 12.7617 4.00781V15.5039C12.7617 15.7852 12.6562 16.0195 12.4453 16.207C12.2578 16.3945 12.0234 16.4883 11.7422 16.4883H6.25781C5.97656 16.4883 5.73047 16.3945 5.51953 16.207C5.33203 16.0195 5.23828 15.7852 5.23828 15.5039V4.00781C5.23828 3.72656 5.33203 3.49219 5.51953 3.30469C5.73047 3.09375 5.97656 2.98828 6.25781 2.98828H7.48828V1.51172H10.5117V2.98828H11.7422Z" fill="#666666"/>
</svg>
