<svg width="360" height="164" viewBox="0 0 360 164" fill="none" xmlns="http://www.w3.org/2000/svg">
<g opacity="0.7" clip-path="url(#clip0_4_772)">
<rect width="361" height="185" fill="url(#paint0_linear_4_772)"/>
<path d="M140.97 145.565L142.577 145.235C144.664 144.805 146.802 144.563 148.93 144.515L150.567 144.477L150.34 146.669L148.703 146.704C146.874 146.746 145.038 146.954 143.241 147.322L141.635 147.652L140.97 145.565Z" fill="#FFC206"/>
<path d="M224.629 48.4712C218.886 50.415 212.507 46.6055 210.381 39.9612C208.256 33.3169 211.188 26.3557 216.93 24.4132L218.627 23.8396L226.327 47.8983L224.63 48.4731" fill="#FAA805"/>
<path d="M224.311 48.1472C230.499 47.5479 234.726 41.456 233.75 34.5419C232.774 27.6278 226.968 22.5061 220.781 23.103C214.595 23.6998 210.366 29.7936 211.342 36.7083C212.318 43.623 218.123 48.7466 224.311 48.1472Z" fill="#FFC937"/>
<path d="M224.275 46.686C218.92 47.2082 213.877 42.7207 213.034 36.6805C212.61 33.6458 213.334 30.6061 215.019 28.3446L215.024 28.3383C215.769 27.3279 216.704 26.4899 217.77 25.8764C218.836 25.2628 220.01 24.8869 221.22 24.772C226.574 24.2485 231.616 28.7373 232.46 34.7775C232.884 37.8121 232.16 40.8518 230.475 43.1127L230.47 43.119C229.725 44.1295 228.79 44.9676 227.724 45.5812C226.658 46.1949 225.484 46.5709 224.275 46.686V46.686ZM215.092 28.4072C213.423 30.6466 212.707 33.6547 213.127 36.6659C213.965 42.6537 218.961 47.1013 224.266 46.5848C225.463 46.4709 226.624 46.0987 227.678 45.4915C228.733 44.8843 229.657 44.055 230.395 43.0551L230.4 43.0488C232.069 40.8101 232.785 37.8014 232.365 34.7908C231.529 28.803 226.533 24.3528 221.228 24.8712C220.032 24.9853 218.87 25.3574 217.816 25.9643C216.762 26.5713 215.837 27.4002 215.099 28.3996L215.092 28.4072Z" fill="#FFF4CC"/>
<path d="M224.6 33.7781C225.004 34.0826 225.332 34.4789 225.556 34.9347L226.583 34.6833C226.618 34.6749 226.655 34.6796 226.686 34.6965C226.701 34.7042 226.714 34.7148 226.725 34.7278C226.736 34.7408 226.744 34.7558 226.749 34.7719L226.946 35.4105C226.95 35.4264 226.952 35.4431 226.95 35.4596C226.948 35.4759 226.942 35.4916 226.934 35.5055C226.925 35.5198 226.913 35.5322 226.899 35.5419C226.885 35.5519 226.869 35.5592 226.852 35.5633L225.882 35.8009C226.013 36.3595 226.013 36.8768 225.882 37.3529C225.756 37.8363 225.496 38.2739 225.133 38.6151L228.544 41.1395C228.563 41.1535 228.578 41.1727 228.587 41.1949C228.596 41.2162 228.598 41.2396 228.593 41.2621C228.589 41.2861 228.577 41.308 228.56 41.325C228.543 41.3422 228.521 41.3542 228.497 41.3596L226.262 41.9064C226.242 41.911 226.22 41.911 226.2 41.9064C226.179 41.9027 226.159 41.8941 226.142 41.8813L223.187 39.6856C223.095 39.7177 222.944 39.7598 222.735 39.8113L220.225 40.4274C220.207 40.4305 220.189 40.4305 220.172 40.4274C220.154 40.4251 220.137 40.4198 220.121 40.4116C220.106 40.4035 220.092 40.3924 220.081 40.379C220.07 40.3664 220.062 40.3516 220.057 40.3356L219.606 38.8722C219.601 38.8565 219.6 38.8398 219.602 38.8234C219.604 38.8071 219.609 38.7913 219.618 38.7773C219.637 38.7477 219.666 38.7267 219.7 38.7188L222.084 38.1355C222.673 38.0293 223.099 37.769 223.383 37.4629C223.677 37.1545 223.801 36.7744 223.754 36.3226L219.298 37.412C219.28 37.4152 219.262 37.4152 219.244 37.412C219.227 37.4096 219.21 37.4043 219.194 37.3963C219.179 37.3881 219.165 37.377 219.154 37.3636C219.143 37.3511 219.135 37.3363 219.13 37.3202L218.933 36.6809C218.928 36.6652 218.927 36.6487 218.929 36.6325C218.931 36.6162 218.937 36.6006 218.945 36.5866C218.964 36.5574 218.993 36.5366 219.026 36.5288L223.481 35.4376C223.385 35.2454 223.251 35.075 223.087 34.937C222.923 34.7991 222.733 34.6964 222.528 34.6355C222.107 34.5014 221.602 34.5066 221.012 34.6512L218.629 35.2339C218.594 35.2421 218.558 35.2376 218.526 35.2213C218.496 35.2051 218.474 35.1778 218.464 35.1453L218.013 33.7014C218.008 33.6856 218.007 33.6688 218.009 33.6524C218.011 33.6361 218.016 33.6204 218.025 33.6065C218.034 33.592 218.046 33.5796 218.059 33.57C218.074 33.5599 218.09 33.5527 218.107 33.5487L225.666 31.7012C225.683 31.697 225.7 31.696 225.718 31.6981C225.736 31.7003 225.753 31.7057 225.769 31.7138C225.784 31.7222 225.798 31.7333 225.809 31.7465C225.82 31.7591 225.828 31.7739 225.833 31.7898L226.281 33.24C226.286 33.2558 226.287 33.2725 226.285 33.2888C226.283 33.3052 226.278 33.3209 226.269 33.3349C226.25 33.364 226.221 33.3847 226.188 33.3928L224.6 33.7781Z" fill="#FFF4CC"/>
<path d="M156.649 178.028C158.22 171.01 153.5 164.213 146.108 162.849C138.716 161.485 131.449 166.066 129.876 173.081C128.304 180.097 133.025 186.896 140.417 188.26C147.81 189.624 155.079 185.046 156.649 178.028Z" fill="#FFC937"/>
<path d="M155.148 177.552C153.792 183.625 147.44 187.59 140.986 186.388C137.743 185.785 134.9 183.917 133.189 181.267L133.184 181.259C132.417 180.083 131.892 178.759 131.642 177.37C131.393 175.982 131.424 174.558 131.733 173.187C133.087 167.113 139.44 163.149 145.894 164.35C149.137 164.954 151.981 166.821 153.691 169.472L153.696 169.479C154.463 170.656 154.988 171.979 155.238 173.368C155.487 174.757 155.457 176.181 155.148 177.552V177.552ZM133.278 181.208C134.972 183.834 137.786 185.682 141.004 186.282C147.403 187.47 153.698 183.543 155.042 177.525C155.347 176.169 155.377 174.76 155.13 173.387C154.883 172.013 154.363 170.703 153.604 169.54L153.599 169.532C151.906 166.907 149.091 165.059 145.874 164.46C139.476 163.268 133.178 167.195 131.837 173.213C131.531 174.569 131.501 175.977 131.748 177.351C131.995 178.724 132.514 180.034 133.273 181.198L133.278 181.208Z" fill="#FFF4CC"/>
<path d="M103.894 37.42L101.384 34.0302L103.015 32.7264C105.097 31.0622 107.118 29.2676 109.023 27.3938L110.516 25.9238L113.346 29.0299L111.853 30.4998C109.844 32.4733 107.716 34.3651 105.525 36.1162L103.894 37.42Z" fill="#D3F489"/>
<path d="M136.457 8L133.155 6.59198L133.817 4.83983C134.294 3.57964 133.986 1.96321 133.084 0.998678L131.83 -0.341485L134.358 -3L135.612 -1.65984C137.528 0.390394 138.134 3.56752 137.12 6.24785L136.457 8Z" fill="#76F9FF"/>
<path d="M193.546 59.373L190.047 57.7446L190.832 55.927C191.819 53.6365 193.908 51.9313 196.283 51.4763L198.168 51.1133L198.864 55.0297L196.979 55.3927C195.842 55.61 194.804 56.4587 194.331 57.5554L193.546 59.373Z" fill="#D3F489"/>
<path d="M354.079 67.8882L357.547 66.206L358.366 68.0121C359.4 70.2863 359.288 73.0431 358.076 75.2058L357.115 76.9237L353.797 74.9072L354.758 73.1893C355.338 72.1543 355.393 70.7832 354.898 69.6943L354.079 67.8882Z" fill="#D3F489"/>
<path d="M221.353 87.2005L219.507 86.8962C218.018 86.6508 216.635 85.728 215.71 84.3679C214.785 83.0054 214.413 81.3437 214.689 79.8022L215.031 77.8926L218.705 78.6033L218.363 80.5129C218.27 81.0293 218.417 81.6173 218.764 82.1285C219.111 82.6398 219.596 82.9798 220.096 83.0616L221.941 83.3658L221.353 87.2005Z" fill="#76F9FF"/>
<path d="M249.95 32.0083L250.712 30.2691C251.327 28.8663 252.548 27.7568 254.059 27.2215C255.573 26.6869 257.223 26.7828 258.594 27.4848L260.292 28.3551L258.677 31.7878L256.979 30.9175C256.52 30.6812 255.932 30.6632 255.364 30.8636C254.796 31.064 254.353 31.4483 254.147 31.9192L253.385 33.6583L249.95 32.0083Z" fill="#FF6E91"/>
<path d="M229.635 144.012L229.485 142.322C229.288 140.126 229.281 137.897 229.46 135.696L229.598 134.004L231.712 134.449L231.572 136.141C231.417 138.033 231.424 139.948 231.592 141.837L231.742 143.527L229.635 144.012Z" fill="#FFC206"/>
<path d="M211.947 -5L215.827 -3.49198L215.1 -1.48066C213.854 1.97082 210.379 4.23096 206.841 3.89354L204.778 3.6975L205.158 -0.581503L207.221 -0.38546C208.88 -0.227118 210.637 -1.37133 211.222 -2.98868L211.947 -5Z" fill="#FFC206"/>
<path d="M113.647 154.925L112.167 152.159L113.493 151.401C115.769 150.101 118.747 150.57 120.571 152.515L121.635 153.649L119.465 155.84L118.402 154.706C117.546 153.794 116.04 153.558 114.973 154.166L113.647 154.925Z" fill="#44ADAD"/>
<path d="M71.1925 58.7643L70.6384 57.7321C70.4324 57.3476 69.8081 57.1303 69.3801 57.2944L68.2304 57.7336L67.2819 55.6027L68.4316 55.1635C70.054 54.5439 72.0851 55.2508 72.866 56.7059L73.4201 57.738L71.1925 58.7643Z" fill="#FF7D08"/>
<path d="M273.028 149.308L270.822 146.822L271.976 145.634C272.51 145.084 272.693 144.082 272.391 143.354L271.74 141.783L274.654 140.381L275.305 141.951C276.163 144.019 275.701 146.555 274.182 148.119L273.028 149.308Z" fill="#76F9FF"/>
<path d="M16.6129 19.078L8.79224 16.4922L7.76235 19.7313L15.583 22.3172L16.6129 19.078Z" fill="#76F9FF"/>
<path d="M150.676 98.1461L142.856 95.5603L141.826 98.7994L149.647 101.385L150.676 98.1461Z" fill="#76F9FF"/>
<path d="M247.228 95.7458L244.063 92.207L245.651 90.4435C246.612 89.3724 247.106 87.7155 246.899 86.2124L246.564 83.7447L250.998 82.9932L251.333 85.4608C251.752 88.5262 250.786 91.7927 248.816 93.9823L247.228 95.7458Z" fill="#FF7D08"/>
<path d="M94.6486 112.621L94.3779 109.835C94.1023 106.995 95.4016 104.137 97.6879 102.554L99.9323 101L102.922 105.663L100.678 107.217C100.063 107.644 99.669 108.508 99.7428 109.273L100.014 112.059L94.6486 112.621Z" fill="#FF6E91"/>
<path d="M284.977 -3.48888L287.145 -1.81663C289.354 -0.11194 290.518 2.81189 290.109 5.63149L289.708 8.40007L284.376 7.54611L284.776 4.77753C284.886 4.01803 284.534 3.13338 283.94 2.67433L281.772 1.00208L284.977 -3.48888Z" fill="#D3F489"/>
<path d="M89.3948 154.743L86.924 152.769L87.9477 150.581L90.4185 152.555L89.3948 154.743Z" fill="#FF7D08"/>
<path d="M84.1105 12.1683L81.4502 8.93955L81.6151 8.79128L81.5289 8.67624L83.6035 7.0248L85.5452 5.29668L85.6363 5.4066L85.811 5.26855L88.3015 8.64557L84.1105 12.1683Z" fill="#FFC206"/>
<path d="M146.003 45.4074L145.818 45.2105L145.685 45.3281L143.995 43.2881L142.22 41.4143L142.341 41.289L142.169 41.0819L145.215 38.3594L148.865 42.4829L146.003 45.4074Z" fill="#FF6E91"/>
<path d="M62.5427 158.381C62.5361 161.59 55.6443 164.634 47.1506 165.184C38.6569 165.734 31.7758 163.58 31.782 160.373L31.6563 157.119L62.4161 155.128L62.5427 158.381Z" fill="#ECA567"/>
<path d="M62.4161 154.983C62.1949 151.792 55.1319 149.72 46.6405 150.355C38.149 150.99 31.4446 154.092 31.6658 157.283C31.887 160.474 38.95 162.546 47.4414 161.911C55.9329 161.276 62.6373 158.174 62.4161 154.983Z" fill="#FFDA70"/>
<path d="M61.7565 155.134C61.5678 152.299 54.8775 150.471 46.8133 151.05C38.7492 151.629 32.3649 154.397 32.5536 157.232C32.7423 160.067 39.4325 161.895 47.4967 161.316C55.5609 160.737 61.9452 157.969 61.7565 155.134Z" stroke="white" stroke-width="0.10914" stroke-miterlimit="10"/>
<path d="M49.289 153.594C49.5561 153.809 49.75 154.106 49.8422 154.444L50.8324 154.368C50.8634 154.365 50.8946 154.372 50.9222 154.386C50.9327 154.391 50.9418 154.399 50.9484 154.409C50.955 154.419 50.9589 154.431 50.9598 154.443L50.9687 154.885C50.9693 154.896 50.9664 154.908 50.9603 154.917C50.9537 154.929 50.9448 154.939 50.934 154.947C50.921 154.955 50.9071 154.961 50.8927 154.966C50.8771 154.972 50.8608 154.975 50.8444 154.975L49.9101 155.045C49.8818 155.425 49.7399 155.785 49.5045 156.077C49.2324 156.412 48.8887 156.677 48.5007 156.85L50.9078 158.831C50.9143 158.836 50.9198 158.842 50.9241 158.849C50.9283 158.856 50.9312 158.863 50.9324 158.872C50.9335 158.88 50.933 158.888 50.931 158.896C50.929 158.904 50.9254 158.911 50.9206 158.918C50.9082 158.933 50.8925 158.946 50.8747 158.954C50.8543 158.964 50.8323 158.97 50.8098 158.971L48.6562 159.136C48.6373 159.137 48.6182 159.136 48.5997 159.131C48.583 159.128 48.5674 159.12 48.5541 159.108L46.4789 157.393C46.3874 157.406 46.2403 157.42 46.0395 157.436L43.6127 157.624C43.5967 157.625 43.5805 157.624 43.5649 157.62C43.5502 157.618 43.5361 157.613 43.5229 157.606C43.512 157.599 43.5026 157.591 43.4952 157.58C43.4881 157.572 43.4836 157.562 43.4823 157.551L43.4605 156.538C43.4614 156.525 43.465 156.513 43.4712 156.502C43.4774 156.491 43.486 156.482 43.4962 156.475C43.5225 156.457 43.5532 156.446 43.5849 156.445L45.8816 156.269C46.4411 156.227 46.8891 156.117 47.2256 155.938C47.5699 155.759 47.7815 155.517 47.8585 155.212L43.5698 155.54C43.5537 155.541 43.5375 155.54 43.5215 155.538C43.5072 155.534 43.4934 155.529 43.4804 155.522C43.4697 155.516 43.4603 155.507 43.4528 155.497C43.4457 155.489 43.4411 155.479 43.4399 155.468L43.4295 155.025C43.4303 155.012 43.434 155 43.4403 154.99C43.4466 154.979 43.4553 154.97 43.4657 154.964C43.4915 154.944 43.5222 154.933 43.5539 154.932L47.8446 154.604C47.7556 154.313 47.5397 154.106 47.1977 153.986C46.8558 153.866 46.3989 153.817 45.8303 153.86L43.5336 154.037C43.5029 154.04 43.4718 154.034 43.4442 154.019C43.4334 154.015 43.424 154.007 43.4171 153.997C43.4102 153.987 43.4061 153.975 43.4052 153.963L43.3826 152.959C43.3827 152.947 43.386 152.936 43.392 152.926C43.3988 152.914 43.4079 152.905 43.4187 152.897C43.4313 152.888 43.4453 152.882 43.4601 152.878C43.4756 152.872 43.4916 152.869 43.5079 152.868L50.7877 152.307C50.804 152.306 50.8204 152.307 50.8365 152.31C50.8506 152.312 50.8643 152.317 50.8771 152.324C50.8877 152.331 50.897 152.339 50.9047 152.349C50.9121 152.358 50.9167 152.369 50.9181 152.38L50.9407 153.384C50.9399 153.397 50.9362 153.409 50.9299 153.419C50.9236 153.43 50.9149 153.439 50.9045 153.445C50.8787 153.465 50.848 153.476 50.8163 153.477L49.289 153.594Z" fill="#FFF4CC"/>
<path d="M282.898 75.0793C285.853 76.0123 286.67 83.7453 284.724 92.3516C282.779 100.958 278.807 107.179 275.853 106.247L272.818 105.433L279.863 74.2662L282.898 75.0793Z" fill="white"/>
<path d="M279.728 74.224C276.723 73.5227 272.774 79.9489 270.908 88.5775C269.042 97.206 269.965 104.769 272.971 105.471C275.976 106.172 279.925 99.7457 281.791 91.1171C283.657 82.4886 282.733 74.9253 279.728 74.224Z" fill="#FFDA70"/>
<path d="M279.678 74.9242C277.011 74.2935 273.394 80.4194 271.6 88.6069C269.806 96.7943 270.513 103.943 273.181 104.574C275.848 105.204 279.465 99.0783 281.259 90.8909C283.053 82.7035 282.345 75.5549 279.678 74.9242Z" stroke="white" stroke-width="0.10914" stroke-miterlimit="10"/>
<path d="M274.66 86.8797C274.934 86.6759 275.265 86.5689 275.602 86.5746L275.819 85.5681C275.825 85.5364 275.84 85.5072 275.861 85.484C275.869 85.475 275.879 85.4683 275.89 85.4645C275.901 85.4608 275.913 85.4602 275.924 85.4629L276.334 85.5816C276.345 85.5843 276.354 85.5905 276.361 85.5994C276.37 85.6093 276.377 85.6211 276.381 85.634C276.385 85.6493 276.387 85.665 276.387 85.6808C276.388 85.6978 276.386 85.7149 276.382 85.7314L276.176 86.6808C276.518 86.8185 276.809 87.0637 277.01 87.3821C277.241 87.7495 277.386 88.1678 277.433 88.6036L279.954 86.7816C279.96 86.7764 279.967 86.7727 279.975 86.7704C279.982 86.7682 279.99 86.7676 279.998 86.7687C280.006 86.7699 280.013 86.7728 280.02 86.7771C280.027 86.7815 280.033 86.7871 280.037 86.7938C280.048 86.8107 280.055 86.8299 280.058 86.8499C280.061 86.8731 280.06 86.8967 280.055 86.9195L279.584 89.1087C279.58 89.128 279.573 89.1465 279.564 89.1636C279.556 89.1792 279.544 89.1925 279.53 89.2024L277.349 90.7711C277.335 90.8659 277.306 91.0161 277.262 91.2204L276.735 93.6884C276.732 93.7047 276.726 93.7205 276.718 93.7349C276.711 93.7487 276.703 93.7614 276.692 93.7724C276.683 93.7814 276.673 93.7883 276.661 93.7926C276.651 93.7974 276.641 93.7989 276.63 93.7969L275.69 93.5261C275.679 93.5217 275.669 93.5145 275.66 93.5052C275.652 93.4959 275.646 93.4848 275.643 93.4726C275.633 93.4411 275.633 93.4076 275.64 93.3756L276.141 91.0405C276.264 90.4721 276.292 89.9947 276.224 89.6083C276.158 89.2142 275.997 88.9341 275.738 88.7694L274.802 93.1293C274.798 93.1457 274.793 93.1616 274.786 93.1768C274.779 93.19 274.77 93.2023 274.76 93.2132C274.751 93.2221 274.74 93.2289 274.729 93.2334C274.719 93.2381 274.708 93.2396 274.698 93.2377L274.287 93.1202C274.275 93.1158 274.265 93.1086 274.257 93.0993C274.249 93.0899 274.243 93.0787 274.241 93.0665C274.23 93.0353 274.229 93.0016 274.237 92.9696L275.173 88.6075C274.879 88.612 274.626 88.7671 274.417 89.0726C274.207 89.378 274.031 89.8183 273.906 90.3962L273.406 92.7313C273.4 92.7629 273.386 92.792 273.364 92.8153C273.357 92.8247 273.347 92.8318 273.335 92.8357C273.324 92.8397 273.312 92.8403 273.301 92.8377L272.369 92.5703C272.358 92.5668 272.348 92.5603 272.341 92.5515C272.333 92.5414 272.326 92.5295 272.322 92.5167C272.318 92.5016 272.316 92.4857 272.316 92.4699C272.316 92.453 272.317 92.436 272.321 92.4195L273.906 85.0175C273.909 85.0008 273.915 84.9848 273.923 84.9698C273.929 84.9564 273.937 84.9442 273.948 84.9335C273.957 84.9249 273.967 84.918 273.979 84.9134C273.989 84.9085 274 84.9069 274.011 84.9089L274.943 85.1763C274.954 85.1807 274.964 85.1879 274.972 85.1972C274.98 85.2065 274.986 85.2178 274.989 85.2299C274.999 85.2612 275 85.2948 274.993 85.3268L274.66 86.8797Z" fill="#FFF4CC"/>
<path d="M86.6392 40.2709C84.7508 42.7901 77.5438 40.8197 70.5409 35.8729C63.538 30.9261 59.3908 24.8736 61.2779 22.3553L63.0886 19.7169L88.4489 37.6323L86.6392 40.2709Z" fill="#ECA567"/>
<path d="M88.5338 37.5179C90.2328 34.8681 85.8942 28.7651 78.8432 23.8867C71.7921 19.0082 64.6988 17.2016 62.9997 19.8514C61.3007 22.5013 65.6393 28.6042 72.6904 33.4827C79.7414 38.3611 86.8347 40.1678 88.5338 37.5179Z" fill="#FFDA70"/>
<path d="M87.926 37.2184C89.4414 34.8694 85.2528 29.1942 78.5706 24.5425C71.8884 19.8907 65.2429 18.024 63.7275 20.373C62.2121 22.722 66.4006 28.3972 73.0829 33.0489C79.7651 37.7007 86.4106 39.5674 87.926 37.2184Z" stroke="white" stroke-width="0.10914" stroke-miterlimit="10"/>
<path d="M79.0237 28.11C79.108 28.4477 79.0858 28.8046 78.9604 29.1282L79.7833 29.6961C79.8095 29.7133 79.8303 29.738 79.8433 29.7672C79.8486 29.7778 79.8511 29.7898 79.8505 29.8017C79.8499 29.8137 79.8462 29.8253 79.8398 29.8353L79.5874 30.1886C79.5811 30.198 79.5721 30.2051 79.5617 30.2087C79.5497 30.2138 79.5367 30.2161 79.5237 30.2154C79.5087 30.2134 79.494 30.2098 79.4798 30.2045C79.4644 30.1988 79.4498 30.1909 79.4365 30.1811L78.6606 29.6444C78.4156 29.9249 78.0923 30.1188 77.736 30.1989C77.3252 30.2905 76.8994 30.281 76.4927 30.1714L77.2231 33.2539C77.2255 33.2617 77.2263 33.2699 77.2256 33.278C77.2249 33.2861 77.2226 33.294 77.2189 33.3011C77.215 33.3082 77.2097 33.3144 77.2034 33.3194C77.1972 33.3244 77.19 33.328 77.1824 33.33C77.1635 33.3345 77.1438 33.3343 77.125 33.3296C77.1031 33.3244 77.0824 33.315 77.0639 33.3018L75.2737 32.0671C75.2579 32.0564 75.2438 32.0432 75.2318 32.028C75.2209 32.0145 75.2132 31.9984 75.2094 31.9811L74.5842 29.3175C74.5044 29.2702 74.3806 29.1879 74.2135 29.073L72.1944 27.6839C72.1809 27.6751 72.1688 27.664 72.1588 27.651C72.1489 27.6397 72.1406 27.6268 72.1344 27.6128C72.1295 27.601 72.1272 27.5883 72.1275 27.5755C72.1267 27.5645 72.1293 27.5535 72.1347 27.544L72.7122 26.7335C72.7202 26.7241 72.7303 26.7169 72.7415 26.7123C72.7527 26.7077 72.7648 26.7059 72.7768 26.707C72.8084 26.7092 72.8387 26.7203 72.8646 26.7391L74.7743 28.055C75.2387 28.3768 75.6557 28.5738 76.0254 28.6462C76.4015 28.7232 76.7095 28.6674 76.9491 28.4763L73.384 26.0176C73.3705 26.0085 73.3581 25.9977 73.3471 25.9855C73.3378 25.974 73.3299 25.9612 73.3238 25.9475C73.3191 25.9357 73.3167 25.923 73.3169 25.9102C73.3161 25.8992 73.3186 25.8882 73.3241 25.8787L73.5758 25.524C73.5837 25.5147 73.5937 25.5075 73.605 25.5031C73.6162 25.4987 73.6283 25.4971 73.6402 25.4986C73.6718 25.4999 73.7024 25.5106 73.7282 25.5296L77.2954 27.9888C77.3962 27.7036 77.3476 27.4044 77.1492 27.0934C76.9507 26.7823 76.6201 26.4546 76.1475 26.1286L74.2377 24.8126C74.2116 24.7958 74.1906 24.7714 74.1775 24.7425C74.1718 24.7318 74.169 24.7197 74.1695 24.7074C74.17 24.6952 74.1737 24.6833 74.1802 24.6731L74.7517 23.8692C74.7586 23.8601 74.7678 23.8532 74.7783 23.8494C74.7904 23.8447 74.8033 23.8428 74.8161 23.8438C74.8313 23.8446 74.8461 23.8483 74.86 23.8547C74.8754 23.8602 74.89 23.8677 74.9036 23.8769L80.9579 28.0467C80.9717 28.0558 80.984 28.067 80.9946 28.0799C81.0043 28.0908 81.0122 28.1032 81.0182 28.1167C81.0227 28.1286 81.025 28.1413 81.0251 28.1541C81.0259 28.1655 81.0233 28.1768 81.0176 28.1867L80.4461 28.9906C80.4382 28.9999 80.4281 29.0071 80.4169 29.0115C80.4057 29.0159 80.3936 29.0175 80.3817 29.016C80.3501 29.0147 80.3195 29.0039 80.2937 28.985L79.0237 28.11Z" fill="#FFF4CC"/>
<g clip-path="url(#clip1_4_772)">
<path d="M22.2588 73.5934C24.2643 80.2058 19.5169 87.4991 11.6545 89.8837C3.79208 92.2683 -4.20681 88.8407 -6.21226 82.2284L-7.07919 79.3699L21.3919 70.735L22.2588 73.5934Z" fill="#F7B838"/>
<path d="M21.3921 70.7355C19.3868 64.1236 11.3877 60.6966 3.5256 63.0811C-4.33648 65.4656 -9.08433 72.7586 -7.07903 79.3704C-5.07374 85.9823 2.92535 89.4093 10.7874 87.0248C18.6495 84.6403 23.3974 77.3474 21.3921 70.7355Z" fill="#FFDA70"/>
<path d="M3.92893 64.2168C5.26896 63.809 6.65714 63.5806 8.05719 63.5377C9.3806 63.4956 10.7035 63.6349 11.9892 63.9515C13.1993 64.248 14.3596 64.7197 15.4334 65.3515C16.4629 65.9571 17.3862 66.7272 18.1666 67.6314C19.7436 69.4627 20.5762 71.819 20.4998 74.2346C20.4566 75.4277 20.2104 76.6048 19.7718 77.7152C19.3193 78.8666 18.6962 79.9433 17.9234 80.9093C17.1122 81.9245 16.1655 82.8234 15.1097 83.5809C13.9904 84.3862 12.769 85.0389 11.4775 85.5219C10.1441 86.0236 8.74985 86.3453 7.33148 86.4782C6.00286 86.605 4.66324 86.5525 3.34861 86.3222C2.10628 86.1022 0.901763 85.7058 -0.22843 85.145C-1.31395 84.6104 -2.30696 83.9057 -3.16983 83.0574C-4.01179 82.2262 -4.69835 81.2512 -5.19712 80.1784C-5.70122 79.0819 -5.99542 77.9006 -6.06449 76.6958C-6.12713 75.5086 -5.98215 74.3195 -5.63606 73.1822C-5.28072 72.0179 -4.74808 70.9154 -4.05689 69.9134C-3.32639 68.8517 -2.45 67.8983 -1.45354 67.0811C-0.401338 66.2149 0.761981 65.4933 2.00548 64.9355C2.63008 64.6565 3.27152 64.4167 3.92605 64.2177C3.94236 64.2128 3.95603 64.2016 3.96407 64.1865C3.9721 64.1715 3.97384 64.1539 3.96889 64.1376C3.96394 64.1213 3.95272 64.1076 3.93769 64.0996C3.92266 64.0915 3.90506 64.0898 3.88875 64.0947C2.5308 64.5057 1.23337 65.095 0.0303932 65.8472C-1.09957 66.5551 -2.12796 67.4134 -3.02647 68.3985C-3.87659 69.3319 -4.58557 70.3847 -5.13088 71.5234C-5.65524 72.6145 -5.99623 73.7845 -6.14013 74.9865C-6.27881 76.1777 -6.20013 77.3842 -5.90792 78.5474C-5.6091 79.7235 -5.09443 80.834 -4.39011 81.8222C-3.68888 82.7941 -2.82905 83.641 -1.84665 84.3275C-0.824555 85.043 0.299526 85.6005 1.48774 85.9811C2.73955 86.3838 4.04092 86.6119 5.35506 86.659C6.75046 86.7096 8.14635 86.5735 9.50569 86.2542C10.9047 85.9289 12.254 85.4184 13.518 84.7362C14.7087 84.0946 15.8074 83.2951 16.7842 82.3596C17.7077 81.4756 18.5001 80.464 19.1372 79.3556C19.7463 78.2976 20.1825 77.1491 20.4294 75.9535C20.6694 74.7777 20.6967 73.5683 20.51 72.3828C20.3161 71.1846 19.9013 70.0328 19.2868 68.9861C18.6756 67.9534 17.8891 67.0352 16.9624 66.2727C16.0091 65.4891 14.9402 64.8577 13.7937 64.4009C12.5955 63.9222 11.3364 63.613 10.0528 63.4822C8.68484 63.3415 7.30422 63.3855 5.94803 63.6129C5.25243 63.7281 4.56509 63.8885 3.89038 64.0932C3.88226 64.0957 3.87472 64.0998 3.86819 64.1053C3.86165 64.1107 3.85625 64.1174 3.8523 64.1249C3.84835 64.1325 3.84593 64.1407 3.84516 64.1492C3.84439 64.1576 3.8453 64.1662 3.84783 64.1743C3.85036 64.1824 3.85446 64.19 3.85991 64.1965C3.86535 64.203 3.87203 64.2084 3.87956 64.2124C3.8871 64.2163 3.89533 64.2187 3.9038 64.2195C3.91227 64.2203 3.92081 64.2194 3.92893 64.2168Z" fill="#FFF4CC"/>
<path d="M3.46307 71.9606C3.87582 71.5292 4.38477 71.2015 4.94833 71.0044L4.80245 69.7623C4.79949 69.7217 4.81057 69.6813 4.83384 69.6479C4.84504 69.6311 4.85949 69.6168 4.87632 69.6058C4.89315 69.5947 4.91203 69.5872 4.93183 69.5835L5.70462 69.4436C5.7237 69.44 5.74336 69.4408 5.76204 69.4461C5.78106 69.4503 5.79879 69.4589 5.81376 69.4713C5.82932 69.4837 5.8422 69.499 5.85159 69.5165C5.8613 69.5347 5.86733 69.5546 5.86937 69.5751L6.00668 70.7474C6.61917 70.6657 7.24238 70.741 7.81783 70.9661C8.36411 71.1817 8.83852 71.5469 9.18662 72.0199L12.6185 68.377C12.638 68.3567 12.6624 68.3418 12.6893 68.3335C12.7158 68.3263 12.7439 68.3273 12.7699 68.3363C12.7954 68.3459 12.8179 68.3623 12.8346 68.3838C12.8515 68.407 12.8623 68.4341 12.8659 68.4625L13.1825 71.1636C13.1853 71.1886 13.1827 71.2139 13.1749 71.2378C13.1671 71.2617 13.1544 71.2836 13.1374 71.3022L10.1521 74.456C10.1774 74.5694 10.2047 74.7527 10.234 75.0062L10.5932 78.0448C10.5951 78.0659 10.5937 78.0872 10.5892 78.1079C10.5839 78.128 10.5751 78.147 10.5633 78.1641C10.5516 78.1812 10.5369 78.196 10.5198 78.2077C10.5032 78.2181 10.4848 78.2255 10.4655 78.2294L8.694 78.5495C8.67439 78.554 8.65401 78.5539 8.63442 78.5493C8.61483 78.5447 8.59656 78.5357 8.58102 78.5229C8.56538 78.5101 8.55242 78.4943 8.54287 78.4765C8.53333 78.4587 8.5274 78.4392 8.52541 78.4191L8.18667 75.5379C8.10505 74.8352 7.90624 74.295 7.59025 73.9173C7.43691 73.7271 7.24222 73.5744 7.02098 73.4708C6.79974 73.3672 6.55779 73.3154 6.31351 73.3193L6.94475 78.7044C6.94746 78.7252 6.94602 78.7463 6.94051 78.7665C6.93594 78.7869 6.92754 78.8061 6.91578 78.8233C6.90416 78.8403 6.8893 78.8548 6.87205 78.866C6.85579 78.8771 6.83742 78.8849 6.81807 78.8886L6.04404 79.0279C6.02454 79.0325 6.00425 79.0326 5.98472 79.0282C5.96519 79.0237 5.94694 79.0149 5.93134 79.0023C5.89955 78.9766 5.87921 78.9394 5.87477 78.8988L5.24191 73.5153C5.00365 73.6002 4.78544 73.7332 4.60088 73.9062C4.41631 74.0791 4.26936 74.2883 4.16918 74.5205C3.95275 74.9946 3.88786 75.5879 3.97451 76.3002L4.31141 79.1788C4.31474 79.2193 4.30399 79.2596 4.28098 79.293C4.26986 79.3098 4.25549 79.3243 4.23871 79.3355C4.22194 79.3467 4.20309 79.3545 4.18328 79.3583L2.42818 79.6808C2.40905 79.6836 2.38957 79.6827 2.37076 79.6782C2.35197 79.6735 2.33437 79.6649 2.31904 79.653C2.30376 79.6405 2.2912 79.6251 2.28217 79.6075C2.27247 79.5893 2.26643 79.5694 2.26439 79.5489L1.19315 70.4195C1.19063 70.3984 1.19197 70.377 1.19709 70.3564C1.20779 70.316 1.23237 70.2807 1.26652 70.2566C1.28316 70.2462 1.30154 70.2388 1.32078 70.2349L3.07492 69.9127C3.09455 69.9087 3.11483 69.9089 3.13435 69.9135C3.15387 69.9181 3.17214 69.9269 3.1879 69.9393C3.2194 69.9652 3.23939 70.0025 3.24351 70.0431L3.46307 71.9606Z" fill="#FFF4CC"/>
</g>
<path d="M55.0017 121.252L49.8457 127.958L52.3571 130.041L57.5131 123.336L55.0017 121.252Z" fill="#FFC206"/>
<path d="M51.8059 118L50.3728 115.706C48.3641 112.491 47.7955 108.359 48.8488 104.648L49.6014 102L54.481 103.634L53.7284 106.282C53.1365 108.369 53.4697 110.789 54.5976 112.595L56.0307 114.889L51.8059 118Z" fill="#D3F489"/>
<path d="M140.904 55.8871L84.953 72.2954L90.173 63.0388L140.904 55.8871Z" fill="#340A1C"/>
<path d="M100.093 78.3243L141.817 55.7382L79.5499 45.6869L100.093 78.3243Z" fill="#97144D"/>
<path d="M86.0804 56.5396L141.817 55.7418L90.1864 63.0608L84.9664 72.3174L86.0804 56.5396Z" fill="#6F0E38"/>
<path d="M257.082 82.041L190.231 110.785L218.419 157.675L262.079 135.371L257.082 82.041Z" fill="#E1D090"/>
<path d="M158.967 88.2068L167.107 100.058L171.427 151.974C172.664 166.826 189.061 175.222 201.829 167.54L218.433 157.554L210.086 99.2984C209.469 95.0046 205.95 91.7223 201.623 91.4064L170.807 89.1731L158.967 88.2068Z" fill="#FF9B91"/>
<path d="M264.418 71.7061C264.079 68.3598 278.006 64.9345 295.986 63.1223C313.965 61.31 328.813 62.5545 329.148 65.8971C329.283 67.2506 327.023 68.7395 323.091 70.157L324.218 70.1081L314.999 87.0765L272.415 85.6139L266.82 73.7891C265.346 73.1875 264.497 72.4844 264.418 71.7061Z" fill="#D3BF7A"/>
<path d="M254.017 82.6984L290.623 75.7727L341.543 84.5708C348.303 86.0597 352.308 93.0494 350.172 99.6329L327.729 168.833L310.426 188.701L313.78 212.129L238.545 207.684L237.981 198.273L229.393 187.031L241.459 99.4036C241.816 91.786 246.798 85.1611 254.017 82.6984Z" fill="#E9DCAD"/>
<path d="M315.612 77.7994L285.743 72.9792L268.534 80.1982L288.112 92.6321L315.612 77.7994Z" fill="#FF9B91"/>
<path d="M308.471 78.2856C314.791 73.7436 319.262 69.2017 329.146 65.9231C326.406 73.6309 324.74 74.5295 322.243 81.8274C310.975 83.8765 297.68 89.1817 287.164 93.7161C287.164 92.0204 293.837 88.7982 308.471 78.2856Z" fill="#E1D090"/>
<path d="M264.041 70.9758L267.801 84.0113L289.421 93.6103C289.421 93.6103 280.882 84.2896 272.23 77.3C266.794 72.9084 264.041 70.9758 264.041 70.9758Z" fill="#E1D090"/>
<path d="M293.699 96.5324C293.101 96.5324 292.617 96.0474 292.617 95.4495C292.617 94.8513 293.101 94.3667 293.699 94.3667C294.297 94.3667 294.782 94.8513 294.782 95.4495C294.782 96.0474 294.297 96.5324 293.699 96.5324Z" fill="#330020"/>
<path d="M282.723 95.8786C282.125 95.8786 281.64 95.3939 281.64 94.7957C281.64 94.1979 282.125 93.7129 282.723 93.7129C283.321 93.7129 283.806 94.1979 283.806 94.7957C283.806 95.3939 283.321 95.8786 282.723 95.8786Z" fill="#330020"/>
<path d="M293.553 95.374C293.259 105.311 293.346 115.26 293.808 125.194" stroke="#F57BA9" stroke-width="0.116306" stroke-miterlimit="10"/>
<path d="M282.724 94.7952C280.543 104.165 278.366 113.534 276.185 122.904" stroke="#F57BA9" stroke-width="0.116306" stroke-miterlimit="10"/>
<path d="M293.702 125.092C294.063 125.096 294.372 125.351 294.436 125.705L294.853 127.915C294.936 128.363 294.609 128.78 294.157 128.807L293.676 128.833C293.236 128.859 292.868 128.502 292.879 128.058L292.943 125.821C292.958 125.415 293.293 125.092 293.702 125.092Z" fill="white"/>
<path d="M274.312 125.37L275.064 123.449C275.2 123.103 275.564 122.907 275.929 122.986L276.136 123.031C276.523 123.118 276.775 123.486 276.719 123.877L276.418 125.885C276.354 126.31 275.944 126.596 275.523 126.513L274.865 126.378C274.406 126.291 274.143 125.806 274.312 125.37Z" fill="white"/>
<path d="M333.505 151.46L321.973 131.341L322.906 165.409L330.482 160.115L333.505 151.46Z" fill="#E1D090"/>
<path d="M229.395 187.03L224.935 182.052L240.456 151.048L293.876 153.341L307.762 175.058L305.611 190.763L229.395 187.03Z" fill="#E1D090"/>
<path d="M331.328 216.712L344.818 211.843C349.063 209.144 352.207 205.019 353.68 200.21L354.158 198.65L361.121 195.123L390.606 177.745C405.311 169.078 407.413 148.643 394.78 137.164L381.507 125.103L326.256 162.593L311.303 171.868C308.949 173.327 306.776 175.061 304.828 177.031L298.44 183.497L331.328 216.712Z" fill="#FF9B91"/>
<path d="M335.775 155.475L388.955 127.848L353.672 90.3767C346.295 82.8043 335.978 82.9697 329.906 88.8164L312.543 106.07L335.775 155.475Z" fill="#E9DCAD"/>
<path d="M355.364 199.747L363.952 194.168L329.481 159.423L321.837 164.999L355.364 199.747Z" fill="#353535"/>
<path d="M262.245 47.4196C259.605 38.3564 266.697 28.3205 278.085 25.0043C289.473 21.6877 300.844 26.3466 303.483 35.4098C306.123 44.473 299.031 54.5088 287.643 57.825C276.255 61.1412 264.884 56.4828 262.245 47.4196Z" fill="#070C30"/>
<path d="M271.674 60.4115C269.271 60.4115 267.324 58.4639 267.324 56.0614C267.324 53.6588 269.271 51.7112 271.674 51.7112C274.076 51.7112 276.024 53.6588 276.024 56.0614C276.024 58.4639 274.076 60.4115 271.674 60.4115Z" fill="#FF9B91"/>
<path d="M271.673 58.2857C270.444 58.2857 269.448 57.2889 269.448 56.0598C269.448 54.8304 270.444 53.834 271.673 53.834C272.903 53.834 273.9 54.8304 273.9 56.0598C273.9 57.2889 272.903 58.2857 271.673 58.2857Z" fill="#EA7E78"/>
<path d="M300.376 50.7348C297.973 50.7348 296.026 48.7872 296.026 46.3846C296.026 43.982 297.973 42.0344 300.376 42.0344C302.779 42.0344 304.726 43.982 304.726 46.3846C304.726 48.7872 302.779 50.7348 300.376 50.7348Z" fill="#FF9B91"/>
<path d="M300.376 48.6116C299.147 48.6116 298.15 47.6152 298.15 46.3858C298.15 45.1566 299.147 44.1599 300.376 44.1599C301.606 44.1599 302.602 45.1566 302.602 46.3858C302.602 47.6152 301.606 48.6116 300.376 48.6116Z" fill="#EA7E78"/>
<path d="M275.629 63.8887L271.347 49.1838C269.125 41.555 273.584 33.5878 281.247 31.4935C288.732 29.4444 296.482 33.7795 298.651 41.2316L302.926 55.9064C304.4 60.9672 301.501 66.2649 296.448 67.7576L287.522 70.3895C282.442 71.8859 277.111 68.972 275.629 63.8887Z" fill="#FF9B91"/>
<path d="M300.052 44.928L307.737 64.0507C309.944 71.6269 304.759 79.7633 296.221 82.1282C287.855 84.4443 279.406 80.3498 277.245 72.9316L274.289 59.287L300.052 44.928Z" fill="#070C30"/>
<path d="M281.584 57.7076L297.872 53.3499C297.872 53.3499 299.121 61.5765 293.767 63.9151C285.42 67.5584 281.584 57.7076 281.584 57.7076Z" fill="white"/>
<path d="M280.54 50.282C281.047 50.9701 282.014 51.1167 282.698 50.6091C283.386 50.1015 283.533 49.1352 283.025 48.4509C282.518 47.7629 281.551 47.6163 280.863 48.1238C280.179 48.6277 280.032 49.594 280.54 50.282Z" fill="black"/>
<path d="M290.83 46.448C291.334 47.1361 292.304 47.2827 292.988 46.7751C293.676 46.2675 293.823 45.3013 293.315 44.617C292.808 43.9289 291.842 43.7823 291.154 44.2898C290.469 44.7937 290.323 45.76 290.83 46.448Z" fill="black"/>
<path d="M288.987 40.4646C289.92 39.7991 291.206 39.6638 292.255 40.1225" stroke="black" stroke-width="0.348916" stroke-miterlimit="10" stroke-linecap="round"/>
<path d="M277.839 44.9413C278.512 44.0803 279.652 43.6141 280.734 43.7569" stroke="black" stroke-width="0.348916" stroke-miterlimit="10" stroke-linecap="round"/>
<path d="M282.22 28.4007C277.079 28.4007 272.911 24.2325 272.911 19.0912C272.911 13.9496 277.079 9.78174 282.22 9.78174C287.362 9.78174 291.53 13.9496 291.53 19.0912C291.53 24.2325 287.362 28.4007 282.22 28.4007Z" fill="#070C30"/>
<path d="M268.598 38.4923C267.59 35.0369 273.031 30.4123 280.75 28.1676C288.469 25.9192 295.541 26.9006 296.545 30.3559C297.549 33.8112 292.112 38.4359 284.393 40.6805C279.953 41.9739 275.727 42.1958 272.745 41.4964C273.102 44.4968 273.05 48.4635 272.666 49.9261C273.674 54.0619 274.347 56.3141 274.753 57.8669C274.896 58.4121 274.591 58.9761 274.053 59.1528C273.493 59.337 272.892 59.0325 272.707 58.4723L268.53 45.2751C268.515 45.2262 268.902 39.5338 268.598 38.4923Z" fill="#070C30"/>
<path d="M216.429 91.1068L220.031 87.5274C220.618 86.6438 220.622 85.4971 220.05 84.6098L188.001 34.1747C187.283 33.0618 185.858 32.6444 184.651 33.1934L161.159 43.8977C160.776 44.0707 160.441 44.3339 160.178 44.661L159.847 45.0746C158.884 46.2815 158.193 49.2857 159.46 50.1692L216.429 91.1068Z" fill="#010511"/>
<path d="M193.528 95.4365L215.636 91.3909C217.501 91.0488 218.426 88.9282 217.403 87.3302L185.565 37.4817C184.854 36.3688 183.433 35.944 182.226 36.4816L160.546 46.1859C159.009 46.8739 158.486 48.7952 159.463 50.1676L190.874 94.3575C191.475 95.1997 192.509 95.6208 193.528 95.4365Z" fill="#1C1C33"/>
<path d="M186.662 46.8404C187.933 46.4381 188.512 44.9684 187.862 43.8066L185.072 38.8432C184.576 37.9596 183.519 37.5577 182.56 37.8848L182.399 37.9408C181.132 38.3732 180.586 39.8659 181.278 41.0126L184.23 45.9193C184.73 46.754 185.737 47.1337 186.662 46.8404Z" fill="#64646B"/>
<path d="M183.843 41.8536C183.892 41.8348 183.937 41.8085 183.982 41.786C184.681 41.3949 184.93 40.5076 184.535 39.8083C184.343 39.4699 184.035 39.2255 183.662 39.1202C183.29 39.0149 182.895 39.0638 182.561 39.2518C182.222 39.4436 181.978 39.7519 181.873 40.1241C181.767 40.4963 181.816 40.8874 182.004 41.2257C182.196 41.5641 182.504 41.8085 182.877 41.9138C183.204 42.0078 183.542 41.9852 183.843 41.8536ZM182.914 39.6842C183.106 39.6015 183.317 39.5864 183.516 39.6428C183.749 39.7067 183.944 39.8609 184.061 40.0715C184.305 40.5076 184.151 41.0641 183.715 41.3085C183.505 41.4288 183.26 41.4551 183.023 41.3912C182.79 41.3273 182.595 41.1731 182.478 40.9625C182.358 40.752 182.331 40.5076 182.395 40.2707C182.459 40.0376 182.613 39.8421 182.824 39.7255C182.858 39.7105 182.884 39.6955 182.914 39.6842Z" fill="#CECECE"/>
<path d="M186.196 45.597C186.233 45.582 186.271 45.5632 186.305 45.5444C186.575 45.394 186.767 45.1458 186.85 44.8488C186.932 44.5518 186.895 44.2397 186.744 43.969C186.594 43.6983 186.346 43.5065 186.049 43.4238C185.752 43.3411 185.44 43.3787 185.169 43.5291C184.898 43.6795 184.707 43.9276 184.624 44.2247C184.541 44.5217 184.579 44.8338 184.729 45.1045C185.022 45.6196 185.662 45.8264 186.196 45.597ZM185.5 43.969C185.628 43.9126 185.771 43.9051 185.906 43.9427C186.064 43.9878 186.196 44.0893 186.274 44.2322C186.353 44.3751 186.376 44.5405 186.331 44.6984C186.286 44.8563 186.184 44.9879 186.041 45.0669C185.748 45.2323 185.372 45.127 185.207 44.8338C185.128 44.6909 185.105 44.5255 185.15 44.3675C185.195 44.2096 185.297 44.078 185.44 43.9991C185.459 43.9878 185.477 43.9803 185.5 43.969Z" fill="#CECECE"/>
<path d="M156.276 73.3998C156.855 68.3766 158.524 64.8874 160.555 60.5447C163.111 55.0741 166.247 49.9344 169.898 45.2345C171.992 42.5387 175.861 42.1364 178.448 44.3622C178.497 44.4036 178.546 44.4449 178.591 44.4863C181.648 47.1671 182.125 51.7805 179.651 55.0027C176.29 59.3792 174.03 65.0453 174.147 69.8768C177.459 63.8986 182.87 55.3674 191.002 50.5848C193.886 48.8891 197.661 49.7614 199.436 52.6001L199.793 53.1716C202.075 56.8262 201.342 61.6614 197.973 64.3497C193.258 68.1134 190.325 72.174 189.656 73.9149C192.581 71.0122 196.525 68.3653 200.541 66.1958C203.556 64.5678 207.294 65.7935 208.817 68.8616L209.497 70.2339C210.9 73.1366 208.369 77.3853 207.038 78.4606C203.793 81.0812 198.514 86.612 196.3 90.1914C196.168 91.1163 194.766 94.2258 195.232 96.3914C196.213 100.971 206.493 98.4368 208.771 101.945C208.771 101.945 196.574 113.315 181.042 106.366C160.976 97.3878 154.911 85.2359 156.276 73.3998Z" fill="#FF9B91"/>
<path d="M169.932 45.3992C169.289 46.2828 169.003 47.3205 169.044 48.3357L174.936 52.6257C175.917 52.355 176.816 51.7684 177.459 50.8811C178.974 48.8019 178.516 45.888 176.436 44.3727C174.361 42.865 171.447 43.32 169.932 45.3992Z" fill="#FCC9C8"/>
<path d="M190.287 51.7026C189.321 52.3907 188.674 53.357 188.37 54.4135L192.942 60.8467C194.04 60.9068 195.164 60.6098 196.13 59.9255C198.401 58.3125 198.931 55.1655 197.318 52.8945C195.705 50.6235 192.555 50.0896 190.287 51.7026Z" fill="#FCC9C8"/>
<path d="M200.882 67.3491C200.021 67.9619 199.442 68.823 199.171 69.7629L203.247 75.4968C204.224 75.5494 205.228 75.2862 206.089 74.6733C208.112 73.2371 208.586 70.4284 207.15 68.4056C205.71 66.3866 202.905 65.9128 200.882 67.3491Z" fill="#FCC9C8"/>
</g>
<defs>
<linearGradient id="paint0_linear_4_772" x1="180.5" y1="0" x2="180.5" y2="185" gradientUnits="userSpaceOnUse">
<stop stop-color="#F9F6EB" stop-opacity="0"/>
<stop offset="0.375" stop-color="#F9F6EB"/>
</linearGradient>
<clipPath id="clip0_4_772">
<rect width="361" height="185" fill="white"/>
</clipPath>
<clipPath id="clip1_4_772">
<rect width="28.0087" height="29.7517" fill="white" transform="translate(-2.58105 94.2012) rotate(-106.872)"/>
</clipPath>
</defs>
</svg>
