<svg width="45" height="60" viewBox="0 0 45 60" fill="none" xmlns="http://www.w3.org/2000/svg">
<g opacity="0.65">
<g opacity="0.65">
<g opacity="0.65">
<path opacity="0.65" d="M24.0751 22.0288C23.6967 22.0288 23.3453 21.8334 23.145 21.5103C22.941 21.181 22.9275 20.7681 23.1081 20.4253L32.1751 3.27066C32.3643 2.91309 32.7366 2.68823 33.1409 2.68823H43.0827C43.5865 2.68823 44.0252 3.03228 44.1443 3.52255C44.2009 3.75479 45.4837 9.28417 41.0319 14.6956C35.2617 21.7093 24.5519 22.019 24.0985 22.0288C24.0911 22.0288 24.0825 22.0288 24.0751 22.0288ZM33.8007 4.87418L25.9809 19.6696C29.1769 19.2555 35.5885 17.8732 39.3448 13.3059C42.1759 9.86415 42.2779 6.41995 42.1427 4.87295H33.8007V4.87418Z" fill="#81C1BD"/>
</g>
<g opacity="0.65">
<path opacity="0.65" d="M20.3188 22.0288C20.3115 22.0288 20.3029 22.0288 20.2955 22.0288C19.8421 22.019 9.13226 21.7093 3.36204 14.6956C-1.08973 9.28417 0.19186 3.75602 0.248382 3.52255C0.367571 3.03351 0.806236 2.68823 1.31002 2.68823H11.2519C11.6574 2.68823 12.0284 2.91186 12.2177 3.27066L21.2846 20.4253C21.4653 20.7681 21.4517 21.1797 21.2478 21.5103C21.0487 21.8334 20.6961 22.0288 20.3188 22.0288ZM2.25125 4.87418C2.11609 6.41749 2.21684 9.86415 5.04912 13.3071C8.80542 17.8732 15.217 19.2567 18.413 19.6696L10.5933 4.87418H2.25125Z" fill="#A3D6D0"/>
</g>
</g>
<path opacity="0.65" d="M10.0724 0.802246V16.9038C10.0724 22.6888 14.6458 27.4035 20.3743 27.6345V35.1594H19.9086C19.3618 35.1594 18.9194 35.6018 18.9194 36.1485V37.3122H15.6165C15.0697 37.3122 14.6274 37.7545 14.6274 38.3013V50.3468H29.7656V38.3013C29.7656 37.7545 29.3233 37.3122 28.7765 37.3122H25.4736V36.1485C25.4736 35.6018 25.0312 35.1594 24.4844 35.1594H24.0187V27.6345C29.7472 27.4035 34.3206 22.6888 34.3206 16.9038V0.802246H10.0724Z" fill="#A3D6D0"/>
<path opacity="0.65" d="M21.9702 0.802246L22.3511 50.3468H29.7654V38.3013C29.7654 37.7545 29.3231 37.3122 28.7763 37.3122H25.4734V36.1485C25.4734 35.6018 25.031 35.1594 24.4842 35.1594H24.0185V27.6345C29.747 27.4035 34.3204 22.6888 34.3204 16.9038V0.802246H21.9702Z" fill="#81C1BD"/>
<path opacity="0.65" d="M8.23779 55.5748H36.1551V44.4374C36.1551 42.1396 34.2923 40.2769 31.9945 40.2769H12.3983C10.1006 40.2769 8.23779 42.1396 8.23779 44.4374V55.5748V55.5748Z" fill="#49A49E"/>
<path opacity="0.65" d="M5.03076 59.4383H39.3633V59.0242C39.3633 57.272 37.9429 55.8528 36.1919 55.8528H8.20217C6.44997 55.8528 5.03076 57.2732 5.03076 59.0242V59.4383Z" fill="#49A49E"/>
<path opacity="0.65" d="M30.5975 52.4772H13.7956C13.5768 52.4772 13.3999 52.3002 13.3999 52.0815V43.7604C13.3999 43.5417 13.5768 43.3647 13.7956 43.3647H30.5975C30.8162 43.3647 30.9932 43.5417 30.9932 43.7604V52.0815C30.9932 52.3002 30.8162 52.4772 30.5975 52.4772Z" fill="#F1F1F1"/>
<g opacity="0.65">
<path opacity="0.65" d="M23.0638 9.67363L22.1128 10.7218L21.0647 9.7707C19.8543 8.67342 17.9817 8.76435 16.8844 9.9759C15.7872 11.1862 15.8781 13.0588 17.0896 14.1561L22.5232 19.0822L27.4493 13.6486C28.5465 12.4383 28.4556 10.5657 27.2441 9.46843C26.0325 8.37115 24.1611 8.46208 23.0638 9.67363Z" fill="white"/>
</g>
</g>
</svg>
