<svg width="128" height="87" viewBox="0 0 128 87" fill="none" xmlns="http://www.w3.org/2000/svg">
<path d="M43.421 36.7437L38.4912 49.7131L47.729 50.7809L49.3718 43.2622L43.421 36.7437Z" fill="#EE8287"/>
<path d="M78.0227 44.8252L92.4434 86.5549H94.3602" stroke="#27A094" stroke-width="0.368626" stroke-miterlimit="10"/>
<path d="M88.365 31.3839C88.365 31.3839 91.8694 18.976 108.829 18.7757C132.03 18.5017 109.42 38.9027 109.42 38.9027L93.6425 51.8291C88.3294 56.0462 81.6265 58.1449 74.8413 57.7149L49.1862 55.0644C44.3744 54.3567 42.3015 52.4361 46.5628 50.147C50.8241 47.8578 71.885 44.1986 76.9511 40.7814C83.3972 36.4304 86.4789 32.5402 88.365 31.3839Z" fill="#81C1BD" stroke="#B8DDDB" stroke-width="4.91501" stroke-miterlimit="10"/>
<path d="M83.0117 38.3399L77.9345 40.4325L73.1743 28.0553C72.5796 26.3891 71.7465 23.1759 73.3623 21.3844L74.1499 20.4395L76.2056 29.0481L83.0117 38.3399Z" fill="#EE8287"/>
<path d="M83.1305 36.6664L79.4983 37.9406C79.4983 37.9406 65.3185 19.7243 61.6298 15.5588C57.9411 11.3934 52.7042 12.8212 51.038 16.9866C49.7318 20.2514 38.4224 38.8855 38.4224 38.8855L50.5035 47.7423L57.5835 28.0553L72.46 48.4071L84.766 39.3549L83.1305 36.6664Z" fill="#51052D"/>
<path d="M32.592 86.5549H34.2717L49.7405 58.221L73.8978 60.9022C81.5849 61.6591 89.2769 59.5076 95.4563 54.8715L108.02 44.6777L125.159 86.5536H127.449" stroke="#12877F" stroke-width="0.368626" stroke-miterlimit="10"/>
<path d="M46.1255 43.852L55.2576 21.4089C55.6643 20.4099 57 20.2256 57.6622 21.0771L74.7554 43.0706" stroke="#CE4E82" stroke-width="0.122875" stroke-miterlimit="10"/>
<path d="M42.486 55.0814L33.107 49.6663C32.4803 49.305 32.2665 48.5039 32.6277 47.8784C32.989 47.2518 33.7901 47.038 34.4156 47.3992L43.7946 52.8143C44.4213 53.1756 44.6351 53.9768 44.2739 54.6022C43.9126 55.2289 43.1127 55.4426 42.486 55.0814Z" fill="#EE8287"/>
<path d="M13.0375 85.8816H1.99347C1.28571 85.8816 1.23901 85.2783 1.23901 84.5349C1.23901 83.7915 6.65904 81.9029 7.20338 81.7739L13.8558 81.001C14.5636 81.001 14.3191 83.7927 14.3191 84.5361C14.3179 85.2795 13.744 85.8816 13.0375 85.8816Z" fill="#EE8287"/>
<path d="M28.3471 77.9852C29.2461 77.3209 27.9674 74.0657 25.4911 70.7144C23.0148 67.3631 20.2786 65.1848 19.3797 65.849C18.4807 66.5133 19.7594 69.7685 22.2357 73.1198C24.712 76.4711 27.4481 78.6494 28.3471 77.9852Z" fill="#51052D"/>
<path d="M28.5939 58.1731L6.17041 81.9679L13.6695 83.7864L34.6136 63.4985L28.5939 58.1731Z" fill="#EE8287"/>
<path d="M88.1524 23.3403L85.0412 38.8754L82.1008 37.1011L84.6837 25.2314C84.9196 24.2828 85.722 23.5799 86.6939 23.4718L88.1524 23.3403Z" fill="#EE8287"/>
<path d="M76.9292 30.7018L78.1334 30.9746L75.5936 17.6021L73.9544 18.7632C73.7602 18.9242 73.6755 19.1822 73.7381 19.4267L76.5028 30.2447C76.5581 30.4597 76.7179 30.6317 76.9292 30.7018Z" fill="black"/>
<path d="M78.1333 30.9746L78.5646 30.7977C78.8337 30.7461 79.0094 30.4856 78.9578 30.2165L76.6011 17.9769C76.5495 17.7078 76.289 17.5321 76.0199 17.5837L75.5935 17.6009L78.1333 30.9746Z" fill="#282328"/>
<path d="M73.9422 24.7301C73.8721 24.7436 73.7996 24.751 73.7247 24.7498C73.1189 24.7449 72.6323 24.2497 72.6372 23.6439C72.6458 22.5663 73.0857 21.5071 73.8427 20.7404C74.5996 19.9724 75.6526 19.5202 76.7302 19.4969C77.336 19.4833 77.8373 19.9638 77.8496 20.5696C77.8631 21.1753 77.3827 21.6767 76.7769 21.689C76.2719 21.7 75.7583 21.9212 75.4032 22.2812C75.0481 22.6412 74.8342 23.1573 74.8293 23.6623C74.8256 24.1932 74.4435 24.633 73.9422 24.7301Z" fill="#EE8287"/>
<path d="M74.4459 26.088C74.2297 26.1297 73.9974 26.1064 73.7824 26.0081C73.2319 25.755 72.9899 25.105 73.243 24.5545C73.5858 23.8074 74.2026 23.1746 75.0775 22.6733C75.7951 22.2616 76.5741 21.9913 77.3925 21.8697C77.9909 21.78 78.55 22.1928 78.6384 22.7925C78.7281 23.3909 78.3153 23.9487 77.7156 24.0384C77.1762 24.1195 76.6405 24.3051 76.1674 24.5754C75.8443 24.7609 75.4203 25.0656 75.236 25.4687C75.0837 25.8029 74.7826 26.0228 74.4459 26.088Z" fill="#EE8287"/>
<path d="M74.731 27.4506C74.2321 27.5464 73.7258 27.2651 73.555 26.7711C73.367 26.2292 73.6533 25.637 74.1952 25.449C75.1893 25.1037 76.2141 24.8063 77.2401 24.5667C77.7967 24.4365 78.357 24.783 78.4885 25.3421C78.6187 25.9011 78.2722 26.4602 77.7131 26.5905C76.7584 26.8141 75.8037 27.0906 74.8772 27.4125C74.8293 27.4285 74.7801 27.4408 74.731 27.4506Z" fill="#EE8287"/>
<path d="M99.2039 34.4436L102.93 28.2765L99.8466 21.8525C99.8466 21.8525 97.2293 25.9996 97.2773 28.0196C97.4051 33.4163 99.2039 34.4436 99.2039 34.4436Z" fill="#EE8287"/>
<path d="M97.7726 13.4798C98.0117 9.98213 95.0067 6.92802 91.0608 6.65829C87.1149 6.38856 83.7223 9.00535 83.4832 12.503C83.2441 16.0007 86.2491 19.0548 90.195 19.3246C94.1409 19.5943 97.5335 16.9775 97.7726 13.4798Z" fill="#331949"/>
<path d="M90.126 20.2699L90.862 24.2006L95.6246 23.8332L93.7434 15.71L90.126 20.2699Z" fill="#EE8287"/>
<path d="M89.9919 19.798L90.6125 22.8379L92.2578 21.7394C93.7593 20.7367 94.483 18.9084 94.0739 17.1488L93.5934 15.0833L89.9919 19.798Z" fill="#CC6064"/>
<path d="M90.4429 21.4039C88.1832 21.8881 85.9359 20.4676 85.3473 18.1846L84.7304 15.791C84.105 13.3667 85.5844 10.9178 87.9842 10.4042L88.1882 10.3611C90.5891 9.84753 92.9434 11.4805 93.3624 13.9503L93.7753 16.3869C94.1697 18.7093 92.7001 20.921 90.4429 21.4039Z" fill="#EE8287"/>
<path d="M86.3081 16.8318C86.5165 16.8318 86.6854 16.663 86.6854 16.4546C86.6854 16.2463 86.5165 16.0774 86.3081 16.0774C86.0998 16.0774 85.9309 16.2463 85.9309 16.4546C85.9309 16.663 86.0998 16.8318 86.3081 16.8318Z" fill="#3B2645"/>
<path d="M89.4414 15.9026C89.6498 15.9026 89.8187 15.7338 89.8187 15.5254C89.8187 15.3171 89.6498 15.1482 89.4414 15.1482C89.2331 15.1482 89.0642 15.3171 89.0642 15.5254C89.0642 15.7338 89.2331 15.9026 89.4414 15.9026Z" fill="#3B2645"/>
<path d="M88.9969 19.8288C89.9246 19.6297 90.5058 18.6688 90.2945 17.6821L86.9338 18.4009C87.1452 19.3876 88.0692 20.0278 88.9969 19.8288Z" fill="white" stroke="#B64B62" stroke-width="0.122875" stroke-miterlimit="10"/>
<path d="M95.0828 14.4012C94.9759 13.6566 94.1747 13.1564 93.2925 13.283L93.6795 15.9789C94.5618 15.8511 95.1897 15.1458 95.0828 14.4012Z" fill="#EE8287"/>
<path d="M94.2483 14.5206C94.1979 14.1655 93.8145 13.9271 93.3943 13.9873L93.5786 15.2738C93.9988 15.2136 94.2987 14.8757 94.2483 14.5206Z" fill="#CC6064"/>
<path d="M85.334 15.05C85.5724 14.8472 85.8906 14.7526 86.1892 14.7968" stroke="#3B2645" stroke-width="0.245751" stroke-miterlimit="10" stroke-linecap="round"/>
<path d="M88.6355 13.8839C88.9157 13.7352 89.1319 13.7118 89.4784 13.7671" stroke="#3B2645" stroke-width="0.245751" stroke-miterlimit="10" stroke-linecap="round"/>
<path d="M92.5084 10.5145C93.3391 11.3255 93.4251 14.406 93.3391 14.9098C92.7161 13.4058 92.1558 12.8651 90.9737 11.7457C89.2657 12.1045 86.9938 11.9288 85.448 11.1178C85.2674 10.7025 85.7466 10.1496 86.1201 9.89277C89.0249 7.89727 92.1742 10.1889 92.5084 10.5145Z" fill="#331949"/>
<path d="M94.0212 16.2308C94.2214 16.2308 94.3837 16.0685 94.3837 15.8683C94.3837 15.6681 94.2214 15.5059 94.0212 15.5059C93.821 15.5059 93.6587 15.6681 93.6587 15.8683C93.6587 16.0685 93.821 16.2308 94.0212 16.2308Z" fill="#E7B038"/>
<path d="M94.251 18.3688C94.7498 18.3688 95.1542 17.9644 95.1542 17.4656C95.1542 16.9668 94.7498 16.5625 94.251 16.5625C93.7522 16.5625 93.3479 16.9668 93.3479 17.4656C93.3479 17.9644 93.7522 18.3688 94.251 18.3688Z" fill="#E7B038"/>
<path d="M94.0973 16.5652C94.191 16.5652 94.2669 16.4893 94.2669 16.3956C94.2669 16.302 94.191 16.2261 94.0973 16.2261C94.0037 16.2261 93.9277 16.302 93.9277 16.3956C93.9277 16.4893 94.0037 16.5652 94.0973 16.5652Z" fill="#E7B038"/>
<path d="M83.0153 38.2981L80.1891 40.8674L51.177 41.7398C47.7476 41.6342 44.4165 42.8949 41.9159 45.2442L19.3806 65.9008L28.3063 78.0396L50.6389 52.0442C50.6389 52.0442 78.2059 54.2313 78.4541 54.2289C88.9256 54.0998 92.3943 44.9788 92.3943 44.9788L83.0153 38.2981Z" fill="#820943"/>
<path d="M99.8456 29.6892L123.937 25.9968C125.882 25.6835 127.203 23.849 126.882 21.9051C126.566 19.9882 124.772 18.6784 122.85 18.9622L102.543 21.4664C100.254 21.8043 99.0113 24.3884 99.3738 26.6739L99.8456 29.6892Z" fill="#EE8287"/>
<path d="M126.487 20.4564C125.332 18.8357 123.062 18.5002 121.487 19.7179L104.543 32.8152C102.395 34.4752 100.111 36.5113 99.2041 39.0695L98.9473 40.3548L104.215 41.2542L105.371 37.7855L125.63 25.3751C127.236 24.2594 127.621 22.0476 126.487 20.4564Z" fill="#F29199"/>
<path d="M101.005 46.715C100.606 46.7518 100.208 46.5429 100.022 46.1608C99.0772 44.2108 98.6705 41.9032 99.0244 39.8192C99.1165 39.2798 99.6953 38.9111 100.235 39.0021C100.774 39.0942 101.137 39.6054 101.046 40.1448C100.763 41.8073 101.047 43.7328 101.805 45.297C102.043 45.7897 101.838 46.382 101.346 46.6203C101.235 46.6732 101.121 46.7039 101.005 46.715Z" fill="#F29199"/>
<path d="M104.294 46.0663C104.084 46.07 103.871 46.0049 103.691 45.866C101.822 44.4235 100.898 42.8728 100.602 40.6807C100.531 40.1535 100.901 39.6694 101.428 39.5981C101.955 39.5269 102.439 39.8967 102.51 40.4239C102.701 41.8308 103.174 43.0362 104.868 44.3436C105.29 44.668 105.367 45.2725 105.043 45.694C104.855 45.9324 104.577 46.0614 104.294 46.0663Z" fill="#F29199"/>
<path d="M105.564 43.9638C105.458 43.9651 105.35 43.9479 105.246 43.9098C103.988 43.4441 102.938 42.423 102.439 41.177C102.26 40.7273 102.477 40.2174 102.927 40.038C103.377 39.8586 103.887 40.0761 104.066 40.5258C104.383 41.3196 105.052 41.9696 105.853 42.2657C106.306 42.434 106.538 42.9378 106.371 43.3912C106.242 43.7402 105.915 43.9577 105.564 43.9638Z" fill="#F29199"/>
<path d="M99.8074 45.711C99.7976 45.8659 99.8357 46.0244 99.9278 46.1645C100.153 46.506 100.612 46.6007 100.954 46.3758C101.295 46.1509 101.39 45.6914 101.165 45.3498C101.073 45.2097 100.942 45.1126 100.797 45.061L99.8074 45.711Z" fill="#97144D"/>
<path d="M103.529 45.3079C103.54 45.4505 103.594 45.5905 103.696 45.7061C103.946 45.9899 104.377 46.0169 104.66 45.7687C104.944 45.5193 104.971 45.088 104.722 44.8054C104.62 44.6899 104.489 44.6174 104.349 44.5879L103.529 45.3079Z" fill="#97144D"/>
<path d="M105.055 43.5423C105.119 43.6566 105.219 43.7524 105.348 43.8102C105.664 43.9502 106.034 43.8077 106.174 43.4919C106.314 43.1761 106.171 42.8063 105.855 42.6662C105.726 42.6084 105.589 42.5998 105.461 42.6293L105.055 43.5423Z" fill="#97144D"/>
<path d="M77.2009 22.3192C77.3078 22.2037 77.4504 22.1202 77.6175 22.0907C78.0254 22.017 78.4162 22.2885 78.4899 22.6965C78.5636 23.1044 78.2921 23.4952 77.8841 23.5689C77.717 23.5984 77.5548 23.5701 77.4135 23.5001L77.2009 22.3192Z" fill="#97144D"/>
<path d="M77.3813 25.0226C77.4686 24.9193 77.5878 24.8419 77.7303 24.8088C78.0781 24.7289 78.4246 24.9464 78.5044 25.2941C78.5843 25.6419 78.3668 25.9884 78.0191 26.0682C77.8778 26.1002 77.7365 26.083 77.6124 26.0277L77.3813 25.0226Z" fill="#97144D"/>
<path d="M90.637 6.94386C89.8702 6.87136 89.375 6.0739 89.2276 5.31699C88.8725 3.49843 89.9231 1.54717 91.5635 0.683362C93.2038 -0.180451 95.2952 0.00631766 96.8643 0.993006C97.6949 1.51523 98.4039 2.26108 98.7689 3.17036C99.1338 4.07963 99.124 5.15971 98.6362 6.01001C98.2442 6.69319 97.5868 7.17978 96.9233 7.60615C95.4033 8.58178 93.4828 9.35344 91.8289 8.62602" fill="#331949"/>
<path d="M26.1042 75.0057L49.4309 48.4658L77.659 50.6444C82.1907 50.9946 86.6031 49.0913 89.4587 45.5549L89.6578 45.3706" stroke="#F57BA9" stroke-width="0.122875" stroke-miterlimit="10"/>
<path d="M81.5654 38.1125L83.1124 39.6595" stroke="#F57BA9" stroke-width="0.122875" stroke-miterlimit="10" stroke-linecap="round"/>
<path d="M82.2987 38.873L80.6853 39.684C80.442 39.7639 80.1742 39.6926 80.0009 39.5034C79.7564 39.2367 79.7748 38.8239 80.0415 38.5793L80.0845 38.54C80.2503 38.3877 80.4838 38.3311 80.7013 38.3926L82.2987 38.873Z" stroke="#F57BA9" stroke-width="0.122875" stroke-miterlimit="10" stroke-linecap="round" stroke-linejoin="round"/>
<path d="M82.3737 38.9224L82.4769 40.7249C82.4523 40.9805 82.2815 41.198 82.0394 41.2816C81.6979 41.3995 81.3255 41.2189 81.2076 40.8773L81.1892 40.822C81.1154 40.6082 81.1572 40.3723 81.2985 40.1966L82.3737 38.9224Z" stroke="#F57BA9" stroke-width="0.122875" stroke-miterlimit="10" stroke-linecap="round" stroke-linejoin="round"/>
<path d="M79.689 44.019C80.221 43.6848 80.5823 43.1245 80.7863 42.5297C80.9902 41.935 81.0504 41.3022 81.091 40.6743C80.9657 41.011 80.7961 41.3157 80.5847 41.6057C79.9777 42.4388 78.9026 42.8087 78.2329 43.5926" stroke="#F57BA9" stroke-width="0.122875" stroke-miterlimit="10" stroke-linecap="round" stroke-linejoin="round"/>
<path d="M83.1122 39.8979C83.2438 39.8979 83.3505 39.7912 83.3505 39.6595C83.3505 39.5279 83.2438 39.4211 83.1122 39.4211C82.9805 39.4211 82.8738 39.5279 82.8738 39.6595C82.8738 39.7912 82.9805 39.8979 83.1122 39.8979Z" stroke="#F57BA9" stroke-width="0.122875" stroke-miterlimit="10" stroke-linecap="round" stroke-linejoin="round"/>
<path d="M81.5653 38.3508C81.6969 38.3508 81.8037 38.2441 81.8037 38.1124C81.8037 37.9807 81.6969 37.874 81.5653 37.874C81.4336 37.874 81.3269 37.9807 81.3269 38.1124C81.3269 38.2441 81.4336 38.3508 81.5653 38.3508Z" stroke="#CE4E82" stroke-width="0.122875" stroke-miterlimit="10"/>
<path d="M102.287 21.4678L99.3317 21.8536L95.0912 22.7531L89.8236 23.1389L88.1525 23.3416C88.1525 23.3416 84.7488 27.0574 83.3358 30.2693C82.1906 32.8731 84.621 34.7666 84.621 34.7666L81.6106 37.1921L91.3829 47.2175L99.8453 33.931C99.8453 33.931 97.0831 31.4256 98.3032 28.1497C98.9385 26.4442 102.287 21.4678 102.287 21.4678Z" fill="#FDE5EE"/>
<path d="M89.8252 23.1378C89.8252 23.1378 84.7566 29.719 89.1224 29.8173C94.4945 29.939 99.3333 21.8525 99.3333 21.8525L89.8252 23.1378Z" fill="#EE8287"/>
<path d="M90.0743 48.7633L91.265 47.0971L82.4573 38.0522L90.0743 48.7633Z" fill="#CBCBCB"/>
<path d="M91.2649 36.1478L81.8625 37.4613L81.6106 37.191L84.6002 34.72L91.2649 36.1478Z" fill="#FDE5EE"/>
<path d="M76.2056 19.8211C76.3112 19.7081 76.4538 19.6258 76.6172 19.5975C77.0202 19.5275 77.4048 19.7966 77.4749 20.1996C77.5449 20.6026 77.2758 20.9872 76.8728 21.0573C76.7081 21.0855 76.5472 21.0573 76.4095 20.9872L76.2056 19.8211Z" fill="#97144D"/>
<path d="M0.991247 85.9648H13.946C14.1868 85.9648 14.3822 86.1602 14.3822 86.401V86.4121C14.3822 86.6529 14.1868 86.8483 13.946 86.8483H1.03425C0.781131 86.8483 0.575928 86.6431 0.575928 86.39V86.3789C0.575928 86.1504 0.76147 85.9648 0.991247 85.9648Z" fill="#51052D"/>
<path d="M8.19642 86.0817H0.686279V85.8642C0.686279 84.4659 1.58941 83.2261 2.92138 82.7985L5.76717 81.8843L8.19642 86.0817Z" fill="#51052D"/>
<path d="M5.79778 82.742C6.75939 82.742 7.53893 81.9625 7.53893 81.0009C7.53893 80.0393 6.75939 79.2598 5.79778 79.2598C4.83617 79.2598 4.05664 80.0393 4.05664 81.0009C4.05664 81.9625 4.83617 82.742 5.79778 82.742Z" fill="#F9B0CC"/>
<path d="M23.2102 85.9651H36.165C36.4058 85.9651 36.6012 86.1605 36.6012 86.4013V86.4123C36.6012 86.6532 36.4058 86.8486 36.165 86.8486H23.2545C23.0013 86.8486 22.7961 86.6434 22.7961 86.3902V86.3792C22.7961 86.1506 22.9817 85.9651 23.2102 85.9651Z" fill="#51052D"/>
<path d="M30.4171 86.0819H22.907V85.8645C22.907 84.4661 23.8101 83.2263 25.1421 82.7987L27.9879 81.8845L30.4171 86.0819Z" fill="#51052D"/>
<path d="M28.0173 82.742C28.9789 82.742 29.7584 81.9625 29.7584 81.0009C29.7584 80.0393 28.9789 79.2598 28.0173 79.2598C27.0557 79.2598 26.2761 80.0393 26.2761 81.0009C26.2761 81.9625 27.0557 82.742 28.0173 82.742Z" fill="#F9B0CC"/>
</svg>
