<svg width="18" height="25" viewBox="0 0 18 25" fill="none" xmlns="http://www.w3.org/2000/svg">
<path d="M8.05676 13.1754C7.75326 12.3042 7.23228 11.5325 6.66582 10.8125C5.34368 9.13646 3.91096 7.63493 3.19337 5.65663C3.07418 5.41949 2.98694 5.1381 2.95499 4.87023C2.91445 4.71172 2.87757 4.55075 2.84808 4.38487C2.83948 4.33326 2.75101 4.33203 2.74364 4.38487C2.42539 6.48727 2.55687 8.81576 3.77333 10.6319C4.42949 11.6099 5.38546 12.2931 6.26033 13.0574C6.69653 13.4383 7.05288 13.8229 7.33795 14.2382C7.50874 14.5061 7.65619 14.7912 7.76924 15.107C7.78398 15.15 7.81224 15.1807 7.84419 15.2053C7.97813 15.5591 8.0752 15.9425 8.13418 16.3689C8.13909 16.4008 8.15752 16.4217 8.1821 16.4353C8.17841 16.6171 8.17227 16.8002 8.16612 16.982C8.16244 17.1037 8.34921 17.1037 8.35536 16.982C8.42048 15.7115 8.48191 14.3992 8.05676 13.1754Z" fill="#FEC600"/>
<path d="M10.0723 15.8515C10.044 15.4374 10.0366 15.0245 10.0489 14.6141C10.0698 14.5932 10.0821 14.5638 10.0784 14.5232C10.071 14.4298 10.0673 14.3364 10.0612 14.2443C10.0956 13.6532 10.173 13.0647 10.2897 12.4736C10.3622 12.2598 10.4495 12.0571 10.5478 11.8617C10.5883 11.7978 10.6227 11.729 10.6547 11.659C11.1413 10.7817 11.8392 10.0506 12.3823 9.17199C13.5705 7.25268 13.9023 4.92051 13.4022 2.7321C13.3616 2.55393 13.1269 2.61659 13.1073 2.77142C12.8505 4.88856 11.3194 6.57441 10.5662 8.51952C9.899 10.2435 9.61393 12.1308 9.76261 13.9764C9.75401 14.3352 9.76015 14.694 9.78227 15.0516C9.78104 15.6205 9.81422 16.2054 9.86214 16.8062C9.86583 16.8505 9.89531 16.8763 9.92972 16.8849C9.9334 16.9082 9.93587 16.9316 9.93956 16.9537C9.95676 17.0655 10.0796 17.0618 10.1423 16.9967C10.1927 16.9918 10.2418 16.95 10.2283 16.8849C10.1583 16.5396 10.1067 16.1943 10.0723 15.8515Z" fill="#FEC600"/>
<path d="M8.93677 12.8029C8.96381 11.5926 8.93309 10.3798 8.92695 9.1695C8.92695 9.16827 8.92572 9.16705 8.92572 9.16582C8.94907 8.82668 8.97855 8.48631 9.01542 8.14718C9.15427 6.86682 9.27591 5.6221 8.95398 4.35771C8.65416 3.17811 8.10122 2.07715 7.45981 1.04991C7.36274 0.895086 7.09979 0.992155 7.15631 1.1777C7.69819 2.94219 7.43647 4.75582 7.53845 6.56823C7.62447 8.07837 7.87881 9.60326 8.34697 11.047C8.35557 11.0765 8.36172 11.1085 8.37032 11.1367C8.37524 11.1539 8.38384 11.1675 8.39245 11.1797C8.39982 11.2019 8.40841 11.224 8.41578 11.2473C8.44036 11.3899 8.4723 11.5299 8.51777 11.6614C8.53005 11.6983 8.55586 11.7216 8.58535 11.7351C8.57675 11.7401 8.57061 11.7487 8.57553 11.7597C8.59887 11.8162 8.62222 11.8715 8.64802 11.9268C8.73403 13.6741 9.00312 15.4116 9.44056 17.1097C9.47128 17.2301 9.65682 17.1785 9.6261 17.0581C9.27345 15.6536 9.0449 14.2332 8.93677 12.8029ZM7.77807 2.259C7.77684 2.25285 7.77561 2.24671 7.77438 2.24179C7.77561 2.24425 7.77806 2.24794 7.77928 2.2504C7.77806 2.25162 7.77807 2.25531 7.77807 2.259ZM8.62222 11.7462C8.62837 11.7474 8.6345 11.7474 8.64064 11.7474C8.64064 11.7597 8.64187 11.7708 8.64187 11.7831C8.63573 11.7708 8.62959 11.7585 8.62222 11.7462Z" fill="#FEC600"/>
<path d="M17.4756 9.58254C17.3023 9.54814 17.1241 9.52602 16.9447 9.5125C16.3242 9.33802 15.7602 9.19917 15.0525 9.35154C14.2034 9.53339 13.4538 9.99417 12.8972 10.6602C11.7188 12.072 11.6365 13.9852 11.7582 15.7632C11.6955 16.1564 11.6648 16.5557 11.6697 16.9637C11.6722 17.1861 12.0113 17.1271 11.9732 16.9489C11.9793 16.8396 11.9892 16.7302 11.9978 16.6208C12.0052 16.6073 12.0101 16.5926 12.0101 16.5729C12.0101 16.5373 12.0088 16.5004 12.0088 16.4636C12.0555 15.918 12.1317 15.3749 12.2435 14.8391C12.8444 12.4873 14.2108 10.4414 16.6892 9.90447C16.9312 9.86393 17.1794 9.83198 17.4424 9.81723C17.5714 9.81109 17.6156 9.6108 17.4756 9.58254ZM16.2345 9.52233C16.2321 9.5211 16.2296 9.5211 16.2259 9.51987C16.2321 9.51987 16.2394 9.5211 16.2456 9.5211C16.2431 9.5211 16.2382 9.52233 16.2345 9.52233Z" fill="#FEC600"/>
<path d="M7.19936 16.0262C6.93887 14.8282 5.99887 13.8354 4.94214 13.2321C4.83401 13.1706 4.71974 13.1104 4.60424 13.0514C4.43713 12.9556 4.25527 12.8782 4.0771 12.8069C2.94542 12.3326 1.61223 12.0991 0.526013 12.6201C0.411739 12.6472 0.301145 12.684 0.196701 12.7393C0.115603 12.7823 0.146322 12.8831 0.211445 12.9126C0.439993 12.8585 0.669766 12.8118 0.898314 12.7946C2.073 12.6595 3.45781 13.6609 4.41623 14.1376C5.59952 14.7262 6.95238 15.359 7.06174 16.8544C7.07403 17.0215 7.31732 17.0252 7.32347 16.8544C7.33821 16.5497 7.29152 16.2757 7.19936 16.0262Z" fill="#FEC600"/>
<path d="M11.1878 24.9175H7.86033C7.05426 24.9175 6.37722 24.308 6.29367 23.5056L5.55396 16.385H13.4364L12.7557 23.4921C12.6783 24.3006 11.9988 24.9175 11.1878 24.9175Z" fill="#97144D"/>
</svg>
