<svg width="14" height="18" viewBox="0 0 14 18" fill="none" xmlns="http://www.w3.org/2000/svg">
<path d="M7.09091 16.1201L9.52629 17.9903V10.0083H4.65552V17.9903L7.09091 16.1201Z" fill="#E5095C"/>
<path d="M7.0912 13.0039C10.4368 13.0039 13.149 10.2918 13.149 6.94618C13.149 3.60057 10.4368 0.888428 7.0912 0.888428C3.7456 0.888428 1.03345 3.60057 1.03345 6.94618C1.03345 10.2918 3.7456 13.0039 7.0912 13.0039Z" fill="white" stroke="#F4A300" stroke-width="0.122875" stroke-miterlimit="10"/>
<path d="M7.09124 10.9974C9.32865 10.9974 11.1424 9.18363 11.1424 6.94622C11.1424 4.7088 9.32865 2.89502 7.09124 2.89502C4.85382 2.89502 3.04004 4.7088 3.04004 6.94622C3.04004 9.18363 4.85382 10.9974 7.09124 10.9974Z" fill="#FEC600"/>
</svg>
