<svg width="65" height="65" viewBox="0 0 65 65" fill="none" xmlns="http://www.w3.org/2000/svg">
<path d="M32.5 0C36.768 5.08949e-08 40.9941 0.840638 44.9372 2.47392C48.8803 4.10719 52.4631 6.50113 55.481 9.51903C58.4989 12.5369 60.8928 16.1197 62.5261 20.0628C64.1594 24.0059 65 28.232 65 32.5L56.0995 32.5C56.0995 29.4009 55.4891 26.3321 54.3031 23.4689C53.1171 20.6057 51.3788 18.0041 49.1873 15.8127C46.9959 13.6212 44.3943 11.8829 41.5311 10.6969C38.6679 9.51094 35.5991 8.90053 32.5 8.90053L32.5 0Z" fill="#12877F"/>
<path d="M65 32.5C65 38.9279 63.0939 45.2114 59.5228 50.556C55.9516 55.9006 50.8758 60.0662 44.9372 62.5261C38.9986 64.9859 32.464 65.6295 26.1596 64.3755C19.8552 63.1215 14.0642 60.0262 9.51903 55.481C4.97383 50.9358 1.8785 45.1448 0.62448 38.8404C-0.629541 32.5361 0.0140651 26.0014 2.47391 20.0628C4.93376 14.1242 9.09936 9.04839 14.444 5.47724C19.7886 1.9061 26.0721 2.98841e-06 32.5 0L32.5 8.70971C27.7947 8.70971 23.1951 10.105 19.2828 12.7191C15.3705 15.3332 12.3213 19.0487 10.5206 23.3959C8.72 27.743 8.24888 32.5264 9.16683 37.1413C10.0848 41.7561 12.3506 45.9952 15.6777 49.3223C19.0049 52.6494 23.2439 54.9152 27.8587 55.8332C32.4736 56.7511 37.257 56.28 41.6042 54.4794C45.9513 52.6787 49.6668 49.6295 52.2809 45.7172C54.895 41.8049 56.2903 37.2053 56.2903 32.5H65Z" fill="#E3F5F8"/>
</svg>
