<svg width="16" height="16" viewBox="0 0 16 16" fill="none" xmlns="http://www.w3.org/2000/svg">
<g clip-path="url(#clip0_18_11136)">
<path d="M2.93732 9.68198L5.20532 7.41398L7.09065 9.29998L9.19532 7.19531L7.99998 5.99998H11.3333V9.33331L10.138 8.13798L7.09065 11.1853L5.20532 9.29998L3.55532 10.9493C4.30426 12.0766 5.45373 12.8769 6.77081 13.1882C8.08788 13.4995 9.47404 13.2984 10.6484 12.6258C11.8227 11.9531 12.6975 10.8592 13.0953 9.56559C13.4931 8.27201 13.3842 6.87558 12.7908 5.65927C12.1974 4.44295 11.1637 3.49773 9.89935 3.01514C8.63495 2.53255 7.23438 2.54869 5.98144 3.06029C4.72851 3.57189 3.71692 4.54068 3.15167 5.77035C2.58643 7.00002 2.5098 8.39859 2.93732 9.68265V9.68198ZM1.91199 10.7206L1.90532 10.714L1.90799 10.7113C1.52794 9.85799 1.33212 8.93411 1.33332 7.99998C1.33332 4.31798 4.31799 1.33331 7.99998 1.33331C11.682 1.33331 14.6667 4.31798 14.6667 7.99998C14.6667 11.682 11.682 14.6666 7.99998 14.6666C5.28665 14.6666 2.95332 13.0466 1.91199 10.7206V10.7206Z" fill="#282828"/>
</g>
<defs>
<clipPath id="clip0_18_11136">
<rect width="16" height="16" fill="white"/>
</clipPath>
</defs>
</svg>
