<svg width="16" height="16" viewBox="0 0 16 16" fill="none" xmlns="http://www.w3.org/2000/svg">
<g clip-path="url(#clip0_14_7660)">
<path d="M7.99999 1.33325C9.23767 1.33325 10.4247 1.82492 11.2998 2.70009C12.175 3.57526 12.6667 4.76224 12.6667 5.99992H13.3827C13.5506 5.99992 13.7123 6.0633 13.8355 6.17738C13.9588 6.29145 14.0344 6.44783 14.0473 6.61525L14.6113 13.9486C14.6249 14.1249 14.568 14.2993 14.4529 14.4336C14.3379 14.5679 14.1743 14.651 13.998 14.6646L13.9467 14.6666H2.05332C1.87651 14.6666 1.70694 14.5963 1.58192 14.4713C1.4569 14.3463 1.38666 14.1767 1.38666 13.9999L1.38866 13.9486L1.95266 6.61525C1.96559 6.44783 2.04122 6.29145 2.16445 6.17738C2.28767 6.0633 2.4494 5.99992 2.61732 5.99992H3.33332C3.33332 4.76224 3.82499 3.57526 4.70016 2.70009C5.57533 1.82492 6.76231 1.33325 7.99999 1.33325V1.33325ZM12.7647 7.33325H3.23466L2.77266 13.3333H13.2267L12.7647 7.33325ZM9.33332 8.66659V9.99992H6.66666V8.66659H9.33332ZM7.99999 2.66659C7.14102 2.66663 6.31522 2.99828 5.69481 3.59236C5.0744 4.18644 4.70727 4.99709 4.66999 5.85525L4.66666 5.99992H11.3333C11.3333 5.14094 11.0016 4.31514 10.4076 3.69473C9.81347 3.07432 9.00282 2.7072 8.14466 2.66992L7.99999 2.66659Z" fill="#282828"/>
</g>
<defs>
<clipPath id="clip0_14_7660">
<rect width="16" height="16" fill="white"/>
</clipPath>
</defs>
</svg>
