<svg width="16" height="16" viewBox="0 0 16 16" fill="none" xmlns="http://www.w3.org/2000/svg">
<g clip-path="url(#clip0_18_10820)">
<path d="M10.3333 1.33331C10.6772 1.33328 11.0169 1.40926 11.328 1.55582C11.6391 1.70239 11.914 1.91591 12.1329 2.1811C12.3519 2.4463 12.5095 2.75662 12.5945 3.08984C12.6795 3.42307 12.6898 3.77097 12.6247 4.10865L12.6147 4.15265C13.1947 4.34612 13.7017 4.71211 14.068 5.20164C14.4343 5.69118 14.6424 6.28091 14.6643 6.89192C14.6863 7.50294 14.5211 8.10608 14.1909 8.62066C13.8607 9.13524 13.3813 9.53669 12.8167 9.77131L12.0927 14.1093C12.0668 14.265 11.9865 14.4064 11.8662 14.5085C11.7458 14.6105 11.5931 14.6666 11.4353 14.6666H4.56466C4.40686 14.6666 4.2542 14.6105 4.13383 14.5085C4.01347 14.4064 3.93321 14.265 3.90733 14.1093L3.22133 9.99598C2.75995 9.96981 2.32186 9.78467 1.98155 9.47203C1.64123 9.15939 1.41968 8.73855 1.35456 8.28103C1.28943 7.82352 1.38476 7.35757 1.62432 6.96239C1.86389 6.56721 2.23291 6.26719 2.66866 6.11331L2.66666 5.99998C2.66653 5.32495 2.83723 4.66087 3.16287 4.06958C3.48851 3.47829 3.95849 2.97902 4.52904 2.61828C5.0996 2.25754 5.75217 2.04706 6.42597 2.00645C7.09978 1.96583 7.77291 2.09639 8.38266 2.38598C8.59486 2.06237 8.88429 1.79669 9.22485 1.61291C9.5654 1.42913 9.94635 1.33304 10.3333 1.33331V1.33331ZM6 9.99998H4.57333L5.12933 13.3333H6V9.99998ZM8.66666 9.99998H7.33333V13.3333H8.66666V9.99998ZM11.426 9.99998H10V13.3333H10.87L11.426 9.99998ZM6.66666 3.33331C5.23866 3.33331 4.07266 4.45598 4.00333 5.84465L4 5.97598L4.002 6.08931C4.00671 6.3511 3.93424 6.60847 3.79364 6.82934C3.65303 7.05021 3.45051 7.22479 3.21133 7.33131L3.11133 7.37065C2.9633 7.42336 2.83862 7.52661 2.75924 7.66222C2.67987 7.79784 2.6509 7.95711 2.67743 8.11199C2.70396 8.26686 2.78429 8.40741 2.90427 8.50888C3.02426 8.61034 3.1762 8.66621 3.33333 8.66665H11.6667C11.9131 8.66664 12.1564 8.612 12.3792 8.50665C12.602 8.4013 12.7986 8.24787 12.9549 8.0574C13.1113 7.86692 13.2234 7.64416 13.2833 7.40513C13.3432 7.1661 13.3494 6.91677 13.3013 6.67508C13.2533 6.43339 13.1523 6.20536 13.0055 6.00741C12.8588 5.80946 12.67 5.64651 12.4527 5.5303C12.2354 5.41408 11.995 5.3475 11.7489 5.33534C11.5028 5.32318 11.257 5.36575 11.0293 5.45998L10.9127 5.51398C10.605 5.67249 10.2478 5.7052 9.91655 5.60518C9.58526 5.50515 9.30584 5.28024 9.13733 4.97798L9.09066 4.88665C8.87761 4.42293 8.53597 4.03009 8.1063 3.75475C7.67663 3.47942 7.17698 3.33315 6.66666 3.33331ZM10.3333 2.66665C10.1605 2.66661 9.99063 2.71136 9.84026 2.79654C9.68989 2.88171 9.56416 3.0044 9.47533 3.15265C9.81957 3.49157 10.0996 3.88999 10.302 4.32865C10.598 4.17665 10.922 4.07265 11.266 4.02665C11.3244 3.87517 11.3451 3.71174 11.3263 3.55048C11.3074 3.38922 11.2496 3.23498 11.1577 3.10108C11.0659 2.96718 10.9429 2.85765 10.7992 2.78196C10.6556 2.70627 10.4957 2.66669 10.3333 2.66665V2.66665Z" fill="#282828"/>
</g>
<defs>
<clipPath id="clip0_18_10820">
<rect width="16" height="16" fill="white"/>
</clipPath>
</defs>
</svg>
