<svg width="16" height="16" viewBox="0 0 16 16" fill="none" xmlns="http://www.w3.org/2000/svg">
<g clip-path="url(#clip0_10_316)">
<path d="M8.00004 14.6666C4.31804 14.6666 1.33337 11.6819 1.33337 7.99992C1.33337 4.31792 4.31804 1.33325 8.00004 1.33325C11.682 1.33325 14.6667 4.31792 14.6667 7.99992C14.6667 11.6819 11.682 14.6666 8.00004 14.6666ZM8.00004 7.05725L6.58611 5.64282C6.32578 5.38239 5.90342 5.38254 5.64304 5.64292V5.64292C5.38266 5.9033 5.38252 6.32565 5.64295 6.58599L7.05737 7.99992L5.64295 9.41385C5.38252 9.67418 5.38266 10.0965 5.64304 10.3569V10.3569C5.90342 10.6173 6.32578 10.6174 6.58611 10.357L8.00004 8.94259L9.41397 10.357C9.67431 10.6174 10.0967 10.6173 10.357 10.3569V10.3569C10.6174 10.0965 10.6176 9.67418 10.3571 9.41385L8.94271 7.99992L10.3571 6.58599C10.6176 6.32565 10.6174 5.9033 10.357 5.64292V5.64292C10.0967 5.38254 9.67431 5.3824 9.41397 5.64282L8.00004 7.05725Z" fill="#6E6E6E"/>
</g>
<defs>
<clipPath id="clip0_10_316">
<rect width="16" height="16" fill="white"/>
</clipPath>
</defs>
</svg>
