<svg width="12" height="12" viewBox="0 0 12 12" fill="none" xmlns="http://www.w3.org/2000/svg">
<g clip-path="url(#clip0_4_977)">
<path d="M1.5 1.5H10.5C10.6326 1.5 10.7598 1.55268 10.8536 1.64645C10.9473 1.74021 11 1.86739 11 2V10C11 10.1326 10.9473 10.2598 10.8536 10.3536C10.7598 10.4473 10.6326 10.5 10.5 10.5H1.5C1.36739 10.5 1.24021 10.4473 1.14645 10.3536C1.05268 10.2598 1 10.1326 1 10V2C1 1.86739 1.05268 1.74021 1.14645 1.64645C1.24021 1.55268 1.36739 1.5 1.5 1.5V1.5ZM2 2.5V9.5H10V2.5H2ZM4.25 7H7C7.0663 7 7.12989 6.97366 7.17678 6.92678C7.22366 6.87989 7.25 6.8163 7.25 6.75C7.25 6.6837 7.22366 6.62011 7.17678 6.57322C7.12989 6.52634 7.0663 6.5 7 6.5H5C4.66848 6.5 4.35054 6.3683 4.11612 6.13388C3.8817 5.89946 3.75 5.58152 3.75 5.25C3.75 4.91848 3.8817 4.60054 4.11612 4.36612C4.35054 4.1317 4.66848 4 5 4H5.5V3H6.5V4H7.75V5H5C4.9337 5 4.87011 5.02634 4.82322 5.07322C4.77634 5.12011 4.75 5.1837 4.75 5.25C4.75 5.3163 4.77634 5.37989 4.82322 5.42678C4.87011 5.47366 4.9337 5.5 5 5.5H7C7.33152 5.5 7.64946 5.6317 7.88388 5.86612C8.1183 6.10054 8.25 6.41848 8.25 6.75C8.25 7.08152 8.1183 7.39946 7.88388 7.63388C7.64946 7.8683 7.33152 8 7 8H6.5V9H5.5V8H4.25V7Z" fill="#404040"/>
</g>
<defs>
<clipPath id="clip0_4_977">
<rect width="12" height="12" fill="white"/>
</clipPath>
</defs>
</svg>
