<svg width="24" height="24" viewBox="0 0 24 24" fill="none" xmlns="http://www.w3.org/2000/svg">
<g clip-path="url(#clip0_10_405)">
<path d="M12.4884 18.5333C12.1849 18.3635 11.815 18.3635 11.5115 18.5333L6.83864 21.149C6.09405 21.5658 5.2031 20.9185 5.36937 20.0816L6.41287 14.829C6.48064 14.4878 6.3663 14.136 6.11095 13.8999L2.17874 10.2638C1.55221 9.68449 1.89249 8.63708 2.73989 8.53658L8.05813 7.90584C8.40346 7.86488 8.70272 7.64746 8.84839 7.33168L11.0919 2.46832C11.4493 1.6935 12.5505 1.6935 12.908 2.46832L15.1515 7.33168C15.2972 7.64746 15.5964 7.86488 15.9418 7.90584L21.26 8.53658C22.1074 8.63708 22.4477 9.68449 21.8211 10.2638L17.8889 13.8999C17.6336 14.136 17.5192 14.4878 17.587 14.829L18.6305 20.0816C18.7968 20.9185 17.9058 21.5658 17.1612 21.149L12.4884 18.5333Z" fill="#B4B4B4"/>
</g>
<defs>
<clipPath id="clip0_10_405">
<rect width="24" height="24" fill="white"/>
</clipPath>
</defs>
</svg>
