<svg width="16" height="16" viewBox="0 0 16 16" fill="none" xmlns="http://www.w3.org/2000/svg">
<g clip-path="url(#clip0_18_11089)">
<path d="M14 2C14.1768 2 14.3464 2.07024 14.4714 2.19526C14.5964 2.32029 14.6666 2.48986 14.6666 2.66667V6.33333C14.2246 6.33333 13.8007 6.50893 13.4881 6.82149C13.1756 7.13405 13 7.55797 13 8C13 8.44203 13.1756 8.86595 13.4881 9.17851C13.8007 9.49107 14.2246 9.66667 14.6666 9.66667V13.3333C14.6666 13.5101 14.5964 13.6797 14.4714 13.8047C14.3464 13.9298 14.1768 14 14 14H1.99998C1.82317 14 1.6536 13.9298 1.52858 13.8047C1.40355 13.6797 1.33331 13.5101 1.33331 13.3333V9.66667C1.77534 9.66667 2.19926 9.49107 2.51182 9.17851C2.82438 8.86595 2.99998 8.44203 2.99998 8C2.99998 7.55797 2.82438 7.13405 2.51182 6.82149C2.19926 6.50893 1.77534 6.33333 1.33331 6.33333V2.66667C1.33331 2.48986 1.40355 2.32029 1.52858 2.19526C1.6536 2.07024 1.82317 2 1.99998 2H14ZM13.3333 3.33333H2.66665V5.312L2.77065 5.366C3.22286 5.6127 3.60393 5.97168 3.87716 6.40838C4.15038 6.84507 4.30656 7.34477 4.33065 7.85933L4.33331 8C4.3334 8.53883 4.18833 9.06773 3.91335 9.53111C3.63837 9.99449 3.24364 10.3752 2.77065 10.6333L2.66665 10.688V12.6667H13.3333V10.6873L13.2293 10.634C12.7771 10.3873 12.396 10.0283 12.1228 9.59162C11.8496 9.15493 11.6934 8.65523 11.6693 8.14067L11.6666 8C11.6666 6.864 12.298 5.87533 13.2293 5.36667L13.3333 5.31133V3.33333ZM10.6666 6V10H5.33331V6H10.6666Z" fill="#282828"/>
</g>
<defs>
<clipPath id="clip0_18_11089">
<rect width="16" height="16" fill="white"/>
</clipPath>
</defs>
</svg>
