<svg width="24" height="24" viewBox="0 0 24 24" fill="none" xmlns="http://www.w3.org/2000/svg">
<g clip-path="url(#clip0_14_9294)">
<path d="M12 3C17.392 3 22.878 6.88 23.819 12C22.879 17.12 17.392 21 12 21C6.608 21 1.122 17.12 0.181 12C1.121 6.88 6.608 3 12 3ZM12 19C14.0395 18.9996 16.0184 18.3068 17.6129 17.0352C19.2073 15.7635 21.3229 13.9883 21.777 12C21.3212 10.0133 19.2049 8.24 17.6106 6.97003C16.0163 5.70005 14.0383 5.00853 12 5.00853C9.9617 5.00853 7.98369 5.70005 6.38938 6.97003C4.79506 8.24 2.67877 10.0133 2.223 12C2.6771 13.9883 4.79267 15.7635 6.38714 17.0352C7.98161 18.3068 9.96053 18.9996 12 19ZM12 16.5C10.8065 16.5 9.66193 16.0259 8.81802 15.182C7.97411 14.3381 7.5 13.1935 7.5 12C7.5 10.8065 7.97411 9.66193 8.81802 8.81802C9.66193 7.97411 10.8065 7.5 12 7.5C13.1935 7.5 14.3381 7.97411 15.182 8.81802C16.0259 9.66193 16.5 10.8065 16.5 12C16.5 13.1935 16.0259 14.3381 15.182 15.182C14.3381 16.0259 13.1935 16.5 12 16.5Z" fill="#404040"/>
</g>
<defs>
<clipPath id="clip0_14_9294">
<rect width="24" height="24" fill="white"/>
</clipPath>
</defs>
</svg>
