<svg width="20" height="20" viewBox="0 0 20 20" fill="none" xmlns="http://www.w3.org/2000/svg">
<g clip-path="url(#clip0_14_9289)">
<path d="M10 18.3334C5.3975 18.3334 1.66666 14.6026 1.66666 10.0001C1.66666 5.39758 5.3975 1.66675 10 1.66675C14.6025 1.66675 18.3333 5.39758 18.3333 10.0001C18.3333 14.6026 14.6025 18.3334 10 18.3334ZM10 16.6667C11.7681 16.6667 13.4638 15.9644 14.714 14.7141C15.9643 13.4639 16.6667 11.7682 16.6667 10.0001C16.6667 8.23197 15.9643 6.53628 14.714 5.28604C13.4638 4.03579 11.7681 3.33341 10 3.33341C8.23189 3.33341 6.5362 4.03579 5.28595 5.28604C4.03571 6.53628 3.33333 8.23197 3.33333 10.0001C3.33333 11.7682 4.03571 13.4639 5.28595 14.7141C6.5362 15.9644 8.23189 16.6667 10 16.6667V16.6667ZM9.16666 5.83341H10.8333V7.50008H9.16666V5.83341ZM9.16666 9.16675H10.8333V14.1667H9.16666V9.16675Z" fill="#404040"/>
</g>
<defs>
<clipPath id="clip0_14_9289">
<rect width="20" height="20" fill="white"/>
</clipPath>
</defs>
</svg>
