<svg width="24" height="24" viewBox="0 0 24 24" fill="none" xmlns="http://www.w3.org/2000/svg">
<g clip-path="url(#clip0_13_6147)">
<path d="M17.882 19.2971C16.1232 20.4126 14.0828 21.0034 12 21.0001C6.60803 21.0001 1.12203 17.1201 0.18103 12.0001C0.61106 9.67078 2.78266 7.54296 4.52103 5.93407L1.39203 2.80807L2.80703 1.39307L22.606 21.1931L21.191 22.6071L17.882 19.2971ZM5.93503 7.35007C4.57603 8.58566 2.62935 10.2089 2.22303 12.0001C2.53532 13.3665 4 15.0001 5 16.0001C6.04516 17.0452 7.07766 17.6625 8.35958 18.2294C9.64151 18.7963 11.0381 19.0561 12.4381 18.9882C13.8382 18.9203 15.203 18.5264 16.424 17.8381L14.396 15.8101C13.5327 16.3539 12.5102 16.5882 11.4963 16.4745C10.4823 16.3608 9.53707 15.906 8.8156 15.1845C8.09413 14.463 7.63926 13.5178 7.52559 12.5038C7.41193 11.4899 7.64621 10.4674 8.19003 9.60407L5.93503 7.35007ZM20.807 16.5921L19.376 15.1621C20.0445 14.2094 21.5204 13.1353 21.777 12.0001C21.5053 10.8098 20.5 9.50006 19.5 8.50006C18.5 7.50006 17.6438 6.88379 16.5939 6.26067C15.544 5.63755 14.3783 5.23443 13.1678 5.07583C11.9572 4.91723 10.727 5.00645 9.55203 5.33807L7.97403 3.76007C9.22103 3.27007 10.58 3.00007 12 3.00007C17.392 3.00007 22.878 6.88007 23.819 12.0001C23.5126 13.6658 21.8239 15.2377 20.807 16.5921ZM11.723 7.50807C12.3595 7.46873 12.9971 7.56513 13.5936 7.79088C14.19 8.01663 14.7316 8.36658 15.1826 8.81752C15.6335 9.26846 15.9835 9.81009 16.2092 10.4065C16.435 11.003 16.5314 11.6406 16.492 12.2771L11.723 7.50807Z" fill="#404040"/>
</g>
<defs>
<clipPath id="clip0_13_6147">
<rect width="24" height="24" fill="white"/>
</clipPath>
</defs>
</svg>
