<svg width="360" height="120" viewBox="0 0 360 120" fill="none" xmlns="http://www.w3.org/2000/svg">
<mask id="mask0_20_2878" style="mask-type:alpha" maskUnits="userSpaceOnUse" x="0" y="0" width="360" height="120">
<path d="M0 0H360V120H0V0Z" fill="#F3FBFB"/>
</mask>
<g mask="url(#mask0_20_2878)">
<path d="M29.9441 125.769C29.1781 119.84 33.7633 114.639 40.1888 114.162C46.6142 113.685 52.4401 118.098 53.2053 124.026C53.9705 129.955 49.3879 135.157 42.9661 135.634C36.5443 136.112 30.7111 131.7 29.9441 125.769Z" fill="#FFE2AA"/>
<path d="M33.4822 119.206L33.4824 119.2C35.1161 117.195 37.6318 115.926 40.3847 115.72C45.8612 115.311 50.8483 119.091 51.502 124.149C51.6525 125.291 51.5667 126.451 51.2498 127.558C50.933 128.665 50.3919 129.695 49.6601 130.585L49.6553 130.591C48.0217 132.595 45.506 133.864 42.753 134.07C37.2774 134.481 32.2903 130.7 31.6357 125.642C31.4859 124.5 31.5725 123.339 31.8902 122.232C32.2078 121.125 32.7497 120.095 33.4822 119.206V119.206ZM49.5936 130.528C50.3174 129.648 50.8527 128.629 51.1662 127.534C51.4798 126.438 51.565 125.291 51.4165 124.161C50.7688 119.15 45.822 115.404 40.3967 115.812C37.6685 116.016 35.1753 117.272 33.5572 119.258L33.5569 119.263C32.8321 120.143 32.2959 121.163 31.9818 122.259C31.6677 123.354 31.5824 124.503 31.7311 125.633V125.633C32.3789 130.644 37.3257 134.39 42.751 133.983C45.4792 133.778 47.9724 132.522 49.5895 130.536L49.5936 130.528Z" fill="#FCF5E8"/>
<path d="M44.2073 126.014C43.9369 126.386 43.5824 126.688 43.1728 126.897L43.4118 127.83C43.4193 127.86 43.4158 127.892 43.4019 127.92C43.3952 127.934 43.3857 127.947 43.3741 127.957C43.3624 127.967 43.3489 127.975 43.3341 127.98L42.7582 128.166C42.744 128.171 42.729 128.173 42.7141 128.172C42.6994 128.17 42.6853 128.165 42.6728 128.157C42.6594 128.149 42.648 128.139 42.6397 128.126C42.6302 128.113 42.6232 128.099 42.6189 128.084L42.3937 127.204C41.9348 127.329 41.4515 127.337 40.9888 127.226C40.5491 127.117 40.1491 126.886 39.8349 126.56L37.5919 129.694C37.5794 129.711 37.5623 129.725 37.5425 129.734C37.5231 129.743 37.5016 129.745 37.481 129.74C37.4604 129.736 37.4416 129.726 37.4268 129.711C37.4109 129.695 37.3999 129.676 37.3949 129.654L36.8737 127.626C36.869 127.607 36.8684 127.587 36.8719 127.568C36.8753 127.549 36.8828 127.531 36.8937 127.515L38.846 124.801C38.8154 124.717 38.7756 124.58 38.7265 124.39L38.1392 122.109C38.1355 122.093 38.1344 122.077 38.1362 122.061C38.1378 122.045 38.1422 122.029 38.1494 122.015C38.157 122.001 38.1669 121.988 38.1785 121.978C38.1899 121.967 38.2034 121.96 38.218 121.955L39.536 121.528C39.5509 121.522 39.5668 121.52 39.5825 121.522C39.5983 121.524 39.6134 121.529 39.6268 121.538C39.6534 121.555 39.6727 121.581 39.6807 121.612L40.2363 123.775C40.3716 124.302 40.5794 124.694 40.8596 124.949C40.9963 125.078 41.1607 125.175 41.3403 125.231C41.5199 125.287 41.71 125.302 41.8961 125.274L40.8576 121.23C40.8539 121.214 40.8528 121.198 40.8545 121.182C40.856 121.166 40.8608 121.15 40.8687 121.136C40.8757 121.122 40.8853 121.109 40.8969 121.099C40.9083 121.089 40.9218 121.081 40.9364 121.076L41.5114 120.89C41.5263 120.884 41.5422 120.883 41.558 120.884C41.5737 120.886 41.5889 120.891 41.6022 120.9C41.6155 120.908 41.627 120.918 41.6361 120.931C41.6452 120.943 41.6517 120.958 41.6552 120.973L42.6946 125.015C42.8676 124.926 43.0203 124.802 43.1432 124.651C43.2662 124.5 43.3568 124.325 43.4095 124.137C43.525 123.754 43.5141 123.294 43.3767 122.758L42.8219 120.596C42.8151 120.566 42.8186 120.534 42.8319 120.506C42.8459 120.478 42.8702 120.456 42.8996 120.446L44.2065 120.021C44.2207 120.016 44.2357 120.015 44.2506 120.017C44.2654 120.019 44.2797 120.023 44.2928 120.031C44.3055 120.039 44.3167 120.049 44.3259 120.061C44.3353 120.074 44.342 120.089 44.3457 120.104L46.1087 126.961C46.1125 126.976 46.1136 126.992 46.1118 127.008C46.1105 127.024 46.1056 127.04 46.0977 127.054C46.0909 127.069 46.0813 127.081 46.0694 127.092C46.0583 127.102 46.0447 127.11 46.03 127.114L44.724 127.539C44.7091 127.544 44.6932 127.546 44.6775 127.544C44.6618 127.543 44.6466 127.537 44.6332 127.529C44.6066 127.512 44.5876 127.486 44.5802 127.455L44.2073 126.014Z" fill="#FCF5E8"/>
<path d="M52.9271 19.3373C47.8288 17.1468 45.5418 10.8124 47.8207 5.18882C50.0995 -0.434783 56.0754 -3.22083 61.1765 -1.0281L62.6828 -0.380578L54.4338 19.986L52.9264 19.3389" fill="#FFBEAA"/>
<path d="M52.6449 18.9196C57.1848 22.1669 63.4877 20.6903 66.7161 15.6147C69.9445 10.5392 68.8851 3.79842 64.3456 0.552308C59.8061 -2.69381 53.5035 -1.21992 50.2766 3.85258C47.0496 8.92509 48.1046 15.6713 52.6449 18.9196Z" fill="#FFE2AA"/>
<path d="M59.606 18.9051L59.6107 18.9073C61.9816 18.4485 64.1355 16.9387 65.5203 14.7649C68.2743 10.4402 67.3651 4.66877 63.4927 1.89873C62.6199 1.27102 61.6273 0.829466 60.5767 0.601487C59.526 0.373508 58.4397 0.363983 57.3852 0.573488L57.378 0.57477C55.0078 1.03396 52.8539 2.54372 51.4691 4.71747C48.7147 9.04105 49.6239 14.8125 53.4959 17.5833C54.3694 18.2106 55.3625 18.6517 56.4136 18.8791C57.4647 19.1064 58.5514 19.1153 59.606 18.9051V18.9051ZM57.4028 0.653461C58.4459 0.446267 59.5206 0.455656 60.5599 0.68104C61.5993 0.906424 62.5813 1.34299 63.445 1.96367C67.2814 4.70816 68.1797 10.4311 65.45 14.7146C64.0781 16.869 61.9445 18.3658 59.5963 18.8204L59.5917 18.8182C58.548 19.0262 57.4726 19.0173 56.4324 18.7921C55.3923 18.5668 54.4096 18.13 53.5454 17.5088V17.5088C49.7089 14.7643 48.8106 9.0414 51.5403 4.75791C52.913 2.60382 55.0466 1.10703 57.3944 0.653245L57.4028 0.653461Z" fill="white"/>
<path d="M58.0368 7.09446C58.4619 7.1529 58.8673 7.31101 59.2198 7.55587L59.8816 6.94758C59.9034 6.92795 59.9314 6.91665 59.9607 6.91567C59.9752 6.91499 59.9896 6.91724 60.0032 6.92229C60.0168 6.92734 60.0292 6.93508 60.0397 6.94506L60.4471 7.3367C60.4574 7.34612 60.4655 7.35773 60.4708 7.37068C60.4758 7.38354 60.4779 7.39738 60.4768 7.41116C60.4767 7.42547 60.473 7.43954 60.4661 7.45206C60.4598 7.4654 60.4512 7.47749 60.4406 7.48771L59.816 8.06136C60.1219 8.38349 60.3415 8.77765 60.4545 9.20729C60.5589 9.61714 60.5454 10.0481 60.4156 10.4507L63.9838 10.9128C64.0039 10.9152 64.023 10.9231 64.0389 10.9356C64.0543 10.9478 64.0656 10.9646 64.0711 10.9835C64.0768 11.0022 64.0767 11.0222 64.071 11.041C64.0651 11.0609 64.0537 11.0788 64.038 11.0925L62.5995 12.4164C62.5861 12.4285 62.5703 12.4376 62.5531 12.4432C62.536 12.4487 62.5178 12.4506 62.4999 12.4486L59.405 12.0406C59.3496 12.1027 59.2545 12.1959 59.1195 12.3204L57.5025 13.8101C57.4911 13.8202 57.478 13.8283 57.4639 13.834C57.4501 13.8398 57.4353 13.8429 57.4203 13.8434C57.4056 13.8432 57.391 13.8406 57.3771 13.8357C57.3636 13.8309 57.3513 13.8232 57.341 13.8133L56.4077 12.9176C56.3967 12.9077 56.3881 12.8955 56.3825 12.8818C56.377 12.868 56.3747 12.8532 56.3758 12.8385C56.378 12.8091 56.3912 12.7816 56.4128 12.7616L57.9471 11.3498C58.3214 11.0056 58.5517 10.6619 58.6381 10.3187C58.6842 10.1492 58.691 9.97131 58.658 9.79871C58.625 9.62611 58.5531 9.46332 58.4477 9.32272L55.5796 11.9616C55.5682 11.9717 55.5552 11.9798 55.5411 11.9855C55.5272 11.9914 55.5122 11.9944 55.4971 11.9942C55.4825 11.9946 55.468 11.9922 55.4542 11.9872C55.4407 11.9824 55.4284 11.9748 55.4182 11.9648L55.0111 11.5739C55.0001 11.5641 54.9914 11.5518 54.9859 11.5381C54.9804 11.5244 54.9781 11.5096 54.9792 11.4948C54.9799 11.4804 54.9835 11.4663 54.9898 11.4533C54.9961 11.4402 55.0049 11.4286 55.0158 11.4191L57.8827 8.7798C57.7327 8.67701 57.5633 8.60615 57.3848 8.57162C57.2063 8.53709 57.0226 8.53963 56.8451 8.57908C56.4784 8.65338 56.1048 8.86536 55.7244 9.21501L54.1912 10.6253C54.1691 10.6444 54.1413 10.6556 54.1121 10.6572C54.083 10.658 54.0547 10.6474 54.0332 10.6278L53.1066 9.74028C53.0966 9.73059 53.0888 9.71887 53.0837 9.70593C53.0788 9.69286 53.0764 9.679 53.0765 9.66505C53.0777 9.6509 53.0813 9.63706 53.0873 9.62415C53.0938 9.61079 53.1028 9.59882 53.1139 9.5889L57.9764 5.1124C57.9875 5.10239 58.0003 5.09441 58.0142 5.0888C58.0281 5.08281 58.043 5.07987 58.0581 5.08017C58.073 5.07942 58.0878 5.08165 58.1018 5.08676C58.1153 5.09129 58.1274 5.09913 58.1371 5.10956L59.0633 5.99635C59.0742 6.00634 59.0826 6.01863 59.0882 6.0323C59.0937 6.04598 59.0961 6.0607 59.0952 6.07542C59.0932 6.1047 59.0798 6.13203 59.0579 6.15157L58.0368 7.09446Z" fill="white"/>
<path d="M139.698 77.6261L136.655 80.3886L132.651 85.2986" stroke="#E99685" stroke-width="5.04381" stroke-linecap="round" stroke-linejoin="round"/>
<path d="M77.8579 76.8439H77.3671C68.108 76.8439 60.602 84.3499 60.602 93.609V112.721C60.602 121.98 68.108 129.486 77.3671 129.486H77.8579C87.117 129.486 94.623 121.98 94.623 112.721V93.609C94.623 84.3499 87.117 76.8439 77.8579 76.8439Z" fill="#E99685"/>
<path d="M89.7502 56.2297L67.6519 56.7559V61.4912H89.7502V56.2297Z" fill="#4E332B"/>
<path d="M104.322 83.662C104.322 69.9092 93.1727 58.7604 79.4199 58.7604C65.6671 58.7604 54.5183 69.9092 54.5183 83.662C54.5183 97.4148 65.6671 108.564 79.4199 108.564C93.1727 108.564 104.322 97.4148 104.322 83.662Z" fill="#D57F6D"/>
<path d="M104.313 79.3587C108.61 79.1007 111.885 75.4081 111.627 71.1111C111.369 66.8141 107.676 63.5398 103.379 63.7978C99.0822 64.0557 95.8079 67.7483 96.0659 72.0454C96.3238 76.3424 100.016 79.6167 104.313 79.3587Z" fill="#E99685"/>
<path d="M109.905 95.1153C115.119 94.8023 119.092 90.3218 118.779 85.1079C118.466 79.894 113.985 75.9211 108.771 76.2341C103.558 76.5471 99.5846 81.0276 99.8976 86.2415C100.211 91.4554 104.691 95.4284 109.905 95.1153Z" fill="#E99685"/>
<path d="M102.41 79.2399C100.713 81.0666 99.7364 83.5556 99.8975 86.2401C100.008 88.0843 100.642 89.771 101.643 91.1707C102.227 90.109 102.954 89.1188 103.828 88.204C105.383 86.3133 107.277 84.9296 109.51 84.0529C111.629 82.7716 113.955 82.1032 116.489 82.0466C117.019 82.0161 117.542 82.0102 118.062 82.0223C116.717 78.8077 113.658 76.5265 110.087 76.2479C111.154 74.8234 111.743 73.0276 111.628 71.1111C111.37 66.8134 107.677 63.5398 103.38 63.7978C99.084 64.0557 95.8092 67.749 96.0671 72.0453C96.286 75.6906 98.9776 78.5989 102.412 79.2398L102.41 79.2399Z" fill="#D44583"/>
<path d="M117.299 104.164C121.581 103.724 124.695 99.8954 124.255 95.6132C123.814 91.331 119.986 88.2166 115.704 88.657C111.422 89.0973 108.307 92.9257 108.748 97.2079C109.188 101.49 113.016 104.605 117.299 104.164Z" fill="#E99685"/>
<path d="M117.472 104.024C121.735 103.585 124.835 99.7743 124.397 95.5117C123.958 91.249 120.148 88.1489 115.885 88.5872C111.622 89.0256 108.522 92.8365 108.96 97.0991C109.399 101.362 113.21 104.462 117.472 104.024Z" fill="#E99685"/>
<path d="M117.645 103.884C121.888 103.448 124.974 99.6542 124.537 95.4112C124.101 91.1681 120.307 88.0821 116.064 88.5185C111.821 88.9549 108.735 92.7483 109.172 96.9913C109.608 101.234 113.402 104.32 117.645 103.884Z" fill="#E99685"/>
<path d="M117.818 103.743C122.041 103.309 125.112 99.5339 124.678 95.3111C124.244 91.0883 120.468 88.0171 116.245 88.4514C112.023 88.8856 108.951 92.6609 109.386 96.8837C109.82 101.107 113.595 104.178 117.818 103.743Z" fill="#E99685"/>
<path d="M117.992 103.603C122.195 103.171 125.252 99.4133 124.82 95.2101C124.387 91.0068 120.63 87.9499 116.426 88.3821C112.223 88.8144 109.166 92.5722 109.598 96.7754C110.031 100.979 113.789 104.036 117.992 103.603Z" fill="#E99685"/>
<path d="M118.164 103.464C122.348 103.034 125.39 99.2935 124.96 95.1098C124.53 90.9261 120.79 87.8834 116.606 88.3136C112.422 88.7439 109.379 92.4842 109.81 96.6679C110.24 100.852 113.98 103.894 118.164 103.464Z" fill="#E99685"/>
<path d="M118.337 103.324C122.501 102.895 125.529 99.1732 125.101 95.0098C124.673 90.8463 120.95 87.8183 116.787 88.2465C112.624 88.6746 109.595 92.3969 110.024 96.5603C110.452 100.724 114.174 103.752 118.337 103.324Z" fill="#E99685"/>
<path d="M118.51 103.183C122.654 102.757 125.667 99.052 125.241 94.9081C124.815 90.7643 121.11 87.7505 116.966 88.1766C112.823 88.6028 109.809 92.3075 110.235 96.4514C110.661 100.595 114.366 103.609 118.51 103.183Z" fill="#E99685"/>
<path d="M118.683 103.043C122.807 102.619 125.806 98.9321 125.382 94.8084C124.957 90.6848 121.271 87.6858 117.147 88.1098C113.024 88.5339 110.025 92.2205 110.449 96.3441C110.873 100.468 114.559 103.467 118.683 103.043Z" fill="#E99685"/>
<path d="M118.857 102.903C122.961 102.481 125.946 98.812 125.524 94.7079C125.102 90.6039 121.432 87.619 117.328 88.0411C113.224 88.4632 110.24 92.1323 110.662 96.2363C111.084 100.34 114.753 103.325 118.857 102.903Z" fill="#E99685"/>
<path d="M119.029 102.763C123.114 102.343 126.084 98.691 125.664 94.6065C125.244 90.5221 121.592 87.5514 117.508 87.9715C113.423 88.3915 110.453 92.0432 110.873 96.1277C111.293 100.212 114.945 103.183 119.029 102.763Z" fill="#E99685"/>
<path d="M119.202 102.622C123.266 102.204 126.222 98.5708 125.804 94.5066C125.386 90.4424 121.753 87.4865 117.688 87.9045C113.624 88.3224 110.668 91.956 111.086 96.0202C111.504 100.084 115.138 103.04 119.202 102.622Z" fill="#E99685"/>
<path d="M119.375 102.483C123.42 102.067 126.362 98.4508 125.946 94.4061C125.53 90.3614 121.914 87.4198 117.869 87.8357C113.824 88.2517 110.883 91.8677 111.299 95.9124C111.715 99.9571 115.331 102.899 119.375 102.483Z" fill="#E99685"/>
<path d="M119.548 102.342C123.573 101.928 126.501 98.3296 126.087 94.3045C125.673 90.2794 122.074 87.3519 118.049 87.7659C114.024 88.1798 111.097 91.7784 111.511 95.8035C111.925 99.8286 115.523 102.756 119.548 102.342Z" fill="#E99685"/>
<path d="M119.721 102.202C123.726 101.79 126.639 98.2095 126.227 94.2047C125.815 90.1998 122.234 87.2871 118.23 87.699C114.225 88.1108 111.312 91.6913 111.724 95.6961C112.136 99.701 115.716 102.614 119.721 102.202Z" fill="#E99685"/>
<path d="M119.894 102.063C123.879 101.653 126.778 98.0902 126.368 94.1049C125.958 90.1196 122.395 87.2211 118.41 87.631C114.425 88.0408 111.526 91.6038 111.936 95.5891C112.346 99.5744 115.909 102.473 119.894 102.063Z" fill="#E99685"/>
<path d="M120.067 101.921C124.032 101.513 126.916 97.9684 126.508 94.0033C126.1 90.0383 122.555 87.1546 118.59 87.5623C114.625 87.9701 111.742 91.515 112.149 95.48C112.557 99.445 116.102 102.329 120.067 101.921Z" fill="#E99685"/>
<path d="M120.24 101.782C124.186 101.376 127.055 97.8487 126.65 93.9032C126.244 89.9577 122.717 87.0882 118.771 87.494C114.826 87.8997 111.956 91.4271 112.362 95.3725C112.768 99.318 116.295 102.188 120.24 101.782Z" fill="#E99685"/>
<path d="M120.413 101.642C124.339 101.239 127.194 97.7288 126.79 93.8029C126.387 89.877 122.877 87.0217 118.951 87.4255C115.025 87.8292 112.17 91.3391 112.573 95.265C112.977 99.1909 116.487 102.046 120.413 101.642Z" fill="#E99685"/>
<path d="M120.586 101.501C124.492 101.099 127.333 97.6077 126.931 93.702C126.529 89.7963 123.037 86.9558 119.132 87.3575C115.226 87.7591 112.386 91.2509 112.787 95.1565C113.189 99.0622 116.681 101.903 120.586 101.501Z" fill="#E99685"/>
<path d="M120.76 101.361C124.646 100.962 127.472 97.4873 127.073 93.6012C126.673 89.7151 123.199 86.8888 119.313 87.2885C115.427 87.6881 112.6 91.1624 113 95.0485C113.4 98.9346 116.874 101.761 120.76 101.361Z" fill="#E99685"/>
<path d="M120.932 101.222C124.799 100.825 127.611 97.3679 127.213 93.5013C126.816 89.6348 123.359 86.8227 119.492 87.2203C115.626 87.618 112.814 91.0748 113.211 94.9413C113.609 98.8078 117.066 101.62 120.932 101.222Z" fill="#E99685"/>
<path d="M121.105 101.08C124.951 100.685 127.749 97.2461 127.353 93.3998C126.958 89.5535 123.519 86.7562 119.673 87.1517C115.826 87.5473 113.029 90.9859 113.425 94.8322C113.82 98.6785 117.259 101.476 121.105 101.08Z" fill="#E99685"/>
<path d="M121.278 100.941C125.105 100.548 127.888 97.1266 127.494 93.2999C127.101 89.4732 123.679 86.69 119.853 87.0836C116.026 87.4771 113.243 90.8983 113.636 94.725C114.03 98.5518 117.451 101.335 121.278 100.941Z" fill="#E99685"/>
<path d="M121.451 100.801C125.258 100.41 128.026 97.0064 127.635 93.2C127.243 89.3935 123.84 86.6251 120.034 87.0165C116.227 87.408 113.459 90.8111 113.85 94.6176C114.242 98.424 117.645 101.192 121.451 100.801Z" fill="#E99685"/>
<path d="M121.624 100.66C125.411 100.271 128.166 96.8852 127.776 93.0983C127.387 89.3114 124.001 86.5573 120.214 86.9467C116.427 87.3361 113.673 90.7217 114.062 94.5087C114.452 98.2956 117.838 101.05 121.624 100.66Z" fill="#E99685"/>
<path d="M121.797 100.521C125.564 100.134 128.304 96.7657 127.917 92.9983C127.53 89.231 124.161 86.491 120.394 86.8784C116.627 87.2659 113.887 90.634 114.274 94.4013C114.662 98.1687 118.03 100.909 121.797 100.521Z" fill="#E99685"/>
<path d="M121.971 100.38C125.718 99.9942 128.443 96.6442 128.058 92.8972C127.672 89.1501 124.322 86.4248 120.575 86.8102C116.828 87.1955 114.103 90.5455 114.488 94.2926C114.874 98.0397 118.224 100.765 121.971 100.38Z" fill="#E99685"/>
<path d="M122.144 100.24C125.871 99.8567 128.582 96.5242 128.199 92.7966C127.815 89.0691 124.483 86.3581 120.755 86.7415C117.028 87.1248 114.317 90.4573 114.7 94.1848C115.084 97.9123 118.416 100.623 122.144 100.24Z" fill="#E99685"/>
<path d="M122.316 100.101C126.024 99.7195 128.721 96.4045 128.339 92.6965C127.958 88.9885 124.643 86.2917 120.935 86.6731C117.227 87.0544 114.53 90.3694 114.912 94.0774C115.293 97.7854 118.608 100.482 122.316 100.101Z" fill="#E99685"/>
<path d="M122.489 99.9592C126.177 99.5799 128.859 96.283 128.48 92.5953C128.101 88.9076 124.804 86.2256 121.116 86.6048C117.428 86.9841 114.746 90.281 115.126 93.9687C115.505 97.6564 118.802 100.338 122.489 99.9592Z" fill="#E99685"/>
<path d="M122.662 99.8197C126.33 99.4425 128.998 96.1631 128.621 92.4949C128.243 88.8268 124.964 86.159 121.296 86.5362C117.628 86.9134 114.96 90.1929 115.337 93.861C115.714 97.5291 118.994 100.197 122.662 99.8197Z" fill="#E99685"/>
<path d="M122.835 99.6792C126.483 99.3041 129.136 96.0428 128.761 92.3949C128.386 88.747 125.124 86.0939 121.476 86.469C117.829 86.8442 115.175 90.1055 115.551 93.7534C115.926 97.4013 119.187 100.054 122.835 99.6792Z" fill="#E99685"/>
<path d="M123.009 99.539C126.637 99.1659 129.276 95.9221 128.903 92.2937C128.53 88.6654 125.286 86.0266 121.657 86.3997C118.029 86.7728 115.39 90.0167 115.763 93.645C116.136 97.2733 119.38 99.9122 123.009 99.539Z" fill="#E99685"/>
<path d="M123.181 99.3996C126.79 99.0285 129.414 95.8021 129.043 92.1933C128.672 88.5846 125.446 85.9599 121.837 86.3311C118.228 86.7022 115.604 89.9285 115.975 93.5373C116.346 97.1461 119.572 99.7707 123.181 99.3996Z" fill="#E99685"/>
<path d="M123.355 99.2591C126.943 98.89 129.553 95.6818 129.184 92.0933C128.815 88.5048 125.607 85.8949 122.018 86.2639C118.43 86.633 115.82 89.8412 116.189 93.4297C116.558 97.0182 119.766 99.6281 123.355 99.2591Z" fill="#E99685"/>
<path d="M123.527 99.1186C127.096 98.7516 129.692 95.5609 129.325 91.9919C128.958 88.423 125.767 85.8273 122.198 86.1943C118.629 86.5614 116.034 89.7521 116.401 93.321C116.768 96.89 119.958 99.4857 123.527 99.1186Z" fill="#E99685"/>
<path d="M123.7 98.9794C127.25 98.6144 129.831 95.4411 129.466 91.8918C129.101 88.3424 125.928 85.7609 122.379 86.1259C118.829 86.491 116.248 89.6642 116.613 93.2136C116.978 96.763 120.151 99.3444 123.7 98.9794Z" fill="#E99685"/>
<path d="M123.874 98.8389C127.403 98.476 129.97 95.3208 129.607 91.7917C129.244 88.2626 126.089 85.6959 122.559 86.0588C119.03 86.4217 116.464 89.5769 116.826 93.106C117.189 96.6351 120.345 99.2018 123.874 98.8389Z" fill="#E99685"/>
<path d="M124.046 98.6985C127.556 98.3376 130.108 95.1999 129.747 91.6903C129.386 88.1808 126.248 85.6283 122.739 85.9892C119.229 86.3501 116.677 89.4878 117.038 92.9973C117.399 96.5069 120.536 99.0594 124.046 98.6985Z" fill="#E99685"/>
<path d="M124.22 98.5582C127.709 98.1994 130.247 95.0798 129.888 91.5905C129.529 88.1012 126.409 85.5634 122.92 85.9223C119.431 86.2811 116.893 89.4007 117.252 92.89C117.611 96.3793 120.73 98.917 124.22 98.5582Z" fill="#E99685"/>
<path d="M124.393 98.4188C127.862 98.0619 130.386 94.9599 130.029 91.4901C129.672 88.0204 126.57 85.4968 123.1 85.8537C119.631 86.2105 117.107 89.3125 117.464 92.7823C117.821 96.2521 120.923 98.7756 124.393 98.4188Z" fill="#E99685"/>
<path d="M124.565 98.2783C128.015 97.9235 130.525 94.8389 130.17 91.3887C129.815 87.9385 126.73 85.4292 123.28 85.7841C119.83 86.1389 117.321 89.2235 117.676 92.6736C118.03 96.1238 121.115 98.6331 124.565 98.2783Z" fill="#E99685"/>
<path d="M124.738 98.1376C128.168 97.7848 130.663 94.7184 130.31 91.2884C129.957 87.8585 126.891 85.3639 123.461 85.7167C120.031 86.0694 117.536 89.1359 117.889 92.5658C118.242 95.9957 121.308 98.4903 124.738 98.1376Z" fill="#E99685"/>
<path d="M124.912 97.9984C128.322 97.6476 130.803 94.5987 130.452 91.1883C130.101 87.7779 127.052 85.2976 123.642 85.6483C120.231 85.999 117.751 89.048 118.102 92.4584C118.452 95.8687 121.501 98.3491 124.912 97.9984Z" fill="#E99685"/>
<path d="M125.084 97.8566C128.474 97.508 130.94 94.4771 130.591 91.087C130.242 87.6969 127.212 85.2313 123.821 85.5799C120.431 85.9286 117.966 88.9594 118.314 92.3495C118.663 95.7397 121.694 98.2053 125.084 97.8566Z" fill="#E99685"/>
<path d="M125.258 97.7172C128.628 97.3705 131.08 94.3572 130.733 90.9866C130.386 87.616 127.373 85.1647 124.002 85.5113C120.632 85.8579 118.181 88.8713 118.527 92.2419C118.874 95.6124 121.887 98.0638 125.258 97.7172Z" fill="#E99685"/>
<path d="M125.43 97.5782C128.781 97.2336 131.219 94.2377 130.874 90.8867C130.529 87.5357 127.533 85.0985 124.182 85.4432C120.831 85.7878 118.394 88.7837 118.739 92.1347C119.083 95.4857 122.079 97.9228 125.43 97.5782Z" fill="#E99685"/>
<path d="M125.603 97.4365C128.934 97.0939 131.357 94.1162 131.014 90.7854C130.672 87.4547 127.694 85.0323 124.363 85.3748C121.032 85.7173 118.61 88.6951 118.952 92.0258C119.295 95.3566 122.273 97.779 125.603 97.4365Z" fill="#E99685"/>
<path d="M125.777 97.297C129.088 96.9565 131.496 93.9962 131.156 90.685C130.815 87.3738 127.855 84.9656 124.544 85.3062C121.233 85.6467 118.825 88.607 119.165 91.9182C119.506 95.2293 122.466 97.6375 125.777 97.297Z" fill="#E99685"/>
<path d="M125.949 97.1578C129.241 96.8193 131.635 93.8765 131.296 90.5849C130.958 87.2932 128.015 84.8993 124.723 85.2378C121.432 85.5763 119.038 88.5191 119.376 91.8107C119.715 95.1023 122.658 97.4963 125.949 97.1578Z" fill="#E99685"/>
<path d="M126.123 97.0163C129.394 96.6799 131.773 93.7552 131.437 90.4838C131.101 87.2125 128.176 84.8332 124.904 85.1697C121.633 85.5061 119.254 88.4308 119.59 91.7021C119.927 94.9735 122.851 97.3527 126.123 97.0163Z" fill="#E99685"/>
<path d="M126.296 96.8769C129.548 96.5424 131.913 93.6352 131.579 90.3834C131.244 87.1316 128.337 84.7666 125.085 85.101C121.833 85.4354 119.468 88.3427 119.803 91.5945C120.137 94.8463 123.044 97.2113 126.296 96.8769Z" fill="#E99685"/>
<path d="M126.468 96.7351C129.699 96.4028 132.05 93.5137 131.717 90.2821C131.385 87.0506 128.496 84.7003 125.264 85.0327C122.033 85.365 119.683 88.2541 120.015 91.4856C120.347 94.7172 123.236 97.0675 126.468 96.7351Z" fill="#E99685"/>
<path d="M126.642 96.5959C129.854 96.2656 132.19 93.394 131.859 90.182C131.529 86.97 128.657 84.634 125.445 84.9643C122.233 85.2946 119.897 88.1662 120.228 91.3782C120.558 94.5902 123.43 96.9262 126.642 96.5959Z" fill="#E99685"/>
<path d="M126.814 96.4569C130.006 96.1286 132.328 93.2745 132 90.0821C131.672 86.8897 128.817 84.5678 125.625 84.8961C122.433 85.2245 120.111 88.0786 120.439 91.271C120.767 94.4634 123.622 96.7853 126.814 96.4569Z" fill="#E99685"/>
<path d="M126.987 96.315C130.159 95.9887 132.466 93.1527 132.14 89.9806C131.814 86.8084 128.978 84.5013 125.806 84.8275C122.633 85.1538 120.326 87.9898 120.653 91.1619C120.979 94.3341 123.815 96.6412 126.987 96.315Z" fill="#E99685"/>
<path d="M127.161 96.1758C130.313 95.8515 132.606 93.033 132.282 89.8804C131.958 86.7278 129.139 84.4349 125.987 84.7592C122.834 85.0834 120.541 87.9019 120.865 91.0545C121.19 94.2071 124.008 96.5 127.161 96.1758Z" fill="#E99685"/>
<path d="M127.333 96.0365C130.466 95.7143 132.745 92.9133 132.423 89.7803C132.101 86.6472 129.3 84.3686 126.167 84.6908C123.034 85.013 120.755 87.814 121.077 90.9471C121.399 94.0801 124.2 96.3587 127.333 96.0365Z" fill="#E99685"/>
<path d="M127.506 95.8948C130.619 95.5747 132.883 92.7918 132.563 89.679C132.243 86.5662 129.46 84.3023 126.347 84.6224C123.234 84.9425 120.97 87.7254 121.291 90.8382C121.611 93.951 124.394 96.2149 127.506 95.8948Z" fill="#E99685"/>
<path d="M127.68 95.7554C130.774 95.4372 133.023 92.6718 132.705 89.5786C132.387 86.4854 129.622 84.2357 126.528 84.5538C123.435 84.8719 121.185 87.6373 121.504 90.7306C121.822 93.8238 124.587 96.0735 127.68 95.7554Z" fill="#E99685"/>
<path d="M127.852 95.6148C130.925 95.2988 133.16 92.5515 132.844 89.4785C132.528 86.4056 129.781 84.1706 126.708 84.4866C123.635 84.8026 121.4 87.55 121.716 90.6229C122.032 93.6959 124.779 95.9309 127.852 95.6148Z" fill="#E99685"/>
<path d="M128.026 95.4744C131.079 95.1604 133.3 92.4306 132.986 89.3771C132.672 86.3237 129.942 84.103 126.889 84.417C123.835 84.731 121.615 87.4609 121.929 90.5143C122.243 93.5677 124.973 95.7884 128.026 95.4744Z" fill="#E99685"/>
<path d="M128.198 95.3354C131.232 95.0234 133.438 92.3111 133.126 89.2772C132.814 86.2434 130.102 84.0369 127.068 84.3489C124.034 84.6609 121.828 87.3732 122.14 90.4071C122.452 93.4409 125.164 95.6474 128.198 95.3354Z" fill="#E99685"/>
<path d="M128.371 95.1949C131.385 94.885 133.577 92.1908 133.267 89.1772C132.957 86.1636 130.263 83.9718 127.249 84.2817C124.236 84.5917 122.044 87.2859 122.354 90.2995C122.664 93.3131 125.358 95.5049 128.371 95.1949Z" fill="#E99685"/>
<path d="M128.545 95.0543C131.539 94.7463 133.717 92.0696 133.409 89.0756C133.101 86.0815 130.424 83.904 127.43 84.2119C124.436 84.5198 122.259 87.1966 122.567 90.1906C122.875 93.1846 125.551 95.3622 128.545 95.0543Z" fill="#E99685"/>
<path d="M128.718 94.9153C131.692 94.6094 133.855 91.9501 133.549 88.9756C133.244 86.0012 130.584 83.8379 127.61 84.1438C124.635 84.4497 122.472 87.1089 122.778 90.0834C123.084 93.0579 125.743 95.2212 128.718 94.9153Z" fill="#E99685"/>
<path d="M128.891 94.7745C131.845 94.4707 133.994 91.8296 133.69 88.8753C133.386 85.9211 130.745 83.7726 127.791 84.0764C124.837 84.3802 122.688 87.0213 122.992 89.9755C123.296 92.9298 125.937 95.0783 128.891 94.7745Z" fill="#E99685"/>
<path d="M129.064 94.6339C131.999 94.3321 134.133 91.7084 133.831 88.7737C133.53 85.8391 130.906 83.7047 127.971 84.0065C125.037 84.3083 122.902 86.932 123.204 89.8666C123.506 92.8013 126.129 94.9357 129.064 94.6339Z" fill="#E99685"/>
<path d="M129.236 94.4935C132.15 94.1937 134.27 91.5882 133.97 88.6738C133.671 85.7594 131.065 83.6398 128.151 83.9395C125.236 84.2392 123.117 86.8448 123.416 89.7592C123.716 92.6736 126.322 94.7932 129.236 94.4935Z" fill="#E99685"/>
<path d="M129.41 94.3544C132.305 94.0567 134.41 91.4686 134.112 88.5738C133.815 85.6789 131.227 83.5735 128.332 83.8712C125.437 84.1689 123.331 86.757 123.629 89.6519C123.927 92.5467 126.515 94.6521 129.41 94.3544Z" fill="#E99685"/>
<path d="M129.582 94.2141C132.457 93.9184 134.548 91.3478 134.253 88.4725C133.957 85.5972 131.386 83.5061 128.511 83.8018C125.636 84.0975 123.545 86.668 123.84 89.5433C124.136 92.4186 126.707 94.5098 129.582 94.2141Z" fill="#E99685"/>
<path d="M129.755 94.0736C132.61 93.7799 134.687 91.2275 134.393 88.3725C134.099 85.5174 131.547 83.441 128.692 83.7346C125.837 84.0282 123.761 86.5807 124.054 89.4357C124.348 92.2907 126.9 94.3672 129.755 94.0736Z" fill="#E99685"/>
<path d="M129.929 93.934C132.765 93.6424 134.827 91.1074 134.535 88.2719C134.244 85.4365 131.709 83.3743 128.873 83.6659C126.038 83.9575 123.976 86.4924 124.267 89.3279C124.559 92.1634 127.094 94.2256 129.929 93.934Z" fill="#E99685"/>
<path d="M130.101 93.7937C132.917 93.5041 134.965 90.9866 134.675 88.1707C134.386 85.3548 131.868 83.3068 129.052 83.5964C126.237 83.886 124.189 86.4035 124.478 89.2194C124.768 92.0353 127.285 94.0833 130.101 93.7937Z" fill="#E99685"/>
<path d="M130.275 93.653C133.071 93.3655 135.104 90.8661 134.816 88.0705C134.529 85.2749 132.03 83.2416 129.234 83.5291C126.438 83.8166 124.405 86.316 124.693 89.1116C124.98 91.9073 127.479 93.9405 130.275 93.653Z" fill="#E99685"/>
<path d="M130.447 93.5142C133.223 93.2287 135.242 90.7468 134.957 87.9707C134.671 85.1946 132.189 83.1756 129.413 83.4611C126.637 83.7466 124.618 86.2285 124.904 89.0046C125.189 91.7807 127.671 93.7997 130.447 93.5142Z" fill="#E99685"/>
<path d="M130.621 93.372C133.377 93.0886 135.381 90.6248 135.097 87.8689C134.814 85.1131 132.35 83.1088 129.594 83.3922C126.839 83.6756 124.834 86.1394 125.118 88.8953C125.401 91.6511 127.865 93.6554 130.621 93.372Z" fill="#E99685"/>
<path d="M130.794 93.2326C133.53 92.9512 135.521 90.5049 135.239 87.7687C134.958 85.0324 132.511 83.0423 129.775 83.3237C127.039 83.6051 125.049 86.0514 125.33 88.7877C125.612 91.524 128.058 93.514 130.794 93.2326Z" fill="#E99685"/>
<path d="M130.966 93.0937C133.683 92.8143 135.659 90.3855 135.379 87.6688C135.1 84.9521 132.671 82.9762 129.954 83.2556C127.238 83.535 125.262 85.9638 125.541 88.6805C125.821 91.3972 128.249 93.373 130.966 93.0937Z" fill="#E99685"/>
<path d="M131.139 92.9521C133.836 92.6748 135.797 90.264 135.52 87.5676C135.242 84.8712 132.832 82.9101 130.135 83.1874C127.439 83.4647 125.478 85.8754 125.755 88.5718C126.032 91.2682 128.443 93.2294 131.139 92.9521Z" fill="#E99685"/>
<path d="M131.313 92.8125C133.99 92.5372 135.937 90.144 135.661 87.4671C135.386 84.7902 132.993 82.8433 130.316 83.1186C127.639 83.3939 125.692 85.7871 125.968 88.464C126.243 91.1409 128.636 93.0878 131.313 92.8125Z" fill="#E99685"/>
<path d="M131.485 92.6722C134.143 92.3989 136.075 90.0232 135.802 87.3658C135.529 84.7085 133.153 82.7759 130.496 83.0491C127.838 83.3224 125.906 85.6981 126.179 88.3555C126.452 91.0128 128.828 92.9454 131.485 92.6722Z" fill="#E99685"/>
<path d="M131.658 92.5314C134.295 92.2602 136.213 89.9026 135.942 87.2655C135.671 84.6285 133.313 82.7105 130.676 82.9817C128.039 83.2529 126.121 85.6105 126.393 88.2476C126.664 90.8847 129.021 92.8026 131.658 92.5314Z" fill="#E99685"/>
<path d="M131.831 92.3924C134.449 92.1233 136.352 89.7831 136.083 87.1656C135.814 84.5481 133.474 82.6444 130.856 82.9136C128.239 83.1828 126.335 85.5229 126.604 88.1404C126.873 90.7579 129.214 92.6616 131.831 92.3924Z" fill="#E99685"/>
<path d="M132.004 92.2507C134.601 91.9836 136.49 89.6616 136.223 87.0643C135.956 84.4671 133.634 82.5781 131.037 82.8452C128.44 83.1123 126.551 85.4343 126.818 88.0316C127.085 90.6289 129.407 92.5178 132.004 92.2507Z" fill="#E99685"/>
<path d="M132.178 92.1113C134.756 91.8462 136.63 89.5416 136.365 86.9639C136.1 84.3862 133.796 82.5115 131.218 82.7766C128.64 83.0417 126.766 85.3462 127.031 87.9239C127.296 90.5016 129.6 92.3763 132.178 92.1113Z" fill="#E99685"/>
<path d="M132.351 91.9722C134.909 91.7091 136.769 89.422 136.506 86.8639C136.243 84.3058 133.956 82.4453 131.398 82.7083C128.84 82.9714 126.979 85.2585 127.242 87.8166C127.506 90.3747 129.793 92.2352 132.351 91.9722Z" fill="#E99685"/>
<path d="M132.523 91.8306C135.061 91.5696 136.907 89.3006 136.646 86.7628C136.385 84.2249 134.116 82.3791 131.578 82.6401C129.04 82.9011 127.195 85.17 127.456 87.7079C127.717 90.2458 129.986 92.0915 132.523 91.8306Z" fill="#E99685"/>
<path d="M132.697 91.6911C135.216 91.4321 137.047 89.1807 136.788 86.6624C136.529 84.144 134.278 82.3125 131.76 82.5715C129.241 82.8305 127.41 85.0819 127.669 87.6002C127.928 90.1185 130.179 91.9501 132.697 91.6911Z" fill="#E99685"/>
<path d="M132.869 91.5506C135.367 91.2937 137.184 89.0604 136.927 86.5623C136.67 84.0642 134.437 82.2474 131.939 82.5043C129.441 82.7612 127.624 84.9946 127.881 87.4926C128.138 89.9907 130.371 91.8075 132.869 91.5506Z" fill="#E99685"/>
<path d="M133.043 91.4099C135.522 91.155 137.324 88.9392 137.069 86.4607C136.815 83.9822 134.599 82.1796 132.12 82.4345C129.642 82.6894 127.839 84.9052 128.094 87.3837C128.349 89.8622 130.565 91.6648 133.043 91.4099Z" fill="#E99685"/>
<path d="M133.215 91.2709C135.674 91.0181 137.462 88.8197 137.21 86.3608C136.957 83.9018 134.758 82.1135 132.299 82.3663C129.84 82.6192 128.052 84.8176 128.305 87.2765C128.558 89.7355 130.756 91.5238 133.215 91.2709Z" fill="#E99685"/>
<path d="M133.389 91.1304C135.827 90.8796 137.601 88.6994 137.35 86.2607C137.099 83.822 134.919 82.0484 132.481 82.2992C130.042 82.55 128.268 84.7302 128.519 87.1689C128.77 89.6076 130.95 91.3812 133.389 91.1304Z" fill="#E99685"/>
<path d="M133.562 90.9897C135.981 90.741 137.74 88.5782 137.492 86.1591C137.243 83.74 135.08 81.9806 132.661 82.2294C130.242 82.4781 128.482 84.6409 128.731 87.06C128.98 89.4791 131.143 91.2385 133.562 90.9897Z" fill="#E99685"/>
<path d="M133.734 90.8508C136.134 90.604 137.879 88.4587 137.632 86.0592C137.385 83.6596 135.24 81.9144 132.841 82.1612C130.441 82.408 128.696 84.5533 128.943 86.9528C129.189 89.3524 131.335 91.0976 133.734 90.8508Z" fill="#E99685"/>
<path d="M133.908 90.71C136.288 90.4653 138.018 88.3382 137.773 85.9589C137.529 83.5796 135.402 81.8491 133.022 82.0938C130.643 82.3385 128.912 84.4657 129.157 86.845C129.402 89.2243 131.529 90.9547 133.908 90.71Z" fill="#E99685"/>
<path d="M134.081 90.5698C136.441 90.3272 138.157 88.2175 137.914 85.8577C137.672 83.498 135.562 81.7818 133.202 82.0245C130.843 82.2671 129.126 84.3768 129.369 86.7366C129.612 89.0963 131.721 90.8125 134.081 90.5698Z" fill="#E99685"/>
<path d="M134.253 90.4294C136.593 90.1889 138.294 88.0973 138.054 85.7578C137.813 83.4183 135.722 81.7168 133.382 81.9574C131.043 82.198 129.341 84.2896 129.582 86.6291C129.822 88.9686 131.914 90.67 134.253 90.4294Z" fill="#E99685"/>
<path d="M134.427 90.2896C136.747 90.0511 138.434 87.977 138.196 85.657C137.957 83.3371 135.883 81.6499 133.563 81.8884C131.243 82.127 129.556 84.2011 129.795 86.521C130.033 88.8409 132.107 90.5282 134.427 90.2896Z" fill="#E99685"/>
<path d="M134.6 90.1494C136.9 89.9129 138.573 87.8563 138.336 85.5559C138.1 83.2556 136.043 81.5825 133.743 81.8191C131.442 82.0557 129.769 84.1122 130.006 86.4126C130.243 88.713 132.299 90.386 134.6 90.1494Z" fill="#E99685"/>
<path d="M134.773 90.0089C137.053 89.7744 138.711 87.736 138.477 85.4559C138.242 83.1758 136.204 81.5175 133.924 81.7519C131.643 81.9864 129.985 84.0249 130.22 86.305C130.454 88.5851 132.493 90.2434 134.773 90.0089Z" fill="#E99685"/>
<path d="M86.4026 35.7044C87.3702 40.2193 84.1356 46.6891 78.6853 47.8574C73.235 49.0256 67.6331 44.4504 66.6655 39.9355C65.6979 35.4205 69.5787 31.964 75.029 30.7957C80.4793 29.6275 85.4349 31.1881 86.4039 35.7043L86.4026 35.7044Z" fill="#333341"/>
<path d="M78.4547 38.3113H78.2805C74.3255 38.3113 71.1193 41.5175 71.1193 45.4725V59.1898C71.1193 63.1448 74.3255 66.351 78.2805 66.351H78.4547C82.4098 66.351 85.616 63.1448 85.616 59.1898V45.4725C85.616 41.5175 82.4098 38.3113 78.4547 38.3113Z" fill="#D57F6D"/>
<path d="M70.2702 46.1727C71.4036 46.0917 72.2567 45.1073 72.1757 43.974C72.0948 42.8406 71.1104 41.9875 69.977 42.0685C68.8437 42.1495 67.9906 43.1338 68.0715 44.2672C68.1525 45.4005 69.1369 46.2537 70.2702 46.1727Z" fill="#D57F6D"/>
<path d="M85.9853 42.8037C87.1187 42.7227 87.9718 41.7383 87.8908 40.605C87.8099 39.4716 86.8255 38.6185 85.6921 38.6995C84.5588 38.7804 83.7057 39.7648 83.7866 40.8982C83.8676 42.0315 84.852 42.8846 85.9853 42.8037Z" fill="#D57F6D"/>
<path d="M76.4681 32.4901L76.3003 32.526C72.5113 33.3381 70.098 37.0679 70.9101 40.8568L72.8565 49.9391C73.6685 53.7281 77.3984 56.1414 81.1873 55.3293L81.3552 55.2934C85.1441 54.4813 87.5574 50.7515 86.7454 46.9626L84.7989 37.8803C83.9869 34.0913 80.2571 31.678 76.4681 32.4901Z" fill="#F79C8D"/>
<path d="M71.0828 44.9587L86.5263 41.8582L87.6433 47.0701C88.5439 51.2724 85.8634 55.4152 81.6611 56.3158L81.4746 56.3558C77.2723 57.2564 73.1295 54.5759 72.2289 50.3736L71.0828 44.9587Z" fill="#333341"/>
<path d="M76.671 25.6587L83.7348 24.6836L83.8909 25.8147C84.4586 29.9273 81.5806 33.7286 77.4668 34.2965L70.403 35.2716L70.2469 34.1405C69.6792 30.0279 72.5572 26.2266 76.671 25.6587Z" fill="#333341"/>
<path d="M70.9377 40.9948L70.1781 41.1576L71.2804 46.3011L72.04 46.1383L70.9377 40.9948Z" fill="#333341"/>
<path d="M85.6449 38.0943L84.8853 38.2571L85.9876 43.4006L86.7472 43.2378L85.6449 38.0943Z" fill="#333341"/>
<path fill-rule="evenodd" clip-rule="evenodd" d="M70.9761 60.1943L53.4458 63.5957L60.8257 116.942L94.7743 117.364L103.252 63.6117L85.9998 59.6147C85.5026 63.3473 82.3065 66.2268 78.4379 66.2268C74.772 66.2268 71.7101 63.6413 70.9761 60.1943Z" fill="#FCF5E8"/>
<path d="M68.9322 60.3677C70.1037 64.5128 73.7441 67.2882 76.7719 66.8557C80.5565 66.315 81.0972 59.827 82.7192 59.5567C84.3412 59.2864 84.3412 62.8007 85.4225 62.5304C86.2876 62.3141 85.9632 59.5567 85.9632 59.5567" stroke="black" stroke-width="0.312603" stroke-linecap="round"/>
<path d="M86.5935 59.6941L105.798 64.1218L100.8 122.918L86.5935 126.734V59.6941Z" fill="#D44583"/>
<path d="M72.9134 59.6498L51.6043 63.3328L57.9181 123.709L72.9134 126.734V59.6498Z" fill="#B82B6E"/>
<path d="M72.9134 61.99V57.8084L67.6519 56.7561V60.6384L72.9134 61.99Z" fill="#97144D"/>
<path d="M86.5935 62.0174V57.288L89.7534 56.2297V60.702L86.5935 62.0174Z" fill="#D44583"/>
<path d="M45.7876 94.565C50.9783 95.1479 55.6587 91.4125 56.2416 86.2218C56.8244 81.0311 53.0891 76.3508 47.8984 75.7679C42.7077 75.185 38.0273 78.9204 37.4444 84.1111C36.8616 89.3018 40.597 93.9821 45.7876 94.565Z" fill="#E99685"/>
<path fill-rule="evenodd" clip-rule="evenodd" d="M59.5508 72.0413C59.1823 75.3235 56.8258 77.8996 53.8167 78.7041C55.6044 80.6497 56.5718 83.3297 56.2538 86.1616C56.101 87.5219 55.6669 88.7823 55.0159 89.8911C52.0728 84.4703 46.2884 80.8322 39.6942 80.9417C39.2326 80.9494 38.7755 80.9753 38.3237 81.0187C39.6754 78.1971 42.3682 76.1974 45.4932 75.7449C44.3931 74.2275 43.8336 72.311 44.0593 70.3017C44.5396 66.0238 48.3969 62.9454 52.6748 63.4257C56.9527 63.9061 60.0312 67.7634 59.5508 72.0413Z" fill="#B82B6E"/>
<path d="M32.1147 103.063C35.6503 106.435 41.2493 106.301 44.6205 102.766C47.9916 99.2301 47.8583 93.631 44.3227 90.2599C40.7871 86.8887 35.1881 87.0221 31.8169 90.5576C28.4458 94.0932 28.5791 99.6923 32.1147 103.063Z" fill="#E99685"/>
<path d="M32.1147 103.063C35.6503 106.435 41.2493 106.301 44.6205 102.766C47.9916 99.2301 47.8583 93.631 44.3227 90.2599C40.7871 86.8887 35.1881 87.0221 31.8169 90.5576C28.4458 94.0932 28.5791 99.6923 32.1147 103.063Z" fill="#E99685"/>
<path d="M32.1147 103.063C35.6503 106.435 41.2022 106.351 44.5152 102.876C47.8282 99.4013 47.6478 93.8517 44.1122 90.4806C40.5766 87.1094 35.0247 87.1933 31.7117 90.668C28.3987 94.1426 28.5791 99.6922 32.1147 103.063Z" fill="#E99685"/>
<path d="M32.0043 102.958C35.479 106.271 40.9814 106.14 44.2945 102.665C47.6075 99.1909 47.4765 93.6884 44.0018 90.3753C40.5272 87.0623 35.0247 87.1933 31.7117 90.668C28.3987 94.1426 28.5297 99.6451 32.0043 102.958Z" fill="#E99685"/>
<path d="M32.0039 102.958C35.4785 106.271 40.9339 106.19 44.1888 102.776C47.4437 99.3623 47.2655 93.9092 43.7909 90.5962C40.3163 87.2831 34.8609 87.3647 31.606 90.7784C28.3511 94.1921 28.5292 99.6452 32.0039 102.958Z" fill="#E99685"/>
<path d="M31.7934 103.179C35.268 106.492 40.7705 106.361 44.0835 102.886C47.3966 99.4117 47.2655 93.9092 43.7909 90.5962C40.3163 87.2831 34.8138 87.4142 31.5008 90.8888C28.1877 94.3634 28.3187 99.8659 31.7934 103.179Z" fill="#E99685"/>
<path d="M31.683 103.074C35.0967 106.329 40.5498 106.15 43.8628 102.676C47.1758 99.2012 47.0942 93.7458 43.6805 90.4909C40.2668 87.236 34.8138 87.4142 31.5008 90.8888C28.1877 94.3634 28.2693 99.8188 31.683 103.074Z" fill="#E99685"/>
<path d="M31.6834 103.074C35.0971 106.328 40.5031 106.2 43.758 102.786C47.0129 99.3724 46.8842 93.9664 43.4705 90.7115C40.0568 87.4566 34.6508 87.5853 31.3959 90.999C28.141 94.4127 28.2698 99.8186 31.6834 103.074Z" fill="#E99685"/>
<path d="M31.6834 103.074C35.0971 106.328 40.5031 106.2 43.758 102.786C47.0129 99.3724 46.8842 93.9664 43.4705 90.7115C40.0568 87.4566 34.6508 87.5853 31.3959 90.999C28.141 94.4127 28.2698 99.8186 31.6834 103.074Z" fill="#E99685"/>
<path d="M31.5731 102.968C34.9258 106.165 40.2823 105.989 43.5372 102.576C46.7921 99.1619 46.7128 93.803 43.3601 90.6063C40.0074 87.4095 34.6508 87.5853 31.3959 90.999C28.141 94.4127 28.2203 99.7715 31.5731 102.968Z" fill="#E99685"/>
<path d="M31.573 102.968C34.9258 106.165 40.2352 106.039 43.4319 102.686C46.6287 99.3332 46.5023 94.0237 43.1496 90.827C39.7969 87.6302 34.4874 87.7566 31.2907 91.1093C28.0939 94.4621 28.2203 99.7715 31.573 102.968Z" fill="#E99685"/>
<path d="M31.573 102.968C34.9258 106.165 40.2352 106.039 43.4319 102.686C46.6287 99.3332 46.5023 94.0238 43.1496 90.827C39.7969 87.6302 34.4874 87.7566 31.2907 91.1093C28.0939 94.4621 28.2203 99.7715 31.573 102.968Z" fill="#E99685"/>
<path d="M31.5726 102.968C34.9253 106.165 40.1876 106.088 43.3263 102.796C46.4649 99.5047 46.2914 94.2447 42.9387 91.0479C39.586 87.8511 34.3237 87.9281 31.185 91.2199C28.0464 94.5117 28.2199 99.7717 31.5726 102.968Z" fill="#E99685"/>
<path d="M31.4622 102.863C34.754 106.002 39.9669 105.878 43.1055 102.586C46.2442 99.2942 46.1201 94.0813 42.8283 90.9427C39.5365 87.804 34.3237 87.9281 31.185 91.2199C28.0464 94.5117 28.1705 99.7246 31.4622 102.863Z" fill="#E99685"/>
<path d="M31.2518 103.084C34.5435 106.223 39.8035 106.049 43.0003 102.696C46.1971 99.3436 46.1201 94.0813 42.8283 90.9427C39.5365 87.804 34.2765 87.9776 31.0798 91.3303C27.883 94.683 27.96 99.9453 31.2518 103.084Z" fill="#E99685"/>
<path d="M31.2519 103.084C34.5437 106.223 39.7566 106.099 42.8952 102.807C46.0339 99.5152 45.9098 94.3023 42.618 91.1636C39.3262 88.025 34.1134 88.1491 30.9747 91.4409C27.8361 94.7326 27.9602 99.9455 31.2519 103.084Z" fill="#E99685"/>
<path d="M31.1416 102.979C34.3724 106.059 39.5358 105.888 42.6745 102.596C45.8131 99.3047 45.7384 94.1389 42.5076 91.0584C39.2768 87.9779 34.1134 88.1491 30.9747 91.4409C27.8361 94.7326 27.9108 99.8984 31.1416 102.979Z" fill="#E99685"/>
<path d="M31.1416 102.979C34.3724 106.059 39.5358 105.888 42.6745 102.596C45.8131 99.3047 45.7384 94.1389 42.5076 91.0584C39.2768 87.9779 34.1134 88.1491 30.9747 91.4409C27.8361 94.7326 27.9108 99.8984 31.1416 102.979Z" fill="#E99685"/>
<path d="M31.0313 102.873C34.3231 106.012 39.4888 105.937 42.5694 102.706C45.6499 99.4754 45.4786 94.3119 42.1869 91.1733C38.8951 88.0346 33.7294 88.1093 30.6488 91.3401C27.5683 94.5709 27.7395 99.7344 31.0313 102.873Z" fill="#E99685"/>
<path d="M30.9209 102.768C34.1517 105.848 39.2681 105.727 42.3486 102.496C45.4291 99.2649 45.3073 94.1486 42.0765 91.068C38.8457 87.9875 33.7294 88.1093 30.6488 91.3401C27.5683 94.5709 27.6901 99.6873 30.9209 102.768Z" fill="#E99685"/>
<path d="M30.9209 102.768C34.1517 105.848 39.221 105.776 42.2434 102.606C45.2658 99.4363 45.0968 94.3694 41.866 91.2889C38.6352 88.2083 33.566 88.2807 30.5436 91.4506C27.5212 94.6204 27.6901 99.6873 30.9209 102.768Z" fill="#E99685"/>
<path d="M30.9209 102.768C34.1517 105.848 39.221 105.776 42.2434 102.606C45.2658 99.4363 45.0968 94.3694 41.866 91.2889C38.6352 88.2083 33.566 88.2807 30.5436 91.4506C27.5212 94.6204 27.6901 99.6873 30.9209 102.768Z" fill="#E99685"/>
<path d="M30.8106 102.663C33.9804 105.685 39.0002 105.566 42.0226 102.396C45.045 99.2258 44.9255 94.206 41.7557 91.1836C38.5858 88.1612 33.566 88.2807 30.5436 91.4506C27.5212 94.6204 27.6407 99.6402 30.8106 102.663Z" fill="#E99685"/>
<path d="M30.8109 102.663C33.9808 105.685 38.9535 105.615 41.9178 102.506C44.8821 99.3972 44.7154 94.4268 41.5456 91.4044C38.3757 88.382 33.403 88.4521 30.4387 91.561C27.4745 94.6699 27.6411 99.6403 30.8109 102.663Z" fill="#E99685"/>
<path d="M30.6005 102.883C33.7703 105.906 38.7901 105.786 41.8125 102.617C44.8349 99.4467 44.7154 94.4268 41.5456 91.4044C38.3757 88.382 33.3559 88.5016 30.3335 91.6714C27.3111 94.8412 27.4306 99.8611 30.6005 102.883Z" fill="#E99685"/>
<path d="M30.4901 102.778C33.599 105.743 38.5694 105.576 41.5918 102.406C44.6142 99.2362 44.5441 94.2635 41.4352 91.2992C38.3263 88.3349 33.3559 88.5016 30.3335 91.6714C27.3111 94.8412 27.3812 99.8139 30.4901 102.778Z" fill="#E99685"/>
<path d="M30.4897 102.779C33.5986 105.743 38.5218 105.626 41.4861 102.517C44.4504 99.4078 44.3332 94.4845 41.2243 91.5203C38.1154 88.556 33.1921 88.6732 30.2278 91.7821C27.2636 94.891 27.3808 99.8143 30.4897 102.779Z" fill="#E99685"/>
<path d="M30.4897 102.779C33.5986 105.743 38.5218 105.626 41.4861 102.517C44.4504 99.4078 44.3332 94.4845 41.2243 91.5203C38.1154 88.556 33.1921 88.6732 30.2278 91.7821C27.2636 94.891 27.3808 99.8143 30.4897 102.779Z" fill="#E99685"/>
<path d="M30.3793 102.673C33.4272 105.579 38.2539 105.464 41.1601 102.416C44.0663 99.3684 43.9513 94.5416 40.9034 91.6355C37.8555 88.7293 33.0287 88.8442 30.1226 91.8922C27.2164 94.9401 27.3313 99.7668 30.3793 102.673Z" fill="#E99685"/>
<path d="M30.3793 102.673C33.4272 105.579 38.2539 105.464 41.1601 102.416C44.0663 99.3684 43.9513 94.5416 40.9034 91.6355C37.8555 88.7293 33.0287 88.8442 30.1226 91.8922C27.2164 94.9401 27.3313 99.7668 30.3793 102.673Z" fill="#E99685"/>
<path d="M30.3793 102.673C33.4272 105.579 38.2539 105.464 41.1601 102.416C44.0663 99.3684 43.9513 94.5416 40.9034 91.6355C37.8555 88.7293 33.0287 88.8442 30.1226 91.8922C27.2164 94.9401 27.3313 99.7668 30.3793 102.673Z" fill="#E99685"/>
<path d="M30.2689 102.568C33.2559 105.416 37.9861 105.303 40.8341 102.317C43.6821 99.3296 43.5695 94.5993 40.5825 91.7513C37.5956 88.9033 32.8654 89.0159 30.0173 92.0029C27.1693 94.9898 27.2819 99.72 30.2689 102.568Z" fill="#E99685"/>
<path d="M30.2689 102.568C33.2559 105.416 37.9861 105.303 40.8341 102.317C43.6821 99.3296 43.5695 94.5993 40.5825 91.7513C37.5956 88.9033 32.8654 89.0159 30.0173 92.0029C27.1693 94.9898 27.2819 99.72 30.2689 102.568Z" fill="#E99685"/>
<path d="M30.0584 102.789C33.0454 105.637 37.8227 105.475 40.7289 102.427C43.635 99.379 43.5695 94.5993 40.5825 91.7513C37.5956 88.9033 32.8183 89.0653 29.9121 92.1132C27.0059 95.1612 27.0714 99.9408 30.0584 102.789Z" fill="#E99685"/>
<path d="M29.9478 102.683C32.8738 105.473 37.5546 105.313 40.4026 102.326C43.2507 99.3394 43.1875 94.6563 40.2615 91.8664C37.3354 89.0765 32.6546 89.2362 29.8066 92.2232C26.9586 95.2102 27.0218 99.8933 29.9478 102.683Z" fill="#E99685"/>
<path d="M29.9478 102.683C32.8738 105.473 37.5546 105.313 40.4026 102.326C43.2507 99.3394 43.1875 94.6563 40.2615 91.8664C37.3354 89.0765 32.6546 89.2362 29.8066 92.2232C26.9586 95.2102 27.0218 99.8933 29.9478 102.683Z" fill="#E99685"/>
<path d="M29.8375 102.579C32.8245 105.427 37.5076 105.363 40.2975 102.437C43.0874 99.5113 42.9277 94.8305 39.9407 91.9825C36.9537 89.1345 32.2706 89.1977 29.4807 92.1237C26.6908 95.0497 26.8506 99.7305 29.8375 102.579Z" fill="#E99685"/>
<path d="M29.7272 102.473C32.6532 105.263 37.2868 105.153 40.0768 102.227C42.8667 99.3009 42.7563 94.6672 39.8303 91.8773C36.9043 89.0874 32.2706 89.1977 29.4807 92.1237C26.6908 95.0497 26.8011 99.6834 29.7272 102.473Z" fill="#E99685"/>
<path d="M29.7272 102.473C32.6532 105.263 37.2868 105.153 40.0768 102.227C42.8667 99.3009 42.7563 94.6672 39.8303 91.8773C36.9043 89.0874 32.2706 89.1977 29.4807 92.1237C26.6908 95.0497 26.8011 99.6834 29.7272 102.473Z" fill="#E99685"/>
<path d="M29.7276 102.473C32.6536 105.263 37.2402 105.202 39.9719 102.337C42.7037 99.472 42.5463 94.8878 39.6203 92.0979C36.6943 89.3079 32.1077 89.3688 29.3759 92.2339C26.6441 95.099 26.8016 99.6832 29.7276 102.473Z" fill="#E99685"/>
<path d="M29.7276 102.473C32.6536 105.263 37.2402 105.202 39.9719 102.337C42.7037 99.472 42.5463 94.8878 39.6203 92.0979C36.6943 89.3079 32.1077 89.3688 29.3759 92.2339C26.6441 95.099 26.8016 99.6832 29.7276 102.473Z" fill="#E99685"/>
<path d="M29.6172 102.368C32.4823 105.1 37.0194 104.992 39.7512 102.127C42.483 99.2615 42.375 94.7244 39.5099 91.9926C36.6448 89.2608 32.1077 89.3688 29.3759 92.2339C26.6441 95.099 26.7522 99.6361 29.6172 102.368Z" fill="#E99685"/>
<path d="M29.4067 102.589C32.2718 105.32 36.8089 105.212 39.5407 102.347C42.2725 99.4824 42.1644 94.9452 39.2994 92.2134C36.4343 89.4816 31.8972 89.5897 29.1654 92.4547C26.4336 95.3198 26.5416 99.8569 29.4067 102.589Z" fill="#E99685"/>
<path d="M29.4067 102.589C32.2718 105.32 36.8089 105.212 39.5407 102.347C42.2725 99.4824 42.1644 94.9452 39.2994 92.2134C36.4343 89.4816 31.8972 89.5897 29.1654 92.4547C26.4336 95.3198 26.5416 99.8569 29.4067 102.589Z" fill="#E99685"/>
<path d="M29.2961 102.483C32.1002 105.157 36.5408 105.051 39.2145 102.247C41.8881 99.4429 41.7824 95.0023 38.9783 92.3287C36.1742 89.655 31.7336 89.7607 29.06 92.5648C26.3863 95.3689 26.492 99.8095 29.2961 102.483Z" fill="#E99685"/>
<path d="M29.2961 102.483C32.1002 105.157 36.5408 105.051 39.2145 102.247C41.8881 99.4429 41.7824 95.0023 38.9783 92.3287C36.1742 89.655 31.7336 89.7607 29.06 92.5648C26.3863 95.3689 26.492 99.8095 29.2961 102.483Z" fill="#E99685"/>
<path d="M29.2961 102.483C32.1002 105.157 36.5408 105.051 39.2145 102.247C41.8881 99.4429 41.7824 95.0023 38.9783 92.3287C36.1742 89.655 31.7336 89.7607 29.06 92.5648C26.3863 95.3689 26.492 99.8095 29.2961 102.483Z" fill="#E99685"/>
<path d="M29.1857 102.378C31.9288 104.994 36.2729 104.89 38.8885 102.147C41.504 99.4041 41.4006 95.06 38.6574 92.4445C35.9143 89.8289 31.5702 89.9324 28.9547 92.6755C26.3391 95.4186 26.4426 99.7627 29.1857 102.378Z" fill="#E99685"/>
<path d="M29.1857 102.378C31.9288 104.994 36.2729 104.89 38.8885 102.147C41.504 99.4041 41.4006 95.06 38.6574 92.4445C35.9143 89.8289 31.5702 89.9324 28.9547 92.6755C26.3391 95.4186 26.4426 99.7627 29.1857 102.378Z" fill="#E99685"/>
<path d="M29.1861 102.378C31.9293 104.994 36.2262 104.94 38.7836 102.258C41.3411 99.5755 41.1905 95.2809 38.4474 92.6653C35.7042 90.0498 31.4073 90.1038 28.8499 92.786C26.2925 95.4681 26.443 99.7628 29.1861 102.378Z" fill="#E99685"/>
<path d="M29.0758 102.273C31.7579 104.831 36.0055 104.729 38.5629 102.047C41.1203 99.365 41.0192 95.1175 38.337 92.5601C35.6548 90.0026 31.4073 90.1038 28.8499 92.786C26.2925 95.4681 26.3936 99.7157 29.0758 102.273Z" fill="#E99685"/>
<path d="M28.8653 102.494C31.5475 105.051 35.8421 104.901 38.4577 102.158C41.0732 99.4144 41.0192 95.1175 38.337 92.5601C35.6548 90.0026 31.3602 90.1532 28.7446 92.8963C26.1291 95.6395 26.1831 99.9364 28.8653 102.494Z" fill="#E99685"/>
<path d="M28.8655 102.494C31.5476 105.051 35.7952 104.95 38.3526 102.268C40.91 99.5856 40.8089 95.3381 38.1267 92.7806C35.4445 90.2232 31.197 90.3244 28.6396 93.0065C26.0822 95.6887 26.1833 99.9362 28.8655 102.494Z" fill="#E99685"/>
<path d="M28.7551 102.388C31.3763 104.888 35.5744 104.739 38.1319 102.057C40.6893 99.3751 40.6376 95.1747 38.0163 92.6754C35.3951 90.1761 31.197 90.3244 28.6396 93.0065C26.0822 95.6887 26.1339 99.8891 28.7551 102.388Z" fill="#E99685"/>
<path d="M28.7551 102.388C31.3763 104.888 35.5744 104.739 38.1319 102.057C40.6893 99.3751 40.6376 95.1747 38.0163 92.6754C35.3951 90.1761 31.197 90.3244 28.6396 93.0065C26.0822 95.6887 26.1339 99.8891 28.7551 102.388Z" fill="#E99685"/>
<path d="M28.6442 102.283C31.3264 104.84 35.5268 104.789 38.0261 102.168C40.5254 99.5463 40.3771 95.3482 37.695 92.7908C35.0128 90.2334 30.8124 90.2851 28.3131 92.9063C25.8138 95.5275 25.962 99.7256 28.6442 102.283Z" fill="#E99685"/>
<path d="M28.5338 102.178C31.155 104.677 35.306 104.578 37.8053 101.957C40.3046 99.3358 40.2058 95.1848 37.5846 92.6855C34.9634 90.1862 30.8124 90.2851 28.3131 92.9063C25.8138 95.5275 25.9126 99.6785 28.5338 102.178Z" fill="#E99685"/>
<path d="M28.5338 102.178C31.155 104.677 35.2589 104.627 37.7001 102.067C40.1413 99.5069 39.9953 95.4053 37.3741 92.906C34.7529 90.4067 30.649 90.4561 28.2078 93.0164C25.7666 95.5766 25.9126 99.6782 28.5338 102.178Z" fill="#E99685"/>
<path d="M28.5338 102.178C31.155 104.677 35.2589 104.627 37.7001 102.067C40.1413 99.5069 39.9953 95.4053 37.3741 92.906C34.7529 90.4067 30.649 90.4561 28.2078 93.0164C25.7666 95.5766 25.9126 99.6782 28.5338 102.178Z" fill="#E99685"/>
<path d="M28.4234 102.072C30.9837 104.513 35.0382 104.417 37.4793 101.857C39.9205 99.2964 39.824 95.2419 37.2637 92.8008C34.7035 90.3596 30.649 90.4561 28.2078 93.0164C25.7666 95.5766 25.8632 99.6311 28.4234 102.072Z" fill="#E99685"/>
<path d="M28.2131 102.293C30.7734 104.734 34.8279 104.637 37.269 102.077C39.7102 99.517 39.6137 95.4625 37.0534 93.0213C34.4932 90.5802 30.4387 90.6767 27.9975 93.237C25.5563 95.7972 25.6529 99.8517 28.2131 102.293Z" fill="#E99685"/>
<path d="M28.2131 102.293C30.7734 104.734 34.8279 104.637 37.269 102.077C39.7102 99.517 39.6137 95.4625 37.0534 93.0213C34.4932 90.5802 30.4387 90.6767 27.9975 93.237C25.5563 95.7972 25.6529 99.8517 28.2131 102.293Z" fill="#E99685"/>
<path d="M28.1028 102.188C30.6021 104.571 34.6071 104.427 37.0483 101.867C39.4895 99.3065 39.4423 95.2991 36.943 92.9161C34.4437 90.533 30.4387 90.6767 27.9975 93.237C25.5563 95.7972 25.6035 99.8046 28.1028 102.188Z" fill="#E99685"/>
<path d="M28.1026 102.188C30.6019 104.571 34.5598 104.477 36.9428 101.978C39.3259 99.4784 39.2317 95.5205 36.7324 93.1374C34.2331 90.7544 30.2751 90.8486 27.8921 93.3479C25.509 95.8472 25.6033 99.8051 28.1026 102.188Z" fill="#E99685"/>
<path d="M28.1026 102.188C30.6019 104.571 34.5598 104.477 36.9428 101.978C39.3259 99.4784 39.2317 95.5205 36.7324 93.1374C34.2331 90.7544 30.2751 90.8486 27.8921 93.3479C25.509 95.8472 25.6033 99.8051 28.1026 102.188Z" fill="#E99685"/>
<path d="M27.992 102.083C30.4303 104.407 34.2917 104.316 36.6166 101.877C38.9416 99.4388 38.8496 95.5774 36.4113 93.2525C33.9729 90.9276 30.1116 91.0195 27.7866 93.4579C25.4617 95.8962 25.5536 99.7576 27.992 102.083Z" fill="#E99685"/>
<path d="M27.992 102.083C30.4303 104.407 34.2917 104.316 36.6166 101.877C38.9416 99.4388 38.8496 95.5774 36.4113 93.2525C33.9729 90.9276 30.1116 91.0195 27.7866 93.4579C25.4617 95.8962 25.5536 99.7576 27.992 102.083Z" fill="#E99685"/>
<path d="M27.992 102.083C30.4303 104.407 34.2917 104.316 36.6166 101.877C38.9416 99.4388 38.8496 95.5774 36.4113 93.2525C33.9729 90.9276 30.1116 91.0195 27.7866 93.4579C25.4617 95.8962 25.5536 99.7576 27.992 102.083Z" fill="#E99685"/>
<path d="M27.8818 101.977C30.2592 104.244 34.024 104.155 36.2908 101.777C38.5576 99.3999 38.468 95.635 36.0906 93.3682C33.7132 91.1014 29.9484 91.191 27.6816 93.5684C25.4148 95.9458 25.5044 99.7107 27.8818 101.977Z" fill="#E99685"/>
<path d="M27.6713 102.198C30.0487 104.465 33.8607 104.326 36.1856 101.888C38.5105 99.4493 38.468 95.635 36.0906 93.3682C33.7132 91.1014 29.9013 91.2405 27.5763 93.6788C25.2514 96.1171 25.2939 99.9314 27.6713 102.198Z" fill="#E99685"/>
<path d="M27.6713 102.198C30.0487 104.465 33.8607 104.326 36.1856 101.888C38.5105 99.4493 38.468 95.635 36.0906 93.3682C33.7132 91.1014 29.9013 91.2405 27.5763 93.6788C25.2514 96.1171 25.2939 99.9314 27.6713 102.198Z" fill="#E99685"/>
<path d="M27.6715 102.198C30.0489 104.465 33.8137 104.375 36.0805 101.998C38.3473 99.6207 38.2577 95.8558 35.8803 93.589C33.5029 91.3222 29.7381 91.4119 27.4713 93.7893C25.2045 96.1666 25.2941 99.9315 27.6715 102.198Z" fill="#E99685"/>
<path d="M27.5611 102.093C29.8775 104.302 33.593 104.165 35.8598 101.788C38.1266 99.4102 38.0864 95.6925 35.7699 93.4838C33.4535 91.2751 29.7381 91.4119 27.4713 93.7893C25.2045 96.1666 25.2447 99.8844 27.5611 102.093Z" fill="#E99685"/>
<path d="M27.5611 102.093C29.8775 104.302 33.5459 104.214 35.7545 101.898C37.9632 99.5816 37.8759 95.9133 35.5595 93.7046C33.243 91.4959 29.5747 91.5833 27.366 93.8997C25.1573 96.2161 25.2447 99.8845 27.5611 102.093Z" fill="#E99685"/>
<path d="M27.4511 101.988C29.8284 104.255 33.5462 104.215 35.7549 101.898C37.9636 99.5818 37.8268 95.8663 35.4494 93.5995C33.072 91.3327 29.3543 91.373 27.1456 93.6894C24.9369 96.0058 25.0737 99.7212 27.4511 101.988Z" fill="#E99685"/>
<path d="M27.3407 101.883C29.6571 104.091 33.3254 104.004 35.5341 101.688C37.7428 99.3713 37.6555 95.703 35.339 93.4943C33.0226 91.2856 29.3543 91.373 27.1456 93.6894C24.9369 96.0058 25.0243 99.6741 27.3407 101.883Z" fill="#E99685"/>
<path d="M27.3403 101.883C29.6567 104.091 33.2779 104.053 35.4285 101.798C37.579 99.5425 37.4446 95.9236 35.1281 93.7149C32.8117 91.5062 29.1905 91.5441 27.0399 93.7996C24.8894 96.055 25.0238 99.674 27.3403 101.883Z" fill="#E99685"/>
<path d="M27.3403 101.883C29.6567 104.091 33.2779 104.053 35.4285 101.798C37.579 99.5425 37.4446 95.9236 35.1281 93.7149C32.8117 91.5062 29.1905 91.5441 27.0399 93.7996C24.8894 96.055 25.0238 99.674 27.3403 101.883Z" fill="#E99685"/>
<path d="M27.2299 101.777C29.4854 103.928 33.0571 103.843 35.2077 101.587C37.3583 99.332 37.2732 95.7602 35.0178 93.6096C32.7623 91.4591 29.1905 91.5441 27.0399 93.7996C24.8894 96.055 24.9744 99.6268 27.2299 101.777Z" fill="#E99685"/>
<path d="M27.0196 101.998C29.2751 104.149 32.8468 104.064 34.9974 101.808C37.148 99.5529 37.0629 95.9811 34.8075 93.8306C32.552 91.68 28.9802 91.7651 26.8296 94.0205C24.6791 96.276 24.7641 99.8478 27.0196 101.998Z" fill="#E99685"/>
<path d="M27.0196 101.998C29.2751 104.149 32.8468 104.064 34.9974 101.808C37.148 99.5529 37.0629 95.9811 34.8075 93.8306C32.552 91.68 28.9802 91.7651 26.8296 94.0205C24.6791 96.276 24.7641 99.8478 27.0196 101.998Z" fill="#E99685"/>
<path d="M26.909 101.893C29.1035 103.985 32.5788 103.903 34.6712 101.708C36.7636 99.5136 36.6809 96.0384 34.4864 93.9459C32.2919 91.8535 28.8166 91.9362 26.7242 94.1307C24.6318 96.3252 24.7145 99.8005 26.909 101.893Z" fill="#E99685"/>
<path d="M26.909 101.893C29.1035 103.985 32.5788 103.903 34.6712 101.708C36.7636 99.5136 36.6809 96.0384 34.4864 93.9459C32.2919 91.8535 28.8166 91.9362 26.7242 94.1307C24.6318 96.3252 24.7145 99.8005 26.909 101.893Z" fill="#E99685"/>
<path d="M26.909 101.893C29.1035 103.985 32.5788 103.903 34.6712 101.708C36.7636 99.5136 36.6809 96.0384 34.4864 93.9459C32.2919 91.8535 28.8166 91.9362 26.7242 94.1307C24.6318 96.3252 24.7145 99.8005 26.909 101.893Z" fill="#E99685"/>
<path d="M26.7988 101.788C28.9324 103.822 32.3111 103.742 34.3454 101.608C36.3797 99.4748 36.2993 96.0961 34.1657 94.0617C32.0322 92.0274 28.6534 92.1079 26.6191 94.2414C24.5848 96.375 24.6653 99.7537 26.7988 101.788Z" fill="#E99685"/>
<path d="M26.7988 101.788C28.9324 103.822 32.3111 103.742 34.3454 101.608C36.3797 99.4748 36.2993 96.0961 34.1657 94.0617C32.0322 92.0274 28.6534 92.1079 26.6191 94.2414C24.5848 96.375 24.6653 99.7537 26.7988 101.788Z" fill="#E99685"/>
<path d="M26.7988 101.788C28.9324 103.822 32.3111 103.742 34.3454 101.608C36.3797 99.4748 36.2993 96.0961 34.1657 94.0617C32.0322 92.0274 28.6534 92.1079 26.6191 94.2414C24.5848 96.375 24.6653 99.7537 26.7988 101.788Z" fill="#E99685"/>
<path d="M26.6882 101.682C28.7608 103.659 32.043 103.581 34.0192 101.508C35.9954 99.4353 35.9172 96.1532 33.8446 94.177C31.7721 92.2008 28.4899 92.2789 26.5137 94.3515C24.5375 96.4241 24.6156 99.7063 26.6882 101.682Z" fill="#E99685"/>
<path d="M26.4777 101.903C28.5503 103.879 31.8796 103.752 33.914 101.618C35.9483 99.4848 35.9172 96.1532 33.8446 94.177C31.7721 92.2008 28.4428 92.3283 26.4084 94.4619C24.3741 96.5954 24.4052 99.927 26.4777 101.903Z" fill="#E99685"/>
<path d="M26.478 101.903C28.5506 103.88 31.8327 103.801 33.8089 101.729C35.7851 99.6563 35.707 96.3741 33.6344 94.3979C31.5618 92.4217 28.2796 92.4999 26.3034 94.5725C24.3272 96.6451 24.4054 99.9272 26.478 101.903Z" fill="#E99685"/>
<path d="M26.3676 101.798C28.3792 103.716 31.612 103.591 33.5882 101.518C35.5644 99.4458 35.5356 96.2107 33.524 94.2927C31.5124 92.3746 28.2796 92.4999 26.3034 94.5725C24.3272 96.6451 24.356 99.8801 26.3676 101.798Z" fill="#E99685"/>
<path d="M26.3676 101.798C28.3792 103.716 31.612 103.591 33.5882 101.518C35.5644 99.4458 35.5356 96.2107 33.524 94.2927C31.5124 92.3746 28.2796 92.4999 26.3034 94.5725C24.3272 96.6451 24.356 99.8801 26.3676 101.798Z" fill="#E99685"/>
<path d="M26.2571 101.693C28.3297 103.669 31.5648 103.64 33.4828 101.629C35.4009 99.6169 35.2756 96.3841 33.203 94.4079C31.1305 92.4317 27.8954 92.4605 25.9773 94.4721C24.0593 96.4837 24.1845 99.7165 26.2571 101.693Z" fill="#E99685"/>
<path d="M26.1467 101.587C28.1584 103.506 31.344 103.43 33.2621 101.418C35.1802 99.4064 35.1043 96.2207 33.0927 94.3027C31.081 92.3846 27.8954 92.4605 25.9773 94.4721C24.0593 96.4837 24.1351 99.6694 26.1467 101.587Z" fill="#E99685"/>
<path d="M26.1467 101.587C28.1584 103.506 31.344 103.43 33.2621 101.418C35.1802 99.4064 35.1043 96.2207 33.0927 94.3027C31.081 92.3846 27.8954 92.4605 25.9773 94.4721C24.0593 96.4837 24.1351 99.6694 26.1467 101.587Z" fill="#E99685"/>
<path d="M26.1467 101.588C28.1583 103.506 31.2969 103.479 33.1568 101.529C35.0168 99.5779 34.8938 96.4417 32.8822 94.5236C30.8705 92.6056 27.732 92.632 25.8721 94.5827C24.0121 96.5333 24.1351 99.6696 26.1467 101.588Z" fill="#E99685"/>
<path d="M26.0363 101.482C27.987 103.342 31.0761 103.269 32.9361 101.318C34.796 99.3674 34.7225 96.2783 32.7718 94.4184C30.8211 92.5584 27.732 92.632 25.8721 94.5827C24.0121 96.5333 24.0857 99.6225 26.0363 101.482Z" fill="#E99685"/>
<path d="M25.8259 101.703C27.7765 103.563 30.8656 103.489 32.7256 101.538C34.5855 99.5877 34.512 96.4985 32.5613 94.6386C30.6106 92.7787 27.5215 92.8522 25.6616 94.8029C23.8016 96.7536 23.8752 99.8427 25.8259 101.703Z" fill="#E99685"/>
<path d="M25.8259 101.703C27.7765 103.563 30.8656 103.489 32.7256 101.538C34.5855 99.5877 34.512 96.4985 32.5613 94.6386C30.6106 92.7787 27.5215 92.8522 25.6616 94.8029C23.8016 96.7536 23.8752 99.8427 25.8259 101.703Z" fill="#E99685"/>
<path d="M25.8259 101.703C27.7765 103.563 30.8656 103.489 32.7256 101.538C34.5855 99.5877 34.512 96.4985 32.5613 94.6386C30.6106 92.7787 27.5215 92.8522 25.6616 94.8029C23.8016 96.7536 23.8752 99.8427 25.8259 101.703Z" fill="#E99685"/>
<path d="M25.7157 101.598C27.6054 103.4 30.598 103.328 32.3998 101.439C34.2016 99.5488 34.1303 96.5562 32.2406 94.7544C30.3509 92.9526 27.3583 93.0239 25.5565 94.9136C23.7547 96.8033 23.826 99.7959 25.7157 101.598Z" fill="#E99685"/>
<path d="M25.7157 101.598C27.6054 103.4 30.598 103.328 32.3998 101.439C34.2016 99.5488 34.1303 96.5562 32.2406 94.7544C30.3509 92.9526 27.3583 93.0239 25.5565 94.9136C23.7547 96.8033 23.826 99.7959 25.7157 101.598Z" fill="#E99685"/>
<path d="M27.5651 103.157L20.1648 98.2576C19.2189 97.6313 19.5689 96.1656 20.6957 96.0342L36.3982 94.2045C37.2568 94.1044 37.943 94.9064 37.7114 95.7392L36.2105 101.136C35.5891 103.371 33.2941 104.697 31.0477 104.12L27.9341 103.321C27.8028 103.287 27.6781 103.231 27.5651 103.157Z" fill="#E99685"/>
<path d="M134.986 88.2633L133.778 81.7189C133.641 80.971 134.215 80.2813 134.975 80.2813L148.735 80.2813C149.841 80.2813 150.373 81.638 149.562 82.3903L144.145 87.4151C143.5 88.0128 142.687 88.3966 141.815 88.5136L136.344 89.2485C135.701 89.3349 135.103 88.9014 134.986 88.2633Z" fill="#E99685"/>
<path d="M14.8249 89.1013C14.8249 89.1013 20.2158 92.7762 22.3758 93.5671C26.0648 94.9178 30.9198 96.1958 30.9198 96.1958" stroke="#E99685" stroke-width="4.86736" stroke-linecap="round"/>
<path d="M19.7218 87.2031C19.7218 87.2031 17.5414 91.13 17.9548 93.7319C18.3681 96.3337 21.0232 98.1006 21.0232 98.1006" stroke="#D47F6D" stroke-width="4.43316" stroke-linecap="round"/>
<path d="M25.4805 88.0785C25.4805 88.0785 23.2478 90.6966 22.4302 93.1181C21.6126 95.5396 22.305 99.1351 22.305 99.1351" stroke="#D47F6D" stroke-width="4.43316" stroke-linecap="round"/>
<path d="M30.6018 90.1476C30.6018 90.1476 26.6156 93.8363 25.9868 95.6471C25.3581 97.4579 24.9276 100.537 24.9276 100.537" stroke="#D47F6D" stroke-width="4.43316" stroke-linecap="round"/>
<path d="M31.728 95.8585L29.6251 98.3375L27.7497 101.681" stroke="#D47F6D" stroke-width="4.43316" stroke-linecap="round"/>
<path d="M152.888 78.3281L149.189 82.5572L146.004 84.3141" stroke="#D47F6D" stroke-width="4.43316" stroke-linecap="round" stroke-linejoin="round"/>
<path d="M149.731 78.5912L147.601 82.3838L144.045 85.4315" stroke="#D47F6D" stroke-width="4.43316" stroke-linecap="round"/>
<path d="M146.311 79.3805L144.996 82.8005L142.628 86.2204" stroke="#E99685" stroke-width="4.43316" stroke-linecap="round" stroke-linejoin="round"/>
<path d="M144.206 80.1698L143.417 82.2744L141.229 85.4313" stroke="#D47F6D" stroke-width="0.30421" stroke-linecap="round"/>
<path d="M151.309 78.3281L148.416 83.5896L146.048 86.2204" stroke="#E99685" stroke-width="0.30421" stroke-linecap="round"/>
<path d="M75.5446 46.527L83.0078 46.2327V46.2327C83.0791 48.04 81.6718 49.5628 79.8646 49.634L78.9458 49.6702C77.1386 49.7415 75.6158 48.3342 75.5446 46.527V46.527Z" fill="black"/>
<path fill-rule="evenodd" clip-rule="evenodd" d="M81.6645 48.8681C81.1611 49.2582 80.5357 49.5006 79.8509 49.5276L78.9852 49.5617C78.289 49.5892 77.6364 49.3898 77.0988 49.0295C77.2949 48.9452 77.5094 48.8948 77.7354 48.8859L80.9714 48.7583C81.2151 48.7487 81.4493 48.7883 81.6645 48.8681ZM75.7048 46.6146L82.8841 46.3316C82.9038 46.831 82.5149 47.2518 82.0155 47.2715L76.6447 47.4833C76.1453 47.503 75.7245 47.1141 75.7048 46.6146Z" fill="white"/>
<path d="M72.1633 44.6885L75.0177 44.1197L76.3832 38.3978L73.7853 38.7412L72.1633 44.6885Z" fill="white"/>
<path d="M80.2792 43.2027L82.6467 42.668L84.0122 36.9461L81.8575 37.152L80.2792 43.2027Z" fill="white"/>
<path d="M77.9473 42.7206L79.7588 42.3323L80.0372 43.6316C80.1443 44.1314 79.8261 44.6248 79.3251 44.7322C78.8253 44.8393 78.3319 44.5211 78.2245 44.0201L77.946 42.7208L77.9473 42.7206Z" fill="#F79C8D"/>
<path d="M75.769 38.4247L71.972 39.2384C71.2063 39.4025 70.7187 40.1562 70.8828 40.9218L71.4741 43.6807C71.6381 44.4463 72.3918 44.9339 73.1574 44.7699L76.9545 43.9561C77.7201 43.792 78.2077 43.0383 78.0436 42.2727L77.4524 39.5138C77.2883 38.7482 76.5346 38.2606 75.769 38.4247Z" stroke="#4A1D32" stroke-width="0.732234" stroke-miterlimit="10"/>
<path d="M83.6483 36.7361L79.8513 37.5498C79.0857 37.7139 78.598 38.4676 78.7621 39.2332L79.3534 41.9921C79.5174 42.7577 80.2711 43.2453 81.0367 43.0813L84.8338 42.2675C85.5994 42.1034 86.087 41.3497 85.9229 40.5841L85.3317 37.8252C85.1676 37.0596 84.4139 36.572 83.6483 36.7361Z" stroke="#4A1D32" stroke-width="0.732234" stroke-miterlimit="10"/>
<path d="M77.6981 39.5875C77.6731 39.5931 77.648 39.5988 77.6228 39.6031L78.7804 39.3547" stroke="#4A1D32" stroke-width="0.732234" stroke-miterlimit="10"/>
<path d="M75.0913 36.4344C74.0291 36.6052 73.0157 37.0708 72.1932 37.7652" stroke="#454457" stroke-width="1.40271" stroke-linecap="round"/>
<path d="M75.8297 40.9098C75.005 40.4412 74.1683 40.9593 74.0305 41.5658" stroke="#333341" stroke-width="1.21684" stroke-linecap="round"/>
<path d="M81.2457 39.6627C81.8619 38.9416 82.8249 39.1443 83.1608 39.6678" stroke="#333341" stroke-width="1.21684" stroke-linecap="round"/>
<path d="M79.6011 35.509C80.3769 35.2086 81.9535 35.1334 82.7669 35.6213" stroke="#454457" stroke-width="1.40271" stroke-linecap="round"/>
<path d="M84.9069 63.3811C85.2102 63.5454 85.5239 63.6957 85.8238 63.8231C86.0743 63.9294 86.2646 63.6315 86.1003 63.4147C85.6526 62.8225 85.2275 62.1475 84.8708 61.538C84.0758 60.1768 83.8298 59.0997 82.9246 59.7168C81.7176 60.5402 82.916 61.8933 83.4953 62.4309C83.8366 62.7437 84.3551 63.0833 84.9069 63.3811Z" fill="#91B1C6"/>
<path d="M137.235 66.2888C140.037 70.8224 146.379 72.0983 151.399 69.1372C156.419 66.1761 158.22 60.1043 155.415 55.5685L154.586 54.2292L136.405 64.9493L137.233 66.2897" fill="white"/>
<path d="M137.671 66.4984C133.944 62.645 134.454 56.448 138.819 52.6623C143.184 48.8767 149.738 48.9289 153.465 52.7821C157.191 56.6352 156.683 62.8316 152.321 66.6154C147.959 70.3992 141.4 70.352 137.671 66.4984Z" fill="#FFE2AA"/>
<path d="M136.665 59.8771L136.665 59.8874L136.668 59.8914C136.619 60.924 136.782 61.9557 137.147 62.9229C137.513 63.8933 138.075 64.778 138.798 65.5221C141.991 68.8218 147.622 68.8666 151.351 65.6281C153.226 63.9996 154.359 61.7317 154.46 59.4057L154.461 59.4053L154.461 59.3989C154.461 59.3988 154.461 59.3987 154.461 59.3986C154.511 58.3629 154.347 57.328 153.98 56.3582C153.613 55.3883 153.051 54.5042 152.328 53.7607C149.135 50.4606 143.505 50.4159 139.775 53.6541L139.795 53.6777L139.775 53.6541C137.9 55.2826 136.766 57.5505 136.665 59.8771ZM154.32 59.3905L154.319 59.3904L154.32 59.3974L154.321 59.4019C154.222 61.6863 153.106 63.916 151.261 65.519C147.589 68.7092 142.044 68.6639 138.906 65.4211L138.906 65.421C138.197 64.691 137.645 63.8229 137.285 62.8706C136.925 61.9183 136.765 60.9022 136.815 59.8854L136.816 59.8751L136.813 59.8709C136.915 57.5885 138.03 55.3617 139.874 53.761L139.874 53.761C143.546 50.5707 149.091 50.616 152.228 53.8589L152.228 53.8589C152.937 54.5885 153.489 55.4559 153.849 56.4075C154.208 57.359 154.369 58.3743 154.32 59.3905Z" fill="#FFC555" stroke="#FFC555" stroke-width="0.0625206"/>
<path d="M145.402 62.1577C145.009 62.0326 144.651 61.8164 144.358 61.5268L143.632 61.9939C143.608 62.0089 143.579 62.015 143.552 62.0112C143.538 62.0094 143.524 62.0049 143.512 61.9979C143.5 61.9909 143.49 61.9815 143.482 61.9704L143.16 61.5329C143.152 61.5223 143.146 61.5099 143.143 61.4968C143.141 61.4838 143.141 61.4704 143.144 61.4575C143.147 61.444 143.153 61.4313 143.161 61.4206C143.169 61.409 143.179 61.399 143.191 61.391L143.876 60.9506C143.64 60.5955 143.497 60.1865 143.46 59.7613C143.429 59.3563 143.512 58.9506 143.701 58.5909L140.4 57.568C140.381 57.5625 140.365 57.5519 140.352 57.5374C140.339 57.5233 140.331 57.5056 140.329 57.4868C140.327 57.4682 140.33 57.4492 140.338 57.4324C140.347 57.4145 140.361 57.3995 140.378 57.3891L141.957 56.3722C141.971 56.3629 141.988 56.3569 142.005 56.3545C142.022 56.352 142.04 56.3532 142.056 56.358L144.918 57.2521C144.981 57.2024 145.086 57.1298 145.235 57.0342L147.009 55.8896C147.022 55.8819 147.035 55.8764 147.05 55.8733C147.064 55.8701 147.078 55.8695 147.093 55.8715C147.107 55.8742 147.12 55.879 147.132 55.8859C147.144 55.8927 147.155 55.902 147.163 55.9131L147.899 56.9139C147.908 56.9251 147.914 56.9381 147.917 56.952C147.92 56.9659 147.92 56.9802 147.916 56.994C147.909 57.0215 147.892 57.0453 147.869 57.0607L146.185 58.1451C145.774 58.4094 145.5 58.6969 145.362 59.0075C145.29 59.1604 145.255 59.3276 145.257 59.4964C145.26 59.6651 145.302 59.831 145.378 59.9814L148.526 57.9546C148.538 57.9469 148.552 57.9413 148.566 57.9382C148.58 57.9349 148.595 57.9346 148.609 57.9373C148.623 57.9393 148.637 57.9439 148.649 57.9509C148.661 57.9577 148.671 57.9669 148.679 57.9781L149 58.4148C149.009 58.4259 149.015 58.4389 149.018 58.4528C149.021 58.4667 149.021 58.4811 149.017 58.4948C149.014 58.5084 149.009 58.5212 149.001 58.5325C148.993 58.5438 148.982 58.5533 148.97 58.5606L145.824 60.5879C145.949 60.7098 146.098 60.8047 146.261 60.8667C146.424 60.9286 146.599 60.9564 146.773 60.9482C147.132 60.938 147.521 60.7987 147.938 60.5302L149.621 59.4471C149.645 59.4326 149.673 59.4266 149.701 59.4299C149.728 59.434 149.753 59.4486 149.771 59.4706L150.502 60.4627C150.51 60.4735 150.515 60.4859 150.518 60.4989C150.52 60.5121 150.52 60.5256 150.518 60.5388C150.514 60.552 150.509 60.5645 150.501 60.5758C150.493 60.5873 150.482 60.5972 150.47 60.6048L145.134 64.0434C145.121 64.0511 145.108 64.0565 145.094 64.0595C145.08 64.0629 145.065 64.0633 145.051 64.0605C145.037 64.0588 145.023 64.0542 145.011 64.0471C144.999 64.0406 144.988 64.0312 144.981 64.0197L144.25 63.0285C144.241 63.0172 144.235 63.0042 144.232 62.9904C144.229 62.9765 144.229 62.9622 144.233 62.9484C144.239 62.921 144.257 62.8974 144.281 62.8825L145.402 62.1577Z" fill="#FFC555"/>
<path d="M108.8 12.4178C110.982 11.9465 114.114 16.3635 115.796 22.2818C117.478 28.2002 117.072 33.3802 114.89 33.8515L112.697 34.4223L106.607 12.9887L108.8 12.4178Z" fill="white"/>
<path d="M113.626 22.6685C111.893 16.7612 108.756 12.4804 106.619 13.1073C104.482 13.7341 104.154 19.0311 105.887 24.9385C107.619 30.8459 110.756 35.1266 112.894 34.4998C115.031 33.8729 115.359 28.5759 113.626 22.6685Z" fill="#FFE2AA"/>
<path d="M113.067 22.6965C111.516 17.4335 108.715 13.6218 106.811 14.183C104.907 14.7441 104.62 19.4656 106.171 24.7286C107.723 29.9916 110.524 33.8033 112.428 33.2421C114.332 32.681 114.618 27.9595 113.067 22.6965Z" stroke="#FFBEAA" stroke-width="0.135911" stroke-miterlimit="10"/>
<path d="M109.898 20.6184C110.101 20.9409 110.256 21.2912 110.358 21.6584L110.854 21.6816C110.874 21.6849 110.892 21.6957 110.904 21.7117C110.919 21.7317 110.93 21.7551 110.934 21.78L111.029 22.2876C111.031 22.2996 111.032 22.3118 111.032 22.324C111.031 22.3346 111.028 22.345 111.023 22.3548C111.019 22.3627 111.014 22.3695 111.007 22.3748C111 22.3788 110.992 22.3807 110.984 22.3802L110.516 22.3583C110.58 22.7348 110.579 23.1193 110.516 23.4959C110.474 23.7837 110.349 24.0528 110.155 24.2694L111.794 26.8074C111.804 26.8225 111.812 26.8393 111.816 26.857C111.82 26.8733 111.821 26.8903 111.818 26.9069C111.817 26.9207 111.811 26.9337 111.802 26.9444C111.799 26.9488 111.794 26.9522 111.789 26.9544C111.783 26.9566 111.777 26.9576 111.772 26.9572L110.694 26.9069C110.683 26.9061 110.672 26.9022 110.663 26.8956C110.652 26.8869 110.643 26.8767 110.635 26.8653L109.211 24.6611C109.139 24.6662 109.066 24.6662 108.993 24.661L107.784 24.6029C107.775 24.6025 107.766 24.5996 107.758 24.5945C107.749 24.5885 107.741 24.5813 107.733 24.573C107.726 24.563 107.72 24.5524 107.714 24.5414C107.71 24.5291 107.707 24.5163 107.705 24.5034L107.488 23.3405C107.483 23.318 107.485 23.2945 107.494 23.2732C107.497 23.2655 107.503 23.2589 107.51 23.2542C107.517 23.2495 107.525 23.2471 107.534 23.2471L108.683 23.2983C108.963 23.3113 109.172 23.2355 109.311 23.0708C109.449 22.9061 109.509 22.6525 109.49 22.3101L107.341 22.2095C107.331 22.209 107.323 22.2062 107.315 22.2011C107.306 22.1951 107.297 22.1878 107.29 22.1795C107.283 22.1695 107.277 22.159 107.271 22.148C107.266 22.1357 107.263 22.1229 107.262 22.1099L107.167 21.6024C107.162 21.5802 107.164 21.557 107.173 21.536C107.176 21.528 107.181 21.5212 107.189 21.5165C107.196 21.5118 107.204 21.5095 107.213 21.5098L109.361 21.6082C109.257 21.2641 109.104 21.0041 108.902 20.8282C108.701 20.6461 108.442 20.5419 108.171 20.5342L107.022 20.4828C107.012 20.4818 107.003 20.4785 106.994 20.4733C106.985 20.4681 106.978 20.4611 106.972 20.4527C106.956 20.4332 106.945 20.4097 106.941 20.3846L106.726 19.231C106.723 19.2191 106.722 19.2068 106.724 19.1946C106.724 19.184 106.727 19.1737 106.731 19.164C106.735 19.1559 106.741 19.149 106.748 19.1439C106.755 19.1399 106.763 19.138 106.771 19.1386L110.416 19.3088C110.425 19.3095 110.434 19.3124 110.441 19.3173C110.451 19.3228 110.459 19.3302 110.466 19.3389C110.474 19.3484 110.48 19.359 110.485 19.3704C110.49 19.3827 110.493 19.3955 110.494 19.4085L110.709 20.562C110.714 20.5845 110.712 20.608 110.704 20.6293C110.7 20.6372 110.695 20.6439 110.688 20.6486C110.681 20.6533 110.672 20.6556 110.664 20.6554L109.898 20.6184Z" fill="#FFBEAA"/>
<path d="M33.7108 73.0784C31.7325 74.8055 25.9955 72.0426 20.8956 66.9094C15.7957 61.7761 13.2643 56.2144 15.2414 54.4877L17.1733 52.6516L35.6418 71.2419L33.7108 73.0784Z" fill="#FFBEAA"/>
<path d="M35.7312 71.1635C37.5711 69.3 34.8871 63.6664 29.7361 58.5805C24.5852 53.4946 18.9179 50.8824 17.0779 52.7459C15.2379 54.6094 17.922 60.243 23.073 65.3289C28.2239 70.4148 33.8912 73.027 35.7312 71.1635Z" fill="#FFEECD"/>
<path d="M35.2663 70.8218C36.9051 69.1714 34.4351 64.0616 29.7494 59.4088C25.0637 54.7559 19.9366 52.322 18.2978 53.9725C16.6589 55.6229 19.1289 60.7327 23.8146 65.3855C28.5004 70.0383 33.6274 72.4722 35.2663 70.8218Z" stroke="white" stroke-width="0.136686" stroke-miterlimit="10"/>
<path d="M29.2252 62.0205C29.2431 62.3069 29.1686 62.5915 29.0127 62.8324L29.6141 63.4248C29.6334 63.443 29.647 63.4663 29.6533 63.492C29.6561 63.5014 29.6563 63.5115 29.654 63.5211C29.6516 63.5306 29.6467 63.5394 29.6398 63.5464L29.3727 63.7907C29.366 63.7973 29.3573 63.8015 29.348 63.8027C29.3371 63.8049 29.3259 63.8046 29.3151 63.8019C29.3028 63.7979 29.291 63.7926 29.2799 63.786C29.2679 63.7789 29.2569 63.7702 29.2473 63.7601L28.6804 63.2005C28.431 63.3872 28.1295 63.4912 27.8181 63.498C27.4592 63.5051 27.1035 63.4283 26.7795 63.2736L26.9096 65.8815C26.9104 65.8882 26.9099 65.8949 26.908 65.9013C26.9061 65.9078 26.903 65.9138 26.8987 65.919C26.8943 65.924 26.889 65.9282 26.8829 65.9312C26.8769 65.9342 26.8703 65.9359 26.8636 65.9363C26.8471 65.9369 26.8306 65.9335 26.8155 65.9267C26.798 65.9189 26.7821 65.908 26.7686 65.8943L25.4603 64.6062C25.4486 64.595 25.4388 64.582 25.4312 64.5678C25.4242 64.5551 25.4202 64.5409 25.4198 64.5263L25.3123 62.2738C25.2527 62.2226 25.1618 62.136 25.0396 62.016L23.5633 60.5661C23.5534 60.5567 23.545 60.5458 23.5386 60.5337C23.5321 60.5229 23.5272 60.5111 23.5242 60.4989C23.5219 60.4886 23.5219 60.4779 23.5242 60.4676C23.5253 60.4586 23.5291 60.4501 23.5352 60.4433L24.1464 59.8827C24.1546 59.8765 24.1642 59.8723 24.1743 59.8704C24.1845 59.8685 24.1949 59.869 24.2048 59.8719C24.2309 59.8788 24.2546 59.8927 24.2734 59.912L25.6694 61.2852C26.0085 61.6205 26.3275 61.8475 26.6263 61.966C26.9296 62.0894 27.1968 62.0944 27.4277 61.979L24.822 59.4139C24.8121 59.4043 24.8034 59.3936 24.7961 59.382C24.7901 59.3711 24.7855 59.3596 24.7825 59.3475C24.7804 59.3372 24.7804 59.3266 24.7825 59.3163C24.7836 59.3072 24.7874 59.2988 24.7935 59.292L25.0601 59.0465C25.0683 59.0403 25.0778 59.0361 25.0879 59.0344C25.098 59.0326 25.1084 59.0333 25.1182 59.0365C25.1445 59.0426 25.1684 59.0563 25.1871 59.0758L27.7944 61.6417C27.9237 61.4278 27.9297 61.1782 27.812 60.8948C27.6942 60.6114 27.4681 60.293 27.1227 59.9528L25.7268 58.5797C25.7074 58.5618 25.6937 58.5388 25.6872 58.5133C25.6841 58.5037 25.6837 58.4935 25.686 58.4836C25.6883 58.4738 25.6933 58.4649 25.7003 58.4577L26.3055 57.9014C26.3127 57.8952 26.3216 57.8912 26.331 57.8898C26.3418 57.8879 26.3529 57.8885 26.3636 57.8914C26.3761 57.8945 26.388 57.8999 26.3987 57.9073C26.4107 57.9143 26.4218 57.9227 26.4318 57.9324L30.8576 62.2839C30.8677 62.2935 30.8763 62.3045 30.8831 62.3167C30.8896 62.3271 30.8943 62.3384 30.8972 62.3503C30.8991 62.3606 30.8991 62.3712 30.8971 62.3815C30.896 62.3909 30.892 62.3996 30.8858 62.4066L30.2805 62.9629C30.2724 62.9691 30.2629 62.9733 30.2528 62.975C30.2426 62.9768 30.2323 62.9761 30.2225 62.9729C30.1962 62.9668 30.1722 62.9531 30.1535 62.9336L29.2252 62.0205Z" fill="white"/>
<path d="M140.316 102.803C142.961 104.277 142.198 111.578 138.615 119.111C135.032 126.645 129.984 131.558 127.34 130.085L124.595 128.705L137.571 101.424L140.316 102.803Z" fill="#FFEECD"/>
<path d="M137.453 101.358C134.714 100.088 129.647 105.195 126.136 112.765C122.624 120.335 121.998 127.502 124.736 128.773C127.475 130.043 132.542 124.936 136.054 117.366C139.565 109.796 140.192 102.629 137.453 101.358Z" fill="#FFBEAA"/>
<path d="M137.262 101.997C134.833 100.862 130.251 105.532 127.028 112.429C123.805 119.326 123.162 125.837 125.591 126.972C128.02 128.107 132.602 123.437 135.825 116.54C139.048 109.643 139.692 103.132 137.262 101.997Z" stroke="#FCF5E8" stroke-width="0.20667" stroke-miterlimit="10"/>
<path d="M129.319 115.011C129.375 114.588 129.513 114.134 129.712 113.715L129.321 113.05C129.308 113.03 129.302 113 129.302 112.964C129.302 112.951 129.305 112.936 129.309 112.921C129.314 112.905 129.32 112.89 129.328 112.877L129.629 112.412C129.636 112.4 129.645 112.39 129.654 112.385C129.664 112.377 129.674 112.374 129.683 112.374C129.693 112.375 129.702 112.379 129.711 112.385C129.72 112.391 129.727 112.4 129.733 112.411L130.102 113.04C130.372 112.668 130.669 112.4 130.95 112.274C131.273 112.13 131.573 112.113 131.825 112.225L132.359 108.364C132.36 108.354 132.362 108.344 132.365 108.333C132.369 108.323 132.373 108.313 132.378 108.304C132.383 108.294 132.389 108.286 132.395 108.279C132.401 108.273 132.408 108.268 132.414 108.264C132.429 108.258 132.443 108.256 132.455 108.261C132.468 108.266 132.48 108.277 132.489 108.292L133.341 109.738C133.348 109.75 133.354 109.766 133.357 109.785C133.36 109.801 133.36 109.821 133.357 109.843L132.892 113.18C132.932 113.234 132.992 113.33 133.072 113.465L134.034 115.091C134.041 115.101 134.046 115.115 134.049 115.13C134.052 115.144 134.053 115.16 134.053 115.177C134.052 115.192 134.05 115.208 134.045 115.224C134.042 115.238 134.036 115.252 134.029 115.265L133.341 116.332C133.332 116.344 133.323 116.354 133.313 116.361C133.303 116.367 133.294 116.37 133.286 116.37C133.264 116.369 133.247 116.357 133.235 116.335L132.325 114.794C132.104 114.417 131.875 114.195 131.637 114.129C131.395 114.056 131.157 114.148 130.921 114.406L132.618 117.285C132.625 117.296 132.63 117.309 132.634 117.323C132.636 117.338 132.637 117.353 132.637 117.37C132.637 117.385 132.634 117.401 132.629 117.417C132.626 117.431 132.621 117.445 132.613 117.457L132.313 117.924C132.304 117.937 132.295 117.947 132.285 117.953C132.276 117.959 132.267 117.962 132.259 117.961C132.237 117.961 132.218 117.95 132.207 117.928L130.508 115.048C130.339 115.417 130.271 115.793 130.306 116.174C130.341 116.556 130.464 116.949 130.689 117.331L131.599 118.872C131.612 118.891 131.618 118.921 131.618 118.956C131.618 118.97 131.616 118.985 131.611 119C131.607 119.016 131.6 119.031 131.592 119.045L130.911 120.103C130.903 120.115 130.894 120.124 130.885 120.13C130.875 120.137 130.865 120.14 130.856 120.14C130.846 120.14 130.836 120.136 130.828 120.129C130.819 120.123 130.812 120.114 130.805 120.103L127.921 115.222C127.914 115.211 127.909 115.198 127.906 115.182C127.903 115.169 127.902 115.154 127.902 115.137C127.903 115.122 127.906 115.106 127.91 115.09C127.913 115.076 127.919 115.061 127.926 115.048L128.608 113.99C128.617 113.977 128.626 113.968 128.636 113.961C128.645 113.955 128.654 113.952 128.662 113.953C128.684 113.953 128.703 113.964 128.714 113.987L129.319 115.011Z" fill="#FCF5E8"/>
<path fill-rule="evenodd" clip-rule="evenodd" d="M40.8823 57.6685C41.586 58.569 42.5263 59.3015 43.6544 59.7602L44.1592 57.9354C43.6036 57.6799 43.1162 57.3302 42.7093 56.9128L40.8823 57.6685Z" fill="#FCAED3"/>
<path fill-rule="evenodd" clip-rule="evenodd" d="M96.1368 56.1545C97.9307 56.9374 100.048 56.9386 101.926 55.9763C101.981 55.9484 102.034 55.92 102.088 55.8909L101.196 54.2407C101.155 54.2634 101.113 54.2855 101.071 54.3071C99.7291 54.9947 98.2178 55.0014 96.931 54.4543L96.1368 56.1545Z" fill="#FFC555"/>
<path fill-rule="evenodd" clip-rule="evenodd" d="M58.3632 31.8947C57.751 30.737 56.6433 29.8534 55.2594 29.574C55.2193 29.566 55.1793 29.5584 55.1392 29.5514L54.7717 31.6025C54.7969 31.6068 54.822 31.6114 54.8472 31.6165C55.575 31.7634 56.1612 32.2204 56.4959 32.8222L58.3632 31.8947Z" fill="#FFBEAA"/>
<path d="M62.4522 53.5847L62.9797 52.9103C63.4051 52.3663 63.5911 51.637 63.4928 50.9092C63.3936 50.1806 63.0186 49.5287 62.4632 49.1171L61.7746 48.6079L60.7565 49.9841L61.4452 50.4934C61.6316 50.6309 61.7589 50.8666 61.7961 51.14C61.8337 51.4131 61.7733 51.6741 61.6304 51.8565L61.1029 52.531L62.4522 53.5847Z" fill="#6C96B2"/>
<path d="M59.363 113.015L58.4421 111.824C57.2474 110.274 55.9041 108.821 54.4512 107.505L53.3349 106.492L52.1778 108.109L53.2957 109.121C54.5447 110.251 55.6982 111.5 56.727 112.832L57.6479 114.023L59.363 113.015Z" fill="#81C1BD"/>
<path d="M118.15 45.2107L117.757 43.6329L116.969 43.8299C115.618 44.1679 114.614 45.426 114.583 46.8202L114.565 47.6329L116.188 47.6681L116.207 46.8558C116.221 46.202 116.729 45.5658 117.362 45.4068L118.15 45.2107Z" fill="#FF7E55"/>
<path d="M87.2055 19.6553L90.474 21.3313L89.8219 22.6029L86.5534 20.9268L87.2055 19.6553Z" fill="#ED1164"/>
<path d="M75.1093 86.5251L74.9515 82.7568L74.7505 82.764L74.739 82.6353L72.3406 82.8661L69.9854 82.9636L69.9905 83.0922L69.7891 83.1123L70.1513 86.8703L75.1093 86.5251Z" fill="#AAC529"/>
</g>
</svg>
