<svg width="24" height="24" viewBox="0 0 24 24" fill="none" xmlns="http://www.w3.org/2000/svg">
<g clip-path="url(#clip0_20_3285)">
<path d="M12.4884 18.5334C12.185 18.3635 11.815 18.3635 11.5116 18.5334L6.83871 21.1491C6.09411 21.5659 5.20316 20.9186 5.36943 20.0816L6.41293 14.829C6.4807 14.4879 6.36636 14.1361 6.11101 13.8999L2.17881 10.2639C1.55227 9.68455 1.89255 8.63714 2.73995 8.53664L8.05819 7.9059C8.40352 7.86494 8.70279 7.64752 8.84845 7.33175L11.092 2.46838C11.4494 1.69356 12.5506 1.69356 12.908 2.46838L15.1515 7.33175C15.2972 7.64752 15.5965 7.86494 15.9418 7.9059L21.2601 8.53664C22.1075 8.63714 22.4477 9.68455 21.8212 10.2639L17.889 13.8999C17.6336 14.1361 17.5193 14.4879 17.5871 14.829L18.6306 20.0816C18.7968 20.9186 17.9059 21.5659 17.1613 21.1491L12.4884 18.5334Z" fill="#9D9D9D"/>
</g>
<defs>
<clipPath id="clip0_20_3285">
<rect width="24" height="24" fill="white"/>
</clipPath>
</defs>
</svg>
