<svg width="20" height="20" viewBox="0 0 20 20" fill="none" xmlns="http://www.w3.org/2000/svg">
<path d="M9.16666 9.16669V5.00002C9.16666 4.53978 9.53975 4.16669 9.99999 4.16669V4.16669C10.4602 4.16669 10.8333 4.53978 10.8333 5.00002V9.16669H15C15.4602 9.16669 15.8333 9.53978 15.8333 10V10C15.8333 10.4603 15.4602 10.8334 15 10.8334H10.8333V15C10.8333 15.4603 10.4602 15.8334 9.99999 15.8334V15.8334C9.53975 15.8334 9.16666 15.4603 9.16666 15V10.8334H4.99999C4.53975 10.8334 4.16666 10.4603 4.16666 10V10C4.16666 9.53978 4.53975 9.16669 4.99999 9.16669H9.16666Z" fill="white"/>
</svg>
